/* XPM */
static char *_af7a161cb764f679fefa31f5d8d367aqv7XgegMNBjvOpP3[] = {
/* columns rows colors chars-per-pixel */
"64 64 8 1 ",
"  c None",
". c black",
"X c #442401",
"o c #562F05",
"O c #663909",
"+ c #D19900",
"@ c #F4B714",
"# c white",
/* pixels */
"                                                                ",
"                                                                ",
"                                                                ",
"                                                                ",
"                                                                ",
"                                                                ",
"                            ....                                ",
"                          ..@@@@..                              ",
"                         .@@@++@@@.                             ",
"                        .@@#++++@@@.                            ",
"                       .@@#++++++@@@.                           ",
"            OOOOOOOOOOO.@#++++@+++@@.OOOOOOOOOOOOOO             ",
"         OOOOOOOOOOOOO.@#+++@@@@+++@@.OOOOOOOOOOOOOOOO          ",
"        OOOOOOOOOOOOOO.@+++@@@@@@+++@.OOOOOOOOOOOOOOOOO         ",
"      OOOOOOOOOOOOOOOO.@++++@@@@@@++@.OOOOOOOOOOOOOOOOOO        ",
"     OOOOOOOOOOOOOOOOO.@@++++@@@@@#@@.OOOOOOOOOOOOOOOOOOO       ",
"    OOOOOOOOOOOOOOOOOOO.@@@++@@@@#@@.OOOOOOOOOOOOOOOOOOOO       ",
"    OOOOOOOOOOOOOOOOOOO.@@@@+@@@#@@@.OOOOOOOOOOOOOOOOOOOOO      ",
"    OOOOOOOOOOOOOOOOOOOO.@@@@@@#@@@.OOOOOOOOOOOOOOOOOOOOOO      ",
"    OOOOOOOOOOOOOOOOOOOOO.@@@@#@@@.OOOOOOOOOOOOOOOOOOOOOOO      ",
"    OOOOOOOOOOOOOOOOOOOOOO..@@@@..OOOOOOOOOOOOOOOOOOOOOOOO      ",
"    OOOOOOOOOOOOOOOOOOOOOOOO....OOOOOOOOOOOOOOOOOOOOOOOOOO      ",
"    OOOOOOOOOOOOOOOOOOOOOOOOOOOOOOOOOOOOOOOOOOOOOOOOOOOOO       ",
"    oOOOOOOOOOOOOOOOOOOOOOOOOOOOOOOOOOOOOOOOOOOOOOOOOOOOo       ",
"     oOOOOOOOOOOOOOOOOOOOOOOOOOOOOOOOOOOOOOOOOOOOOOOOOooo       ",
"      ooOOOOOOOOOOOOOOOOOOOOOOOOOOOOOOOOOOOOOOOOOOOooooo        ",
"        oooOOOOOOOOOOOOOOOOOOOOOOOOOOOOOOOOOOOOOooooooo         ",
"        ooooooOOOOOOOOOOOOOOOOOOOOOOOOOOOOoooooooooooo          ",
"            ooooooooooooooooOOOOOOOOooOOooooooooooo             ",
"             ooooooooooooooooooooooooooooooooooo                ",
"               ooooooooooooooooooooooooooooo                    ",
"                     XXXXXXXXXXXXXXXXXXX                        ",
"                      XXXXXXXXXXXXXXXXO                         ",
"                       OOXXXXXXXXXXXXO                          ",
"                       OoOOOXXXXXXOOO                           ",
"                        ooOOOXXXXOOoo                           ",
"                         ooOOXXOOOOo                            ",
"                          ooOOOOOOoo                            ",
"                           oOOOOOOo                             ",
"                           ooOOOOOo                             ",
"                           ooOOOOO                              ",
"                           ooOOOOo                              ",
"                            ooOOOoo                             ",
"                             oOOOOo                             ",
"                             oOOOOo                             ",
"                            OoOOOOoO                            ",
"                           OOOOOOOOOO                           ",
"                           OOOOOOOOOOOOO                        ",
"                       OOOOOOOOOOOOOOOOOO                       ",
"                      OOOOOOOOOOOOOOOOOOOO                      ",
"                     OOOOOOOOOOOOOOOOOOOOOOO                    ",
"                    oooOOOOOOOOOOOOOOOOOOOOoo                   ",
"                    OoooOOOOOOOOOOOOOOOOOooo                    ",
"                      oooooooOOOOOOOOOOOooO                     ",
"                        oooooooOOOOoooooo                       ",
"                            oooooooooooo                        ",
"                                                                ",
"                                                                ",
"                                                                ",
"                                                                ",
"                                                                ",
"                                                                ",
"                                                                ",
"                                                                "
};
