/* XPM */
static char *_e18d4732887401680578654f65dd566YfDexRQI7oUuXUFj[] = {
/* columns rows colors chars-per-pixel */
"64 64 8 1 ",
"  c None",
". c black",
"X c #442401",
"o c #562F05",
"O c #663909",
"+ c #D19900",
"@ c #F4B714",
"# c white",
/* pixels */
"                                                                ",
"                                                                ",
"                                                                ",
"                                                                ",
"                              ...                               ",
"                             .@@@.                              ",
"                             .@@@.                              ",
"                             .###.                              ",
"                             .###.                              ",
"                             .###.                              ",
"                             .@@@.                              ",
"                             .@@@.                              ",
"                             .@@@.                              ",
"              OOOOOOOOOOOOOOO.@@@.OOOOOOOOOOOOOOOOOOO           ",
"           OOOOOOOOOOOOOOOOOO.@@@.OOOOOOOOOOOOOOOOOOOOOO        ",
"          OOOOOOOOOOOOOOOOOOO.+++.OOOOOOOOOOOOOOOOOOOOOOO       ",
"        OOOOOOOOOOOOOOOOOOOOO.+++.OOOOOOOOOOOOOOOOOOOOOOOO      ",
"       OOOOOOOOOOOOOOOOOOOOOO.+++.OOOOOOOOOOOOOOOOOOOOOOOOO     ",
"      OOOOOOOOOOOOOOOOOOOOOOO.@@@.OOOOOOOOOOOOOOOOOOOOOOOOO     ",
"      OOOOOOOOOOOOOOOOOOOOOOOO...OOOOOOOOOOOOOOOOOOOOOOOOOO     ",
"      OOOOOOOOOOOOOOOOOOOOOOOOOOOOOOOOOOOOOOOOOOOOOOOOOOOOO     ",
"      OOOOOOOOOOOOOOOOOOOOOOOOOOOOOOOOOOOOOOOOOOOOOOOOOOOOO     ",
"      OOOOOOOOOOOOOOOOOOOOOOOOOOOOOOOOOOOOOOOOOOOOOOOOOOOOO     ",
"      OOOOOOOOOOOOOOOOOOOOOOOOOOOOOOOOOOOOOOOOOOOOOOOOOOOOO     ",
"      OOOOOOOOOOOOOOOOOOOOOOOOOOOOOOOOOOOOOOOOOOOOOOOOOOOOO     ",
"      oOOOOOOOOOOOOOOOOOOOOOOOOOOOOOOOOOOOOOOOOOOOOOOOOOOOo     ",
"       oOOOOOOOOOOOOOOOOOOOOOOOOOOOOOOOOOOOOOOOOOOOOOOOOooo     ",
"        ooOOOOOOOOOOOOOOOOOOOOOOOOOOOOOOOOOOOOOOOOOOOooooo      ",
"          oooOOOOOOOOOOOOOOOOOOOOOOOOOOOOOOOOOOOOOooooooo       ",
"          ooooooOOOOOOOOOOOOOOOOOOOOOOOOOOOOoooooooooooo        ",
"              ooooooooooooooooOOOOOOOOooOOooooooooooo           ",
"               ooooooooooooooooooooooooooooooooooo              ",
"                 ooooooooooooooooooooooooooooo                  ",
"                       XXXXXXXXXXXXXXXXXXX                      ",
"                        XXXXXXXXXXXXXXXXO                       ",
"                         OOXXXXXXXXXXXXO                        ",
"                         OoOOOXXXXXXOOO                         ",
"                          ooOOOXXXXOOoo                         ",
"                           ooOOXXOOOOo                          ",
"                            ooOOOOOOoo                          ",
"                             oOOOOOOo                           ",
"                             ooOOOOOo                           ",
"                             ooOOOOO                            ",
"                             ooOOOOo                            ",
"                              ooOOOoo                           ",
"                               oOOOOo                           ",
"                               oOOOOo                           ",
"                              OoOOOOoO                          ",
"                             OOOOOOOOOO                         ",
"                             OOOOOOOOOOOOO                      ",
"                         OOOOOOOOOOOOOOOOOO                     ",
"                        OOOOOOOOOOOOOOOOOOOO                    ",
"                       OOOOOOOOOOOOOOOOOOOOOOO                  ",
"                      oooOOOOOOOOOOOOOOOOOOOOoo                 ",
"                      OoooOOOOOOOOOOOOOOOOOooo                  ",
"                        oooooooOOOOOOOOOOOooO                   ",
"                          oooooooOOOOoooooo                     ",
"                              oooooooooooo                      ",
"                                                                ",
"                                                                ",
"                                                                ",
"                                                                ",
"                                                                ",
"                                                                "
};
