/* XPM */
static char *_c0164a4c2084d5ee2111caceb15ceecDP7eoI87N1xnbYoV[] = {
/* columns rows colors chars-per-pixel */
"64 64 8 1 ",
"  c None",
". c black",
"X c #442401",
"o c #562F05",
"O c #663909",
"+ c #D19900",
"@ c #F4B714",
"# c white",
/* pixels */
"                                                                ",
"                                                                ",
"                                                                ",
"                                                                ",
"                                                                ",
"                                                                ",
"                               ...                              ",
"                              .@.@..                            ",
"                             .@@@.@@.                           ",
"                            .@++#@.@@.                          ",
"                           .@++++#@.@#.                         ",
"             OOOOOOOOOOOOOO.@++@++#.@#.OOOOOOOOOOOOO            ",
"          OOOOOOOOOOOOOOOO.@@+@@+++@.#@.OOOOOOOOOOOOOOO         ",
"         OOOOOOOOOOOOOOOOO.@+@@++++@.#@.OOOOOOOOOOOOOOOO        ",
"       OOOOOOOOOOOOOOOOOOO.@@@+++@+@.@@.OOOOOOOOOOOOOOOOO       ",
"      OOOOOOOOOOOOOOOOOOOO.@@@++@@@@.@@.OOOOOOOOOOOOOOOOOO      ",
"     OOOOOOOOOOOOOOOOOOOOOO.@@@@@@@.@@.OOOOOOOOOOOOOOOOOOO      ",
"     OOOOOOOOOOOOOOOOOOOOOO.@#@@@@@.@@.OOOOOOOOOOOOOOOOOOOO     ",
"     OOOOOOOOOOOOOOOOOOOOOOO.@#@@@.@@.OOOOOOOOOOOOOOOOOOOOO     ",
"     OOOOOOOOOOOOOOOOOOOOOOOO.@@@.@@.OOOOOOOOOOOOOOOOOOOOOO     ",
"     OOOOOOOOOOOOOOOOOOOOOOOOO.@.@..OOOOOOOOOOOOOOOOOOOOOOO     ",
"     OOOOOOOOOOOOOOOOOOOOOOOOOO...OOOOOOOOOOOOOOOOOOOOOOOOO     ",
"     OOOOOOOOOOOOOOOOOOOOOOOOOOOOOOOOOOOOOOOOOOOOOOOOOOOOO      ",
"     oOOOOOOOOOOOOOOOOOOOOOOOOOOOOOOOOOOOOOOOOOOOOOOOOOOOo      ",
"      oOOOOOOOOOOOOOOOOOOOOOOOOOOOOOOOOOOOOOOOOOOOOOOOOooo      ",
"       ooOOOOOOOOOOOOOOOOOOOOOOOOOOOOOOOOOOOOOOOOOOOooooo       ",
"         oooOOOOOOOOOOOOOOOOOOOOOOOOOOOOOOOOOOOOOooooooo        ",
"         ooooooOOOOOOOOOOOOOOOOOOOOOOOOOOOOoooooooooooo         ",
"             ooooooooooooooooOOOOOOOOooOOooooooooooo            ",
"              ooooooooooooooooooooooooooooooooooo               ",
"                ooooooooooooooooooooooooooooo                   ",
"                      XXXXXXXXXXXXXXXXXXX                       ",
"                       XXXXXXXXXXXXXXXXO                        ",
"                        OOXXXXXXXXXXXXO                         ",
"                        OoOOOXXXXXXOOO                          ",
"                         ooOOOXXXXOOoo                          ",
"                          ooOOXXOOOOo                           ",
"                           ooOOOOOOoo                           ",
"                            oOOOOOOo                            ",
"                            ooOOOOOo                            ",
"                            ooOOOOO                             ",
"                            ooOOOOo                             ",
"                             ooOOOoo                            ",
"                              oOOOOo                            ",
"                              oOOOOo                            ",
"                             OoOOOOoO                           ",
"                            OOOOOOOOOO                          ",
"                            OOOOOOOOOOOOO                       ",
"                        OOOOOOOOOOOOOOOOOO                      ",
"                       OOOOOOOOOOOOOOOOOOOO                     ",
"                      OOOOOOOOOOOOOOOOOOOOOOO                   ",
"                     oooOOOOOOOOOOOOOOOOOOOOoo                  ",
"                     OoooOOOOOOOOOOOOOOOOOooo                   ",
"                       oooooooOOOOOOOOOOOooO                    ",
"                         oooooooOOOOoooooo                      ",
"                             oooooooooooo                       ",
"                                                                ",
"                                                                ",
"                                                                ",
"                                                                ",
"                                                                ",
"                                                                ",
"                                                                ",
"                                                                "
};
