/* XPM */
static char *c942364da25d4d90f8892f9bf351ddadtoo2ysY8g6ghyx3x[] = {
/* columns rows colors chars-per-pixel */
"64 64 188 2 ",
"   c #040505",
".  c #060906",
"X  c #060508",
"o  c #050D0D",
"O  c #0C0E0D",
"+  c #001601",
"@  c #03110D",
"#  c #0E120E",
"$  c #11130F",
"%  c #050F11",
"&  c #0D0E10",
"*  c #051111",
"=  c #0D1312",
"-  c #0F1816",
";  c #0F1719",
":  c #061B1B",
">  c #091C1C",
",  c #111514",
"<  c #151B16",
"1  c #181A15",
"2  c #131618",
"3  c #151C1A",
"4  c #191D1D",
"5  c #0B2F0F",
"6  c #0B300F",
"7  c #0A2E11",
"8  c #1B201F",
"9  c #132B1F",
"0  c #0A3113",
"q  c #16371C",
"w  c #15391C",
"e  c #18391E",
"r  c #27261D",
"t  c #322213",
"y  c #362618",
"u  c #131F20",
"i  c #1E1E20",
"p  c #042222",
"a  c #0F2727",
"s  c #0B2A27",
"d  c #162425",
"f  c #1D2424",
"g  c #142C23",
"h  c #1B2927",
"j  c #14272A",
"k  c #1C2629",
"l  c #142C2C",
"z  c #1C2B2B",
"x  c #0C3D24",
"c  c #143025",
"v  c #163A21",
"b  c #0F2F31",
"n  c #162E31",
"m  c #1B2E31",
"M  c #153233",
"N  c #1B3233",
"B  c #1C3836",
"V  c #153639",
"C  c #1D3638",
"Z  c #133A3B",
"A  c #1D3A3B",
"S  c #212425",
"D  c #212827",
"F  c #212728",
"G  c #232A2B",
"H  c #23302F",
"J  c #232E31",
"K  c #223333",
"L  c #2C3635",
"P  c #243837",
"I  c #233738",
"U  c #283639",
"Y  c #233B3B",
"T  c #283C3B",
"R  c #004C01",
"E  c #00470D",
"W  c #00490B",
"Q  c #024613",
"!  c #024913",
"~  c #024F1A",
"^  c #0B5816",
"/  c #02501C",
"(  c #0C551C",
")  c #0D591C",
"_  c #10521F",
"`  c #14661D",
"'  c #16681E",
"]  c #18691F",
"[  c #054D21",
"{  c #15462F",
"}  c #144E2D",
"|  c #0E5421",
" . c #0E5821",
".. c #115323",
"X. c #105A21",
"o. c #16512E",
"O. c #19512F",
"+. c #154533",
"@. c #194635",
"#. c #164B32",
"$. c #1A4936",
"%. c #1B463A",
"&. c #165131",
"*. c #1A5233",
"=. c #204639",
"-. c #28403F",
";. c #166621",
":. c #196624",
">. c #166822",
",. c #1A6A24",
"<. c #1D6C28",
"1. c #1F6D31",
"2. c #226D2F",
"3. c #246737",
"4. c #236E33",
"5. c #286D35",
"6. c #276739",
"7. c #256B3A",
"8. c #2A6C3B",
"9. c #267235",
"0. c #287236",
"q. c #277339",
"w. c #2B743A",
"e. c #2E783D",
"r. c #30773D",
"t. c #163E40",
"y. c #1D3F42",
"u. c #283E40",
"i. c #1D4345",
"p. c #1D4649",
"a. c #15494D",
"s. c #1A494E",
"d. c #1F5149",
"f. c #1B4C52",
"g. c #244343",
"h. c #2A4444",
"j. c #234549",
"k. c #294448",
"l. c #244D4D",
"z. c #2A4B4C",
"x. c #344344",
"c. c #384546",
"v. c #344847",
"b. c #354548",
"n. c #344E4E",
"m. c #394D4D",
"M. c #215147",
"N. c #215049",
"B. c #21504D",
"V. c #224E52",
"C. c #254E52",
"Z. c #344F51",
"A. c #3A4C50",
"S. c #225052",
"D. c #2B5556",
"F. c #335050",
"G. c #3C5353",
"H. c #3F5758",
"J. c #375C5A",
"K. c #3C5C5C",
"L. c #2D6E41",
"P. c #2E7240",
"I. c #3E615E",
"U. c #3C5F60",
"Y. c #3D6264",
"T. c #36666A",
"R. c #39646B",
"E. c #3E696D",
"W. c #3F6A71",
"Q. c #3D6D72",
"!. c #405657",
"~. c #435D5E",
"^. c #4E5D5F",
"/. c #505E5C",
"(. c #515E61",
"). c #416163",
"_. c #41666A",
"`. c #556565",
"'. c #5A6766",
"]. c #556468",
"[. c #5A6769",
"{. c #576A6A",
"}. c #416C73",
"|. c #5D6E71",
" X c #447075",
".X c #62706F",
"XX c #616E71",
"oX c #647174",
/* pixels */
"V.V.V.V.V.V.V.V.C.C.C.C.l.B.l.B.d.d.d.d.N.N.N.d.d.d.N.N.N.N.d.d.d.N.N.N.N.N.N.N.N.N.M.M.N.M.M.N.l.l.l.l.C.C.V.S.S.V.C.C.C.C.V.f.",
"f.f.f.f.f.f.f.f.f.s.V s x [ / / ~ ~ / ~ ~ ~ / ~ ~ ~ ~ ~ ~ ~ / ~ / ~ ~ ~ ~ ~ ~ ~ ~ ~ ~ ~ ~ ~ ~ ~ ~ ~ ~ x s Z s.f.f.f.f.f.f.f.f.f.",
"E.Q.W.W.R.W.}.E.}._.u.3 v ..| X.<.<.,.,.,.<.<.<.<.<.,.,.<.<.<.<.<.<.<.,.,.,.<.<.<.<.<.<.<.<.<.<.) X...w < g. XW.}.}.R.Q.W.W.W.T.",
"z.D.p.j.V j.j.j.j.B d O g +.+.#.6.4.4.4.4.4.4.4.4.4.4.4.4.4.4.4.4.4.4.4.4.4.4.4.4.4.4.4.4.4.4.5.} +.+.g O * Y.s.i.y.A j.j.i.j.Z ",
"Z.p.A N m n M A N z 3 , 0 ! W W R R R R R R R R R R R R R R R R R R R R R R R R R R R R R R R R W W ! 0 # * J.t.B N z N C A M V ",
"Z.l.Y z k h B T K h 3 < e ..| X.<.<.,.,.,.,.,.<.<.<.<.<.<.<.<.,.,.<.<.<.<.<.<.<.<.<.<.,.,.,.<.<.) ( ..w < * U.i.K z k z Y I l n ",
"Z.z.n G F k P K k f 3 O g +.+.#.6.4.2.2.4.4.4.4.4.4.4.4.4.4.4.4.4.4.4.4.4.4.4.4.4.4.2.2.4.4.4.3.} { +.g O % U.B h k G z P h z M ",
"Z.g.d f F k K d f f 4 = 0 ! W W W R R R R R R R R R R R R R R R R R R R R R R R R R R R R R R W W W Q 5 $ % K.l f f G z z f f N ",
"n.g.k f f f F F F f , 3 w ..( ) <.<.,.,.,.<.<.<.<.<.<.<.<.<.<.<.<.<.<.<.<.<.<.<.<.<.<.<.<.<.<.<. .| ..q < o K.l F f f f F F d l ",
"m.Y G G f f f F F F , O g +.+.#.3.4.4.4.4.1.4.4.4.4.4.4.4.4.4.4.4.4.4.4.4.4.4.4.4.4.4.4.4.4.4.3.} +.@.9 O o H.l J F f f f F k n ",
"(.x.G F G F G F D F , , 0 Q W W R R R R R R R R R R R R R R R R R R R R R R R R R R R R R R R R W W ! 7 $ = {.h K F G S G f J n ",
"[.c.f f S F F F f f , 3 w ..( ) ,.,.,.,.,.,.,.,.,.,.,.,.,.,.,.,.,.,.,.,.,.,.,.,.,.,.,.<.<.<.<.,.) | ..w < = oXd f f S F F f d l ",
"[.c.f S f f F F F G 2 # g +.+.#.3.4.4.4.4.4.4.4.4.4.4.4.4.4.4.4.4.4.4.4.4.4.4.4.4.4.4.4.4.4.4.3.} #.+.g O , oXh S S f F F k K N ",
"`.b.f f f f F f G L 2 , 0 Q W W R R R R R R R R R R R R R R R R R R R R R R R R R R R R R R R R W W ! 0 $ = |.d S S f f G d P N ",
"G.j.N K h N B N B z ; 3 w ..( ) ,.,.,.,.,.,.,.,.,.,.,.,.,.,.,.,.,.,.,.,.,.,.,.,.,.,.,.,.,.,.,.:.) ( ..w 1 % ~.M K G h K B N B b ",
"F.D.g.h.M g.g.g.g.B u # g +.{ #.6.4.4.4.4.4.4.4.4.4.4.4.4.4.4.4.4.4.4.4.4.4.4.4.4.4.4.4.4.4.4.5.} { +.9 O % Y.p.g.Y B g.g.g.g.V ",
"n.p.A N N l N A N N 3 , 0 Q W W R R R R R R R R R R R R R R R R R R R R R R R R R R R R R R R R W W Q 0 $ % K.t.B N z N V B M M ",
"n.l.Y z k h B Y N k 3 3 v ..( ) ,.,.,.,.,.,.,.,.,.,.,.,.,.,.,.,.,.,.,.,.,.,.,.,.,.,.,.,.,.,.,.:.) ( ..w 3 % K.y.I h F h Y I l n ",
"n.z.n z F h K K k f 4 = g %.+.*.6.5.0.0.0.0.0.0.0.0.0.0.0.0.0.0.0.0.0.0.0.0.0.0.0.0.0.0.0.0.w.6.#.+.+.g & % K.B k F F z I z z N ",
"n.g.d f G k H k f f i = 0 Q W W R R R W R R R R R R R R R R R R R R R R R R R R R R R R R R R R W W Q 7 # o K.l f f G z z d f N ",
"n.g.h f f d F F F f 2 3 v ..| ) <.,.,.,.,.,.,.,.,.,.,.,.,.,.,.,.,.,.,.,.,.,.,.,.,.,.,.,.,.,.,.,. .| ..w < o K.l k f f d G F k l ",
"m.T H G f f f f F G , O g @.#.&.8.0.w.w.w.w.w.w.w.w.w.w.w.w.w.w.w.w.w.w.w.w.w.w.w.w.w.w.w.w.w.8.} #.@.9 O o K.z K f f f f G k n ",
"/.x.G F D F F f F G , = 0 Q W W W R R R R R R R R R R R R R R R R R R R R R R R R R R R R R R W W W Q 7 # = {.k J f G f G f J n ",
"'.c.d f S F F f f f , 3 w ..( ) <.,.,.,.,.,.,.,.,.,.,.,.,.,.,.,.,.,.,.,.,.,.,.,.,.,.,.,.,.,.,.,.) ( ..q < , .Xd f f f F F f h l ",
"'.c.f S S F F k k G , # g @.#.&.8.0.0.0.0.w.w.w.w.w.w.w.w.w.w.w.w.w.w.w.w.w.w.w.w.w.w.w.w.w.q.8.O.+.@.g O - oXf S f f G F F J M ",
"].b.f S S f F k G L < $ 0 Q W W R R R R R R R R R R R R R R R R R R R R R R R R R R R R R R R R W W ! 7 , - |.d f S f f G f U N ",
"G.k.m K h N K m K z - 3 w ..( ) ,.,.,.,.,.,.,.,.,.,.,.,.,.,.,.,.,.,.,.,.,.,.,.,.,.,.,.,.,.,.,.:.) | ..v 1 @ ~.M K G h K K N N b ",
"Z.D.g.h.N h.h.g.h.I u = g +.#.&.3.4.0.0.0.0.0.0.0.0.0.0.0.0.0.0.0.0.0.0.0.0.0.0.0.0.0.0.0.0.0.5.o.#.+.g O o I.p.g.Y I h.h.g.g.V ",
"F.p.A n m l N B N N 3 , 0 Q W W R R R R R R R R R R R R R R R R R R R R R R R R R R R R R R R R W Q Q 7 , o K.Z M m m N M B M V ",
"F.l.Y m k h K T N h 2 4 v ..( ) ,.,.,.,.,.,.,.,.,.,.,.,.,.,.,.,.,.,.,.,.,.,.,.,.,.,.,.,.,.,.,.:.) ( ..w 1 o K.i.I z z z Y Y l n ",
"F.z.z G k h P K k F 4 = g +.+.#.3.4.4.4.4.4.4.9.9.9.0.0.0.0.0.0.0.0.9.9.9.9.0.9.9.9.9.9.0.0.0.5.#.+.+.g O o K.B z G G l Y k G N ",
"n.g.d f F k G d f f 8 = 0 W W W R R R R R R R R R R R R R R R R R R R R R R R R R R R R R R R W W W Q 6 # % K.l k f G z z d f N ",
"Z.g.h f f f G F F f 2 < w | | ) :.,.,.,.,.,.,.,.,.,.,.,.,.,.,.,.,.,.,.,.,.,.,.,.,.,.,.,.,.,.,.:.) ( ..w < % K.n k f f d G f f l ",
"A.Y J G f f f f F F , # g @.+.&.8.0.0.9.9.9.9.0.9.9.0.0.9.9.0.9.0.0.9.0.0.0.0.0.0.0.9.9.9.9.5.5.} #.@.g O o K.l J F f f f F F n ",
"(.x.G F G F G F F F , , 0 Q ! W R R R R R R R R R R R R R R R R R R R R R R R R R R R R R R R R W ! Q 7 = = {.h G F G f G f G l ",
"[.c.d f S F F f f f , 3 w ..( ) ;.>.:.] ] ,.>.>.>.>.>.>.>.>.>.>.>.>.>.>.>.>.>.>.>.>.>.>.>.>.>.;.) ( | w 3 , oXd f f S F f f d j ",
"[.c.f f f f F F F G , = g @.+.&.8.0.0.9.9.9.0.0.0.0.0.0.0.0.0.0.0.0.0.0.0.0.0.0.0.0.0.0.0.0.q.7.o.#.@.g & = oXd S S f F F k z n ",
"`.x.f f f f F k G L 2 = 0 Q Q W R R R R R R R R R R R R R R R R R R R R R R R R R R R R R R R R W E Q 7 , = |.d f S f f G d U M ",
"G.g.m K k m N m K z - 3 w ..( ) :.:.,.,.,.,.,.,.,.,.,.,.,.,.,.,.,.,.,.,.,.,.,.,.,.>.>.>.,.,.,.:.) ( ..w 1 * ~.N K z h N N N N M ",
"Z.D.g.g.M g.j.g.h.I u = g @.#.O.8.w.0.w.w.w.w.w.w.w.w.w.0.0.w.w.w.w.w.w.0.0.0.w.w.w.w.w.w.w.w.8.&.#.$.g O @ Y.j.g.Y B g.g.g.g.V ",
"Z.p.B N N n N A N N 4 , 7 Q W W R R R R R R R R R R R R R R R R R R R R R R R R R R R R R R R R W W Q 5 $ o J.Z B N n N V A M V ",
"F.l.I z k h K Y N k 3 3 w | ( ) :.>.>.>.>.,.,.>.>.>.>.>.>.>.>.>.>.>.>.>.>.>.>.;.;.;.;.>.>.,.>.;.( ( ..w 1 @ K.A K k k h Y Y l M ",
"n.l.z F F k P K z F i = g #.#.&.w.w.e.e.e.e.e.e.e.e.e.e.e.e.e.e.e.e.e.e.e.e.e.e.e.e.e.e.e.r.e.P.&.$.$.g # @ K.B k F F z P z z N ",
"n.i.d f D h G k f f 4 , 0 Q W W R R R R R R R R R R R R R R R R R R R R R R R R R R R R R R R R W W Q 7 # % K.j d f G z z d d l ",
"n.g.h f f f F F F 8 2 3 w | ( ) ;.>.>.>.>.>.>.;.;.;.>.>.>.>.>.;.>.>.>.>.>.>.>.>.>.;.;.;.>.>.,.:.) ( ..w < % K.l h f f f G f f f ",
"m.Y K G f f f F F D , = l @.#.*.L.e.e.w.w.w.e.e.w.w.w.w.w.w.w.w.w.w.w.w.w.w.w.w.w.w.w.e.e.e.e.w.*.$.$.9 O o G.z H D f f f F D r ",
"^.h.G F F F G F F G , , 0 Q W W R R R R R R R R R R R R R R R R R R R R R R R R R R R R R R R R W E Q 7 # = {.h G F G f G f G t ",
"[.b.f f S F F F f f , < w _ ( ) :.;.:.;.>.>.>.>.,.,.,.,.>.,.,.,.,.,.,.,.,.,.,.,.,.,.:.>.>.>.:.:.( ( ..w < , oXd f f F F f f f t ",
"[.c.f S S F F F F G , # g $.#.*.w.w.w.w.w.w.w.w.w.w.w.w.w.w.w.w.w.w.w.w.w.w.w.w.w.w.w.w.w.w.w.8.&.$.$.g O , oXf S S f F F F G y ",
"`.x.f S S f F f G L 2 = 0 Q E W R R R R R R R R R R R R R R R R R R R R R R R R R R R R R R R R W Q Q 7 $ , XXf S S f f G f L y ",
"G.Y f S S S f f f f 2 3 w | ( ) ;.>.>.] ] ] ] ' ' ;.;.;.;.;.;.;.;.;.;.' ;.;.;.;.;.;.;.;.] ] ;.:.( ( _ w < = ~.d f S S S f f f r ",
"m.Y k S S S f f F F , O g %.$.*.8.0.w.w.w.w.w.w.w.w.w.w.w.w.w.w.w.w.w.w.w.w.w.w.w.w.w.w.w.9.w.8.o.#.$.g O o !.l f f S S f F k h ",
"v.I z f f f F f F F , = 0 Q Q W R R R R R R R R R R R R R R R R R R R R R R R R R R R R R R R W W E Q 7 $ o G.l f f S S G f G l ",
"P M G f f S F F f f , < w ..( ) ;.;.' ' ' ' ' ' ' ' ' ' ' ' ' ' ' ' ' ' ' ' ' ' ' ' ' ' ' ' ' ;.( ( _ w < . h.l G f S F F f d j ",
"P N K f S F G F F G , = g @.#.&.8.0.0.0.9.9.9.9.9.9.9.9.9.9.9.9.9.9.9.9.9.9.9.9.9.9.9.9.0.9.0.8.o.$.$.g # . -.N k f S G F F z n ",
"z l k S S S G S G L 2 # 7 Q E W R R R R R R R R R R R R R R R R R R R R R R R R R R R R R R R R W Q Q 7 $   K h f S f f G f P N ",
"8 f k 8 4 4 8 4 8 f , 3 w ..( ( ;.;.;.;.' ' ' ' ' ' ' ' ' ' ' ' ' ' ' ' ' ' ' ' ' ' ' ' ' ' ' ` ( ( ..q 1   k k f i i 4 4 4 d a ",
"$ # = # # # $ $ , = O = c $.#.&.7.q.0.0.0.0.0.0.0.0.0.0.0.0.0.0.0.0.0.0.0.0.0.0.0.0.0.0.w.0.0.8.o.#.$.g = . = = , , , = = = = : ",
"X X X X X X X X X X   , 7 Q W W W R R R R R R R R R R R R R R R R R R R R R R R R R R R R R R R W E Q 7 # X   X X X   X . X   o ",
"> > > > > > > > > > @ < w _ ( ^ ` ;.;.;.` ` ` ` ` ` ` ` ` ` ` ` ` ` ` ` ` ` ` ` ` ` ` ` ` ` ;.;.( ( _ w < * > > > > > > > > > p ",
"z.l.V.S.V.V.V.V.V.l.N = h %.%.*.L.w.P.e.e.w.w.w.e.w.w.e.e.e.w.w.e.e.w.e.w.e.w.w.w.w.e.e.w.w.w.L.&.$.=.g = B l.V.V.V.V.V.V.V.V.s.",
"j.s.s.s.s.s.s.a.p.p.l     * @ @ + + + + + + + + + + + + + + + + + + + + + + + + + + + + + + + + @ @ @     M p.s.s.s.a.a.a.a.a.a.",
").Y.Y.Y.Y.Y.Y.Y.Y.I.T . . . . . X X X X . . . . . . . . . . . . . . . . . . . . . . . . . . . . . . . . . h.).Y.Y.Y.Y.Y.).Y.Y.Y.",
"d z l z l j z z k z d f h D F f f k k k F f f f k F f f F k F f f D f f F f f h f k f f F F F F f k f h D d k z z z h j z z k k "
};
