/* XPM */
static char *a524ba0fab9e44fbc850e805a43164d5H0yh5vFkyXPoaNOe[] = {
/* columns rows colors chars-per-pixel */
"64 64 183 2 ",
"   c #000000",
".  c #080707",
"X  c #040906",
"o  c #07070A",
"O  c #080709",
"+  c #05090A",
"@  c #090C0C",
"#  c #06140C",
"$  c #0C100D",
"%  c #041616",
"&  c #0C1312",
"*  c #071719",
"=  c #091718",
"-  c #061A1B",
";  c #091A1A",
":  c #111212",
">  c #121618",
",  c #1C1F1F",
"<  c #2D1F13",
"1  c #06370F",
"2  c #062719",
"3  c #0C221C",
"4  c #0F2818",
"5  c #162717",
"6  c #152916",
"7  c #17221B",
"8  c #1B211E",
"9  c #142B1C",
"0  c #1A281D",
"q  c #063611",
"w  c #083514",
"e  c #013F17",
"r  c #06331D",
"t  c #08311A",
"y  c #033D1B",
"u  c #24261F",
"i  c #28261E",
"p  c #31261A",
"a  c #33281D",
"s  c #191F20",
"d  c #0D2423",
"f  c #0F282A",
"g  c #162626",
"h  c #1D2424",
"j  c #162826",
"k  c #1C2826",
"l  c #132729",
"z  c #1B2628",
"x  c #142B2C",
"c  c #1C2B2B",
"v  c #073624",
"b  c #0A3522",
"n  c #063B22",
"m  c #17302E",
"M  c #1D312F",
"N  c #142E31",
"B  c #1C2F30",
"V  c #143234",
"C  c #1B3434",
"Z  c #163835",
"A  c #1B3836",
"S  c #16373A",
"D  c #1D3738",
"F  c #163B3C",
"G  c #1C3B3B",
"H  c #212424",
"J  c #232827",
"K  c #212728",
"L  c #222A2B",
"P  c #312E23",
"I  c #3C2D21",
"U  c #21302E",
"Y  c #373026",
"T  c #222F30",
"R  c #223233",
"E  c #2C3535",
"W  c #243936",
"Q  c #213739",
"!  c #28373A",
"~  c #243B3B",
"^  c #2C3D3D",
"/  c #313F3E",
"(  c #54321B",
")  c #5D3619",
"_  c #5F381C",
"`  c #523822",
"'  c #034D0D",
"]  c #005302",
"[  c #00520B",
"{  c #044515",
"}  c #0D4412",
"|  c #054D11",
" . c #0A4A13",
".. c #0D4619",
"X. c #114417",
"o. c #015110",
"O. c #16572B",
"+. c #16582E",
"@. c #19582E",
"#. c #0F4C3B",
"$. c #144C37",
"%. c #1E4C31",
"&. c #15403E",
"*. c #18403F",
"=. c #114C3B",
"-. c #1B5434",
";. c #175832",
":. c #185830",
">. c #214635",
",. c #204B34",
"<. c #25403E",
"1. c #29413F",
"2. c #215439",
"3. c #266E3A",
"4. c #296D3B",
"5. c #2A733C",
"6. c #2C7F3C",
"7. c #327E3F",
"8. c #153E40",
"9. c #1A3E40",
"0. c #233E40",
"q. c #323D40",
"w. c #174244",
"e. c #1C4343",
"r. c #16474C",
"t. c #1C464A",
"y. c #15484D",
"u. c #1A484D",
"i. c #1E5051",
"p. c #244242",
"a. c #2B4444",
"s. c #204648",
"d. c #2A4749",
"f. c #244A4C",
"g. c #2A4B4C",
"h. c #344F4E",
"j. c #3B4E4E",
"k. c #2A514F",
"l. c #35514F",
"z. c #224D51",
"x. c #344F51",
"c. c #3A4F52",
"v. c #2B5353",
"b. c #27565B",
"n. c #2D5D5F",
"m. c #355253",
"M. c #3A5253",
"N. c #375856",
"B. c #375758",
"V. c #3A565A",
"C. c #355A5B",
"Z. c #355A5D",
"A. c #3A5A5B",
"S. c #307F43",
"D. c #2D5D60",
"F. c #2A5F66",
"G. c #2F5E65",
"H. c #315E61",
"J. c #375E60",
"K. c #305E66",
"L. c #356164",
"P. c #346264",
"I. c #3D6365",
"U. c #376669",
"Y. c #3D6669",
"T. c #3D696A",
"R. c #336D70",
"E. c #3A6F72",
"W. c #387276",
"Q. c #445656",
"!. c #4A5658",
"~. c #455B5D",
"^. c #4A5B5B",
"/. c #495F61",
"(. c #446161",
"). c #416569",
"_. c #506062",
"`. c #5C6867",
"'. c #5C6669",
"]. c #5C6C6D",
"[. c #606C6B",
"{. c #2E803D",
"}. c #31803E",
/* pixels */
"u.u.u.u.u.u.u.u.u.u.t.w.e.=.=.=.=.=.#.=.=.=.=.=.=.=.=.=.=.=.=.=.=.=.=.=.=.=.=.=.=.=.=.=.=.=.=.=.$.$.=.w.w.r.r.r.r.r.r.r.r.r.y.R.",
"H.D.D.D.D.D.D.D.n.H.m.- 9  .o.[ [ [ [ [ [ [ [ [ [ [ [ [ [ [ [ [ [ [ [ [ [ [ [ [ [ [ [ [ [ [ [ [ [ ' ..4 d Z.G.G.G.G.K.K.K.G.F.W.",
"0.T.P.P.Z.v.U.P.P.P.g.= 9 -.-.@.5.6.6.6.6.6.6.6.6.6.6.6.6.6.6.6.6.6.6.6.6.6.6.6.6.6.6.6.6.6.7.3.O.-.,.7 = J.U.P.P.v.P.P.H.U.b.E.",
"X Z.w.F A A G 9.F G c X # v n y { | | | | | | | | | | | | | | | | | | | | | | | | | | ' ' ' | { y n b #   m.z.F G A G F F G V T.",
"X Z.8.D c j c A ~ c h $ 0  .' [ ] ] ] ] ] ] ] ] ] ] ] ] ] ] ] ] ] ] ] ] ] ] ] ] ] ] ] ] ] ] ] ] [ ' X.7 + m.t.G c k x A G C N Y.",
"& A.e.R c L c ~ C L H : 0 %.-.+.5.6.6.6.6.6.6.6.6.6.6.6.6.6.6.6.6.6.6.6.6.6.6.6.6.6.6.6.{.6.6.3.;.-.%.8 O m.f.C L L c ~ W B x T.",
"> A.S z h k c R z h h X # v n y { ' ' ' ' ' ' ' ' ' ' ' ' ' ' ' ' ' ' ' ' ' ' ' ' ' ' ' ' ' | { y y t @   x.t.g h L k R k z x Y.",
"> V.V h h J L L h h H & 6  .' [ ] ] ] ] ] ] ] ] ] ] ] ] ] ] ] ] ] ] ] ] ] ] ] ] ] ] ] ] ] ] ] [ [ ' } 7 o x.0.h h L c c h h x Y.",
"> V.N L h h h h L h h @ 0 -.-.:.5.}.{.{.{.{.{.{.{.{.{.{.{.{.{.{.{.{.{.{.{.{.{.{.{.{.{.{.{.{.}.5.-.-.,.7 X j.~ c z h h c L K x Y.",
"+ ~.N L J H h h h L H X # n y e { ' ' ' ' ' ' ' ' ' ' ' ' ' ' ' ' ' ' ' ' ' ' ' ' ' ' ' ' ' ' { y n r #   Q.~ T L K h H h L c I.",
"+ ].c L h J H J h L h & 5  .[ ] ] ] ] ] ] ] ] ] ] ] ] ] ] ] ] ] ] ] ] ] ] ] ] ] ] ] ] ] ] ] ] ] [ [ ..7 X `.^ L h L h L h c l I.",
"c ].c h H H K L L z s & 0 ,.-.+.5.S.{.{.{.{.{.{.{.{.{.{.{.{.{.{.{.{.{.{.{.{.{.{.{.{.{.6.6.6.7.4.-.2.>.7 X `./ h h h H L L z x Y.",
"V ].c h H H h L h E c X X 3 d 2 w q 1 1 1 q q q 1 1 1 1 1 q 1 1 q q 1 1 1 1 1 q 1 1 q q q q w t 2 d ; X   `.^ h h H H J h R A Y.",
"p.(.x z h z z c j L z X                                                                                   ^.~ z h g g c j c V Y.",
"d A.s.p.~ C a.p.<.1.k X                                                                                   l.g.p.p.M a.a.0.a.V Y.",
"+ C.&.Z C C A G A C c X                                                                                   m.f.F C C D G G A V Y.",
"X Z.9.~ c j x Q ~ c h X                                                                                   M.s.0.c c x C ~ B x Y.",
"X A.p.C c c c ^ R c H X                                                                                   M.g.C L L c W R T x Y.",
"X A.V z h L c R z z h X                                                                                   m.p.z h J k U z z x Y.",
"X N.V h h L L L z h h X                                                                                   m.0.z h H k L h z x ).",
"X N.x L h h h h L h ,                                                                                     M.~ T H h h h J c x Y.",
"X ~.B T J H h K h J H X                                                                                   Q.^ T L H h H h c x Y.",
"+ ].k c H J h L z L 8                                                                                     `./ L h H H L h c x Y.",
"+ ].c h H H J L c k h                                                                                     `./ h 8 H L L L k x Y.",
"+ ].k h H h h h h E c X                                                                                   `./ h 8 H h L z R C Y.",
"X /.x z h z z c z L g                                                                                     ^.~ z h h z c z B N Y.",
"X A.f.a.~ C a.a.p.p.k X                                                                                   M.g.p.a.C a.d.p.d.V Y.",
"+ C.*.A C C A D D C c X                                                                                   m.t.G C C A A G D V T.",
"X C.w.~ c k c D ~ c h X                                                                                   m.t.G c c x C ~ B N Y.",
"X C.p.C L L c ~ C L H X                                                                                   m.f.C c L c ~ R B N Y.",
"X B.V z h c c c z h H X                                                                                   M.p.j z c k U z z x Y.",
"X B.V h h h c L z h h X                                                                                   M.0.j z H h L g h x Y.",
"X M.C L h h h h L H h                                                                                     c.~ c h h h h J c x I.",
"X ^.c T J H h K h L h X                                                                                   ^.~ L L H h H h L c Y.",
"+ ].k H h J H L h K h                                                                                     `./ h h H h H h c l ).",
"+ [.c h H h J L L L h X                                                                                   `./ h h h J J J k x ).",
"+ ].c h H h h L z E H X                                                                                   `./ h H H h L h R C ).",
"X ~.x z z h k c x c h X                                                                                   Q.~ z h z z c k c N Y.",
"X A.f.a.p.C a.a.p.a.c X                                                                                   M.k.p.a.C a.d.p.d.S T.",
"X N.8.G C C A G G C c X                                                                                   l.t.F C C C A D A V Y.",
"X C.9.Q k z c ~ ~ k h X                                                                                   h.t.G c c k C ~ c x Y.",
"X A.G T L L c W c L J X                                                                                   m.f.C L L c ~ R c x Y.",
"X A.V h h J c c z h H X                                                                                   x.G z h c c T z z k v.",
"X V.V z h h k L h h h X                                                                                   x.G z h K z L h h h W ",
"X B.x L H h h h L H h X                                                                                   j.D L L h h h L J i P ",
"+ _.c L K L h L h L h                                                                                     ^.^ L L L H J h J a ` ",
"+ ].k h h K h K h h ,                                                                                     './ h h H h K h H < _ ",
"+ ].k h h h J L L L h                                                                                     '.q.h H H H L L J p ) ",
"+ ].c h H H H L H E J                                                                                     '.q.h H H H K h E Y ( ",
"X ~.k h H H h h h c 8                                                                                     !.! h H H H H h h u I ",
"X M.c h H H h h J L h                                                                                     j.Q c h H H h H h k / ",
"X M.B h H H h L h L h                                                                                     j.Q c h H h J h L x a.",
"X p.x L h H H K h h 8                                                                                     ^ C L H H H H H c l a.",
"X ~ C c h H J K L L h X                                                                                   W C L h H H H L c x a.",
"  R x z H H H J h E L X                                                                                   M m c h H H J h R C a.",
"  k z h , , , h s h , X                                                                                   h k h 8 , , h h z l a.",
"X : : & : : : : : : $                                                                                     & & : : : : : : & % p.",
"X X X X X X X . O X                                                                                       X X o X X X X X X + 0.",
"+ * * - - - - - - = &                                                                                   X ; ; ; - - - - - - - p.",
"x f.z.z.z.z.z.z.z.f.p.+                                                                                 ; g.f.z.z.z.z.z.z.z.i.v.",
"f t.r.r.r.u.u.r.r.t.e.+                                                                                 % e.t.r.r.r.r.r.r.r.y.f.",
"~ (.I.I.I.I.I.I.I.I.V.% + + + + + + + + + o o + + + + X X X + + + + + + + + + + + + o o + + + + X X X + j (.I.I.I.I.I.).I.I.I.v.",
"z z c c c k x c k c c h L z h c h z h c L h h K L c z h K c c h h K K K z h c h c L h H K c c h h K c c z z c c c c z c c c c z ",
"z z c c T R B c k c z z c k T R c R k k c z z c c R R B c k c z z L L R R c R k k c z c c L R R T c k c k z c c R R c B k c c z "
};
