/* XPM */
static char *_b035f7c52774788e1ec73ea03d36e62UTrungBjwlyjqejt[] = {
/* columns rows colors chars-per-pixel */
"64 64 219 2 ",
"   c #000000",
".  c #040907",
"X  c #07070A",
"o  c #050909",
"O  c #090A0A",
"+  c #08120B",
"@  c #061617",
"#  c #0C1313",
"$  c #061A1B",
"%  c #091A1A",
"&  c #111212",
"*  c #121618",
"=  c #1C1F1E",
"-  c #271D15",
";  c #06370F",
":  c #0B2719",
">  c #16271B",
",  c #1B211D",
"<  c #063711",
"1  c #063518",
"2  c #023C1B",
"3  c #2C271D",
"4  c #191F20",
"5  c #0E2425",
"6  c #162626",
"7  c #1D2424",
"8  c #1C2826",
"9  c #132729",
"0  c #1B2628",
"q  c #142B2C",
"w  c #1C2A2B",
"e  c #073922",
"r  c #1B302E",
"t  c #142E31",
"y  c #1C2F30",
"u  c #143234",
"i  c #1B3434",
"p  c #193737",
"a  c #163B3C",
"s  c #1C3B3B",
"d  c #212424",
"f  c #232827",
"g  c #292826",
"h  c #212729",
"j  c #222A2B",
"k  c #372E22",
"l  c #24352A",
"z  c #373026",
"x  c #222F30",
"c  c #223233",
"v  c #2C3535",
"b  c #243936",
"n  c #253739",
"m  c #243B3B",
"M  c #2C3D3D",
"N  c #313F3E",
"B  c #57261A",
"V  c #5B351B",
"C  c #68341F",
"Z  c #76381B",
"A  c #4C372C",
"S  c #583524",
"D  c #69392B",
"F  c #7A3725",
"G  c #6D3E33",
"H  c #004A03",
"J  c #034D0D",
"K  c #005302",
"L  c #00520B",
"P  c #034515",
"I  c #054D11",
"U  c #0B4815",
"Y  c #094B14",
"T  c #17582D",
"R  c #0F4C3B",
"E  c #114C3B",
"W  c #184838",
"Q  c #1B5434",
"!  c #185831",
"~  c #284E2F",
"^  c #204934",
"/  c #276E3A",
"(  c #2B733B",
")  c #2C7F3C",
"_  c #327E3F",
"`  c #44413E",
"'  c #76442A",
"]  c #6E4832",
"[  c #684837",
"{  c #7A4932",
"}  c #47783E",
"|  c #183E40",
" . c #233E40",
".. c #323D40",
"X. c #174244",
"o. c #1C4343",
"O. c #16474C",
"+. c #1C464A",
"@. c #15484D",
"#. c #1A484D",
"$. c #1E5051",
"%. c #244242",
"&. c #2B4444",
"*. c #204648",
"=. c #2A4749",
"-. c #244A4C",
";. c #2A4B4C",
":. c #344F4E",
">. c #3B4E4E",
",. c #2A514F",
"<. c #35514F",
"1. c #224D51",
"2. c #344F51",
"3. c #3A4F52",
"4. c #2B5353",
"5. c #2A5A5D",
"6. c #355253",
"7. c #3A5253",
"8. c #395759",
"9. c #355A5B",
"0. c #3A5A5B",
"q. c #2D5E63",
"w. c #325E63",
"e. c #346163",
"r. c #3D6365",
"t. c #376669",
"y. c #3D6669",
"u. c #3D696A",
"i. c #376E71",
"p. c #387276",
"a. c #464B49",
"s. c #45595A",
"d. c #4A5B5B",
"f. c #595654",
"g. c #7C5A4F",
"h. c #715F5B",
"j. c #53604D",
"k. c #6D665B",
"l. c #7C6756",
"z. c #4C5B64",
"x. c #555566",
"c. c #446161",
"v. c #416569",
"b. c #5A6667",
"n. c #5C6C6D",
"m. c #546A7A",
"M. c #696768",
"N. c #6B686E",
"B. c #7C736C",
"V. c #787777",
"C. c #8E370E",
"Z. c #AE3B0E",
"A. c #C83901",
"S. c #D83800",
"D. c #8F4817",
"F. c #A9491B",
"G. c #BC4D18",
"H. c #8C482C",
"J. c #994B27",
"K. c #8D5234",
"L. c #A95423",
"P. c #A6522F",
"I. c #B45729",
"U. c #A66231",
"Y. c #CC4D09",
"T. c #D64906",
"R. c #D8550D",
"E. c #C54714",
"W. c #C85B19",
"Q. c #D55A14",
"!. c #E44902",
"~. c #EA550C",
"^. c #CB6118",
"/. c #D56716",
"(. c #C95925",
"). c #C1682C",
"_. c #CA732A",
"`. c #E36721",
"'. c #885446",
"]. c #906957",
"[. c #966B57",
"{. c #B1684C",
"}. c #866966",
"|. c #85756A",
" X c #977767",
".X c #867772",
"XX c #997E72",
"oX c #2E803C",
"OX c #31803D",
"+X c #998477",
"@X c #B08678",
"#X c #E69B79",
"$X c #546981",
"%X c #6C7B87",
"&X c #6E818A",
"*X c #7B8B8B",
"=X c #728394",
"-X c #878481",
";X c #978C8A",
":X c #838F93",
">X c #859396",
",X c #9D9294",
"<X c #AA8D85",
"1X c #B8A69A",
"2X c #8E9BA1",
"3X c #9DA4A3",
"4X c #A8A8A8",
"5X c #BDB4AF",
"6X c #B2B1B5",
"7X c #D49D8D",
"8X c #D3A18B",
"9X c #C3A699",
"0X c #CAB2AA",
"qX c #CABAB3",
"wX c #E7BFB2",
"eX c #CCC0BC",
"rX c #B6B9C2",
"tX c #CBC3C3",
"yX c #E6DAD9",
/* pixels */
"#.#.#.#.#.#.#.#.#.#.+.X.o.E E E E E R E E E E E E E E E E E E E E E E E E E E E E E E E E E E E E E E X.X.O.O.O.O.O.O.O.O.O.@.i.",
"w.q.q.q.q.q.q.q.5.w.6.$ : Y L L L L L L L L L L L L L L L L L L L L L L L L L L L L L L L L L L L J U : 5 9.q.q.q.q.w.w.w.q.q.p.",
" .u.e.e.9.4.t.e.e.e.;.# > Q Q T ( ) ) ) ) ) ) ) ) ) ) ) ) ) ) ) ) ) ) ) ) ) ) ) ) ) ) ) ) ) _ / T Q ^ > # w.t.e.e.4.e.e.w.t.5.i.",
". 9.X.a p p s | a s w . + e e 2 P I I I I I I I I I I I I I I I I I I I I I I I I I I J J J I P 2 e e +   6.1.a s p s a a s u u.",
". 9.| s w 6 w p m w 7 & > U J L K K K K K K K K K K K K K K K K K K K K K K K K K K K K K K K K L J U , o 6.+.s w 8 q p m p t y.",
"# 0.o.c w j w m p j d & > Q Q T ( ) ) ) ) ) ) ) ) ) ) ) ) ) ) ) ) ) ) ) ) ) ) ) ) ) ) ) oX) ) / ! Q W , X 6.-.p j j w m b y q u.",
"* 0.p 0 7 8 w c 0 7 7 . + e e 2 U J J J J J J J J J J J J J J J J J J J J J J J J J J J J J I P 2 2 1 O   2.+.6 7 j 8 p 8 0 q y.",
"* 8.u 7 7 f j j 7 7 d # > Y J L K K K K K K K K K K K K K K K K K K K K K K K K K K K K K K K L L J U > X 2. .7 7 j w w 7 7 q y.",
"* 8.t j 7 7 7 7 j 7 7 O > Q Q ! ( OXoXoXoX} 9Xl.OXoXoXoXoXoXoXoXoXoXoXoXoXoXoXoXoXoXoXoXoXoXOX( Q Q ^ > . >.m w 8 7 7 w j h q y.",
"o s.t j j d 7 7 , h 7   . 2 2 2 P H H H H ~ qX,Xj.J J J J J J J J J J J J J J J J J J J J J J P 2 e 1 +   s.m x j h 7 d 7 j w r.",
"o n.w j 7 a.3X4X6XrX4X6X2X>X=X%X%X*X2X3X4X1X9Xk.*X~ K K K K K K K K K K K K K K K K K K K K K K L L U , . b.M j 7 j 7 j 7 w 9 r.",
"w n.w 7 d A { ' ' { ' ' D ' D D G D D ' ' J.I.J.k.V.( oXoXoXoXoXoXoXoXoXoXoXoXoXoXoXoX) ) ) _ / Q Q ^ , . b.N 7 7 7 d j j 0 q y.",
"u n.w 7 d ] _.U. X9X9X[.J.).L.g.1X9X XH.(.`.T./.D.|..Xl ; < ; ; < < ; ; ; ; ; < ; ; < < < < < 1 : 5 % .   b.M 7 7 d d j 7 c p y.",
"%.c.q 0 7 { /.[.3XV..X5X[.).U.4XV.B.5XXXW.~.!.!.W.Z XX.X-                                                 d.m 0 7 6 6 w 0 w u y.",
"5 0.*.%.m [ W.0X;XZ Z. X+X{ 8X4XZ Z B.eXH.R.!.!.T.G.' ;XV.o                                               <.;.%.%.r &.&. .&.u y.",
"o 9.W p p S (.yX;X{.#X1XV.[ wX1XI.F.l.yX'.E.!.!.~.A.I.[ -Xa.                                              6.-.a p p p s s p u y.",
". 9.| m w B E.qX<X'.[.;X,XG 7X1XI.Z.}.tX{ Z.S.S.S.S.(.K..X=                                               7.*. .w w q p M y q y.",
". 0.%.p w C E.[.qX.X|.,Xh.D.P.qX@X X5X-XC.A.S.S.T.Y.J.+Xg                                                 7.;.p j j w b c x q y.",
". 0.u 0 7 C R.W.[.<X@X'.D././.K.@X<X].C.Q.T.S.~.R.F.XXA                                                   6.%.0 7 f 8 x 8 0 q y.",
". 8.u 7 7 S G./.U.K.F J.W./.^.J.K.Z J.G.Q.Y.Y.R.F.XXA                                                     6. .0 7 d 8 j 7 0 q v.",
". 7.q j 7 a.B.B.M.N.x.x.x.x.x.x.z.z.N.M.B.|.[.L.}.f.                                                      7.m x d 7 7 7 f w q y.",
". s.y x j a.*X:X%X%Xm.m.$Xm.m.m.m.m.&X&X:X>X0Xg.`                                                         s.M x j d 7 d 7 w q y.",
"o n.8 w d j 7 j 0 j ,                     . g g                                                           b.N j 7 d d j 7 w q y.",
"o n.w 7 d d j j w 7 7                                                                                     b.N 7 , d j j j 8 q y.",
"o n.8 7 d 7 7 7 7 v w                                                                                     b.N 7 , d 7 j 0 c p y.",
". c.q 0 7 0 0 w 0 j 6                                                                                     d.m 0 7 7 0 w 0 y t y.",
". 0.-.&.M p &.&.%.%.8 .                                                                                   7.;.%.&.p &.=.%.=.u y.",
"o 9.W p p p p s s p w .                                                                                   6.+.s p p p p s p u u.",
". 9.X.m w 8 w s m w 7 .                                                                                   6.+.s w w q p m y t y.",
". 9.o.y j j w m p j d .                                                                                   7.-.p w j w m c y t y.",
". 8.u 0 7 w w w 0 7 d .                                                                                   7.%.6 0 w 8 x 0 0 q y.",
". 8.u 7 7 7 w j 0 7 7 .                                                                                   7. .6 0 d 7 j 6 7 q y.",
". 7.p j 7 7 7 7 j d 7                                                                                     3.m w 7 7 7 7 f w q r.",
". d.w x j d 7 h 7 j 7 .                                                                                   d.M j j d 7 d 7 j w y.",
"o n.8 d 7 f d j 7 h 7                                                                                     b.N 7 7 d 7 d 7 w 9 v.",
"o M.w 7 d 7 j j j j 7 .                                                                                   b.N 7 7 7 f f j 8 q v.",
"o n.w 7 d 7 7 j 0 v d .                                                                                   b.N 7 d d 7 j 7 c p v.",
". s.q 0 0 0 8 w q w 7 .                                                                                   s.m 0 7 0 0 w 8 w t y.",
". 0.-.&.%.p &.&.%.&.w .                                                                                   7.,.%.&.p &.=.%.=.p u.",
". 8.| s p p p s s p w .                                                                                   <.+.a p p p p s p u y.",
". 9.| n 8 0 w m m 8 7 .                                                                                   :.+.s w w 8 p m w q y.",
". 0.s x j j w b w j f .                                                                                   6.-.p j j w m c w q y.",
". 0.u 7 7 f w w 0 7 d .                                                                                   2.s 0 7 w w x 8 0 8 4.",
". 8.u 0 7 7 8 j 7 7 7 .                                                                                   2.s 0 7 h 8 j 7 7 7 b ",
". 8.q j d 7 7 7 j d 7 .                                                                                   >.s j j 7 7 7 f f 3 k ",
"o c.w j h j 7 j 7 j 7                                                                                     d.M j j j d j 7 f 3 S ",
"o n.8 7 7 h 7 h 7 7 =                                                                                     b.N 7 7 d 7 h 7 d - V ",
"o n.w 7 7 7 j j j j 7                                                                                     b...7 d d d j j f 3 V ",
"o n.w 7 d d d j d v f                                                                                     b...7 d d d f 7 v z V ",
". s.8 7 d d 7 7 7 w ,                                                                                     s.n 7 d d d d 7 7 d k ",
". 7.w 7 d d 7 7 j j 7                                                                                     >.n w 7 d d 7 d 7 8 N ",
". 7.y 7 d d 7 j 7 j 7                                                                                     >.n w 7 d 7 f 7 j q &.",
". %.q j 7 d d h 7 7 ,                                                                                     M p j d d d d d w 9 &.",
". M p w 7 d f j j j 7 .                                                                                   b p j 7 d d d j w q &.",
"  c q 0 d d d j 7 v j .                                                                                   y r w 7 d d j 7 c p &.",
"  8 0 7 = = = 7 4 7 = .                                                                                   7 8 7 , = = 7 7 0 9 &.",
". & & # & & & & & & &                                                                                     # # & & & & & & # @ %.",
". . . . . . . X X .                                                                                       . . X . . . . . . o  .",
"o @ @ $ $ $ $ $ $ @ #                                                                                   . % % % $ $ $ $ $ $ $ %.",
"q -.1.1.1.1.1.1.1.-.%.o                                                                                 % ;.-.1.1.1.1.1.1.1.$.4.",
"9 +.O.O.O.#.#.O.O.+.o.o                                                                                 @ o.+.O.O.O.O.O.O.O.@.-.",
"m c.r.r.r.r.r.r.r.r.8.@ o o o o o o o o o X X o o o o . . . o o o o o o o o o o o o X X o o o o . . . o 6 c.r.r.r.r.r.v.r.r.r.4.",
"0 0 w w w 8 q w 8 w w 7 j 8 7 w 7 8 7 w j 7 7 h j w 0 7 h w w 7 7 h h h 8 7 w 7 w j 7 d h w w 7 7 h w w 0 0 w w w w 0 w w w w 0 ",
"0 0 w w x c y w 8 w 0 0 w 8 x c w c 8 8 w 0 8 w w c c y w 8 w 8 8 j j c c w c 8 8 w 0 w w j c c x w 8 w 8 0 w w c c w y 8 w w 0 "
};
