/* XPM */
static char *_1071da2edfb40418baac10b5bf7b623Lr50WSGh4Bm1dp97[] = {
/* columns rows colors chars-per-pixel */
"64 64 249 2 ",
"   c None",
".  c #020000",
"X  c #0C0001",
"o  c #08090E",
"O  c #140101",
"+  c #1C0102",
"@  c #1D050B",
"#  c #1C0A13",
"$  c #240202",
"%  c #2D0304",
"&  c #28020A",
"*  c #340502",
"=  c #3B0403",
"-  c #39050A",
";  c #270A14",
":  c #3A0D19",
">  c #380514",
",  c #3D121C",
"<  c #2E131C",
"1  c #3F1624",
"2  c #46080B",
"3  c #480506",
"4  c #55020B",
"5  c #570708",
"6  c #460716",
"7  c #5D011E",
"8  c #570715",
"9  c #57121B",
"0  c #48131B",
"q  c #660817",
"w  c #770617",
"e  c #65131B",
"r  c #730B13",
"t  c #451826",
"y  c #5B192C",
"u  c #571525",
"i  c #5F1E31",
"p  c #580724",
"a  c #670521",
"s  c #780627",
"d  c #641B2D",
"f  c #691525",
"g  c #7A1827",
"h  c #6C1D32",
"j  c #771D32",
"k  c #7A083A",
"l  c #672439",
"z  c #7D233C",
"x  c #7C2235",
"c  c #62222E",
"v  c #692C43",
"b  c #762B41",
"n  c #78334C",
"m  c #6B3B54",
"M  c #6E3E58",
"N  c #7A3B56",
"B  c #6A3347",
"V  c #79475C",
"C  c #724650",
"Z  c #7C4966",
"A  c #88061B",
"S  c #88072B",
"D  c #980525",
"F  c #8B182B",
"G  c #93172B",
"H  c #890634",
"J  c #9A0238",
"K  c #961735",
"L  c #8B1630",
"P  c #A8032C",
"I  c #A60537",
"U  c #BA013B",
"Y  c #B5043A",
"T  c #AC1635",
"R  c #B9173D",
"E  c #882339",
"W  c #99253A",
"Q  c #A7243D",
"!  c #920946",
"~  c #AC0543",
"^  c #BC0548",
"/  c #A7144A",
"(  c #B91742",
")  c #BD0954",
"_  c #AE1056",
"`  c #832B44",
"'  c #8B2D48",
"]  c #982C46",
"[  c #98334C",
"{  c #8B3B57",
"}  c #9D3653",
"|  c #86334B",
" . c #A52945",
".. c #B92C4B",
"X. c #A6314E",
"o. c #A93857",
"O. c #B53958",
"+. c #B5304F",
"@. c #B73F60",
"#. c #AE3368",
"$. c #C5034A",
"%. c #C9034D",
"&. c #C20446",
"*. c #CA0753",
"=. c #D5065A",
"-. c #C41653",
";. c #C3385B",
":. c #C62852",
">. c #DE0262",
",. c #DC0C64",
"<. c #D50C60",
"1. c #D71669",
"2. c #CA1164",
"3. c #E10D68",
"4. c #E4106C",
"5. c #EC0772",
"6. c #EB1373",
"7. c #EA1775",
"8. c #F3147B",
"9. c #F01777",
"0. c #F40079",
"q. c #C73E61",
"w. c #DC3773",
"e. c #EF247C",
"r. c #8D475D",
"t. c #AB445C",
"y. c #8A4965",
"u. c #8E546B",
"i. c #9B4E6C",
"p. c #A54263",
"a. c #A9476A",
"s. c #BB4264",
"d. c #B84669",
"f. c #BA5379",
"g. c #B95478",
"h. c #B05371",
"j. c #8F7675",
"k. c #B16775",
"l. c #CC456A",
"z. c #C64469",
"x. c #CB4D73",
"c. c #C04D72",
"v. c #D54D74",
"b. c #D84F76",
"n. c #C85479",
"m. c #D4537A",
"M. c #DB527B",
"N. c #D25077",
"B. c #D04065",
"V. c #CD647F",
"C. c #F73B88",
"Z. c #F42880",
"A. c #B65C81",
"S. c #A75D85",
"D. c #BB648A",
"F. c #AB6C94",
"G. c #A76C93",
"H. c #B96A93",
"J. c #B16D8D",
"K. c #AA6C94",
"L. c #C85C85",
"P. c #DB5781",
"I. c #D45B84",
"U. c #DC5A84",
"Y. c #DA5E89",
"T. c #DE5E98",
"R. c #F7488E",
"E. c #E35E8A",
"W. c #E15B87",
"Q. c #F75699",
"!. c #F04C92",
"~. c #C96688",
"^. c #DA628C",
"/. c #D6638C",
"(. c #C86C94",
"). c #D86A95",
"_. c #CC7298",
"`. c #E3618D",
"'. c #E56692",
"]. c #EA6694",
"[. c #E26A95",
"{. c #EA6996",
"}. c #E46D9A",
"|. c #EC6C9B",
" X c #F06F9F",
".X c #F3659C",
"XX c #E9719E",
"oX c #CA7AA6",
"OX c #DB74A1",
"+X c #DA7CAA",
"@X c #DF7EB2",
"#X c #F76AA6",
"$X c #E575A4",
"%X c #EC74A3",
"&X c #E57BAB",
"*X c #ED7CAC",
"=X c #EA78A7",
"-X c #F073A3",
";X c #F27CAC",
":X c #F376A9",
">X c #EA7EB0",
",X c #F57DB4",
"<X c #F85EA1",
"1X c #AB888B",
"2X c #BBA6A5",
"3X c #CA8895",
"4X c #DC85A6",
"5X c #D786B6",
"6X c #D699AB",
"7X c #E980AD",
"8X c #ED83B4",
"9X c #EC8BBD",
"0X c #E785B5",
"qX c #F383B4",
"wX c #F386BA",
"eX c #F58BBC",
"rX c #F986B9",
"tX c #F189B4",
"yX c #CCB1B3",
"uX c #E2A2BE",
"iX c #DF8FC2",
"pX c #DF90C3",
"aX c #E68FC2",
"sX c #F58EC2",
"dX c #F88DC6",
"fX c #F88AC4",
"gX c #EC93C6",
"hX c #E995C8",
"jX c #F591C5",
"kX c #F892C5",
"lX c #F495CA",
"zX c #F895CA",
"xX c #F598CE",
"cX c #F899CE",
"vX c #F69CD4",
"bX c #F89ED5",
"nX c #F89FD8",
"mX c #F5A5CE",
"MX c #F7A0D7",
"NX c #F8A0D7",
"BX c #F8A0D8",
"VX c #F5A7D7",
"CX c #F6B5D9",
"ZX c #EBB1CB",
"AX c #DCBCC4",
"SX c #CFC2C2",
"DX c #E8C8D4",
"FX c #EDD1DD",
"GX c #F6CDE3",
/* pixels */
"                                                                                                                                ",
"                                                                                                                                ",
"                                                                                                                                ",
"                      . . . . . . .             . . . . . . . . . . . . . . . .             . . . . . . .                       ",
"                    u y i l l l c y u           + % 6 u i l v v v v l i u 6 % +           y y c l l l i y u                     ",
"                  6 j ' } p.a.p.} ] E 9     . . $ 3 f E } p.a.a.a.a.p.} E f 3 $ . .     y ` [ o.p.a.p.} ' j 6                   ",
"                O y ' @.x.I./.Y.N.s.} l < # < , 9 l [ @.x.I.^.).).^.I.x.@.[ l u , < o ; h [ s.x.I./.I.x.@.' y O                 ",
"                d ` p.n.`.XX=X%X}./.f.r.n n n { y.i.g./.[.%X*X;X;X*X%X[./.g.i.u.y.V B d j [ s.I.}.%X%X[.L.a.` d                 ",
"            : h ] o.n.[.*XwXeXeXwX&XOXL.f.g.f.D.(.oX+X0X8XeXsXkXkXsXeX8X0X+XoXoX(.D.h.[ F K o.L.&XeXsX8X$X~.a.] h :             ",
"            : z o.N.[.*XeXzXcXvXvXlX8X$X}.[.}.&X9XhXxXxXcXcXzXcXcXcXcXcXxXhXhXaX9X7X(.d. .G [ A.5XlXvXcX9XOXN.o.z :             ",
"          . , ` d.Y.%XwXkXcXbXBXBXnXlXwX,X;X;XeXzXbXBXBXvXgX9X9X9XjXxXnXvXhX9X9XwXwX$X/.f.o.} A.+XlXbXbXlX*XP.O.z : .           ",
"          . 1 { n.[.;XeXzXvXbXBXBXbXvXzXsXeXeXsXcXBXBXBXxX0X).).).&X9XxXxX0XOX).=X;X8X0X+X~.d.n.$XwXzXbXlX*XU.O.E : .           ",
"          . t { L.XX;XeXkXcXbXbXBXNXnXnXvXzXkXzXvXbXBXMXhX4X~.n.N.^.&XlXhX4X~.V.).$X8XjXgX$X^.U.[.=XeXzXjX$Xm.O.z : .           ",
"          . t { L.%XqXeXkXzXcXbXbXBXBXMXbXvXcXcXbXnXBXMXmXuX6X3Xk.n.OXgXmXuX6X3X_.).7XhXcX9X=X}.'.|.*XeX8X}.x.X.j > .           ",
"          . t { L.%XqXeXkXkXzXcXbXbXBXBXNXbXbXbXbXnXnXMXCXDXDXyX1Xh.(.aXCXDXDXyX1Xk.oXhXnXcXsX*X[.W.|.*X=XY.q.W f > .           ",
"          . t { L.|.;XwXeXeXkXzXvXbXBXBXBXNXbXbXBXBXnXMXCXGXFXSX1Xu.H.aXCXGXFXSX1Xu.H.aXnXBXvX9XXXW.E.{.'.N.+.G q & .           ",
"          . 1 { c.'.-X;XwXeXkXzXbXbXBXBXBXBXBXBXBXBXnXBXVXZXAX2Xj.V F.aXVXCXDXyXj.V F.aXMXBXnXjX=X`.E.E.P.s.W g 4 $ .           ",
"          . , ` d.M.].%X;XwXeXzXvXbXBXBXBXBXBXBXBXBXBXMXxX6X3Xk.C C F.aXxX9X4XJ.r.V F.aXnXBXbXkX;X|.E.P.x.o.E q 3 + .           ",
"            : z o.l.P.'. X;XwXsXzXbXbXNXBXBXBXBXBXBXBXnXgXOXd.W e m F.iXlX8X^.d.` M F.pXnXBXbXlXqX|.E.b.q.] g 3 % O             ",
"              h ' o.z.P.`.{.XX7XeXzXbXbXBXBXBXBXBXBXBXMXgXOXz.I w m F.iXlXqX`.d.` M F.aXMXBXbXlXqX|.W.l.+.E 9 * +               ",
"                y z o.l.M.M.W.XXqXkXcXnXMXBXBXbXbXbXnXnXjX$Xm.+.j m F.iXzXeX%Xn.{ M F.iXnXBXnXlXqX|.U.z.Q g 6 +                 ",
"                . t ` O.z.v.P.}.qXkXcXbXBXBXbXvXzXdXdXdXwX%XU.s.z m F.iXcXkX;X(.y.m S.@XdXzXlXsXqX%XI.O.G q - .                 ",
"                . > d ' O.x.`.%XeXcXbXbXBXBXbXzX,X#X#X#X#X.X`.c.| m G.iXvXvXgXoXu.v a.T.:X,XqXwXwX*X/.t.g 5 % .                 ",
"                . & 2 f } n.[.,XkXvXBXBXBXBXbXdX#XQ.R.R.Q..X|.~.y.Z F.aXnXBXxX5XS.N #.P.Q.#X:XqXeX8X(.r.e = $ .                 ",
"                  + $ 0 | f.}.qXzXbXBXBXBXBXbXdX,X#X<X<X#X:X;XOXH.F.oXhXBXBXvXpXoXS.L.T.#X:X,XwXeX8X(.r.9 $ +                   ",
"                    . > n g.}.qXzXbXBXBXBXBXbXvXdXfXrXfXfXdXdXaX5X5XaXvXBXBXMXhXiX5X0XwXfXsXkXkXkX0X(.r., .                     ",
"                      ; n g.}.qXlXbXBXBXBXBXBXbXbXvXvXvXvXvXnXvXvXvXvXnXnXnXvXvXvXvXvXvXvXbXvXcXkX0XH.V <                       ",
"                      # n g.}.qXsXcXbXbXBXBXBXBXBXBXBXBXBXBXBXBXBXBXBXBXvXjX9XgXcXBXBXBXBXBXbXcXsX7XD.N #                       ",
"                      # n g.}.;XeXzXcXbXBXBXBXBXBXBXBXBXBXBXBXBXBXBXBXNXxX8X$X*XjXbXBXBXBXBXbXzXeX$XA.N ;                       ",
"                      ; n h.[.;XwXkXcXbXBXBXBXBXBXBXBXBXBXBXBXBXBXBXBXbXlX8X}.&XsXnXMXMXBXBXnXlXqX[.g.n ;                       ",
"                      @ b a.Y.%XqXkXcXbXBXBXBXBXBXBXBXBXBXBXBXBXBXBXBXMXxX9X8X8XlXnXMXMXnXBXnXkX*XY.a.b @                       ",
"                      @ l o.N.[.qXsXzXbXNXBXBXBXBXBXBXBXBXBXBXBXMXBXBXBXnXxXlXxXvXnXMXMXbXBXvXsX$Xm.o.l @                       ",
"                      @ d [ z.^.=XeXzXcXbXbXBXBXBXBXBXBXBXBXBXBXBXBXBXBXBXbXbXbXBXBXBXBXBXNXvX9X).d.] d +                       ",
"                      O u W O.m.}.qXeXzXcXbXNXBXBXBXBXBXBXBXBXBXBXBXBXBXBXBXBXBXBXBXBXBXNXbXzX0X~.o.j 0 O                       ",
"                      + 8 F +.l.`.%XqXeXzXcXbXbXbXbXBXBXBXBXBXBXBXBXBXBXnXnXnXnXNXbXbXbXbXcXeX+Xh.b 8 - X                       ",
"                    O * 8 A Q q.P.{.-XqXeXkXzXzXvXbXbXNXnXBXBXBXBXBXBXBXnXMXnXbXbXbXvXzXkXeX7X(.i.c * $ .                       ",
"                  + % 2 q A T ;.v.W.|.:X;XqXwXeXkXzXbXbXBXBXBXBXBXBXBXBXBXBXBXbXcXzXkXeXqX=X[.n.{ u O X                         ",
"                . $ 2 8 w D T ..q.v.W.|.-X-X:X;XeXkXzXvXvXnXnXnXnXnXnXnXnXnXnXcXzXeXwX;X|.`.N.s.` 0 .                           ",
"                . % 4 r A P Y ( +.z.N.W.].|.-X:XqXwXeXkXkXlXkXkXkXkXkXkXkXlXkXsXeXqX;X|.W.v.@.] h ; .                           ",
"                . = q A P U &.(  .X.s.N.W.].|.-X;X;X;XqXqXqXqXqXqXqXqXqXqXqXqXqX;X:X|.E.N.s.] j 9 & .                           ",
"                O 6 s I ^ %.*.^ K E X.z.N.W.{.|.|.|.%X-X-X-X-X-X-X-X-X-X-X-X-X-X%X|.`.N.z.X.x 9 - +                             ",
"              O % 7 J ^ =.>.>.*.I G W X.s.x.m.U.E.'.{.|.-X-X-X X X X X X-X-X X X].W.N.s.X.E 9 = $ O                             ",
"            O $ 3 s / 1.7.9.6.,.&.P G E ] X.O.z.v.P.`.|.|.-X X X X X X X X-X|.{.E.N.s.[ x u 2 $                                 ",
"          . + = 5 E d.W.Q.R.Z.4.%.Y D S F G Q +.;.l.M.`.{.|.|.|.|.|.|.|.|.{.'.Y.N.z.X.x 9 = $ X                                 ",
"          . $ 3 r } ~.0XrX#XC.5.=.&.P D A A G W  .O.z.x.M.W.E.`.`.E.`.E.W.U.m.x.s.X.E f = $ O                                   ",
"          . % 5 A t.3XZXmXrXR.5.=.%.U P D A g g g E ] +.;.l.b.M.M.M.M.M.v.l.;.+.] x f 6 $ O                                     ",
"          . - w I z.4XmXmXqXR.5.=.%.U P D w q 5 5 e g G  .+.q.z.B.B.B.q.q.;.:./ L e 2 $ X                                       ",
"          . > H ) w.{.qXqX#XC.5.>.%.Y D A q 3 * * 3 5 q g E ] X.+...:.:.:.:.1.-.K q = $ .                                       ",
"          . 6 ! 2.e.C.R.R.C.e.6.>.%.I S q 3 * + + $ % - 8 f g K T R R ( -.1.7.1./ a = $ .                                       ",
"          . 6 ! 2.6.8.8.8.8.6.3.=.&.I s 2 * + . . . . . 6 a S I ^ %.%.*.=.7.9.1./ a * $ .                                       ",
"          . > H ) 3.5.0.0.5.3.=.%.U D q - O         . . 8 S ~ *.<.3.3.4.6.9.8.1.! p O                                           ",
"          . > s ~ *.3.6.6.3.=.$.U P A 4 $             + 7 J ^ =.4.6.9.9.9.8.7.2.! 6 .                                           ",
"          . & 7 H ~ *.<.,.=.$.U P D w 3 X             O 8 S ~ *.,.6.6.6.6.1.2._ k > .                                           ",
"          . + > 7 s I ^ $.&.U P D w 5 = .             X 6 q H ~ *.,.3.,.=.) / H p & .                                           ",
"            . X & 6 w D P P P D w q 2 % X             X % 2 q H ~ $.%.%.^ J s 8 - +                                             ",
"            . . . $ 4 w A A A w 8 2 * $                 $ * 2 q H J J J H s 4 * $ O                                             ",
"                . O * 3 4 4 4 3 = % $                     $ % 6 7 a a a 7 6 * $                                                 ",
"                . . X O + + + O O X                         X O + & & & + O X X                                                 ",
"                                                                                                                                ",
"                                                                                                                                ",
"                                                                                                                                ",
"                                                                                                                                ",
"                                                                                                                                ",
"                                                                                                                                "
};
