/* XPM */
static char *d1f89be3d81b4792b606bc51c16e081cfCwq9iZVDTgJqVBS[] = {
/* columns rows colors chars-per-pixel */
"64 64 245 2 ",
"   c None",
".  c #000000",
"X  c #0B0204",
"o  c #150101",
"O  c #1C0102",
"+  c #190409",
"@  c #170A12",
"#  c #230202",
"$  c #2B0204",
"%  c #28030C",
"&  c #320203",
"*  c #34020C",
"=  c #3A0405",
"-  c #390A15",
";  c #3B0D1A",
":  c #360614",
">  c #300A15",
",  c #3B1521",
"<  c #440103",
"1  c #4B0509",
"2  c #560108",
"3  c #420E1B",
"4  c #470318",
"5  c #580519",
"6  c #42101E",
"7  c #54131E",
"8  c #680109",
"9  c #740004",
"0  c #630112",
"q  c #660717",
"w  c #740318",
"e  c #6B111E",
"r  c #471726",
"t  c #571829",
"y  c #500E27",
"u  c #6A0523",
"i  c #740024",
"p  c #780528",
"a  c #671629",
"s  c #77172A",
"d  c #720B32",
"f  c #691B31",
"g  c #761D32",
"h  c #6F0433",
"j  c #4B2839",
"k  c #592437",
"l  c #672336",
"z  c #7D233B",
"x  c #752739",
"c  c #772E44",
"v  c #76324A",
"b  c #6E3549",
"n  c #492D40",
"m  c #794955",
"M  c #7D4E6B",
"N  c #87031D",
"B  c #99001C",
"V  c #860727",
"C  c #980229",
"Z  c #871527",
"A  c #8E0433",
"S  c #980536",
"D  c #9A1C37",
"F  c #891A30",
"G  c #AC062A",
"H  c #B3012D",
"J  c #B3092F",
"K  c #AC142F",
"L  c #A20234",
"P  c #AA023D",
"I  c #AA0337",
"U  c #BD013D",
"Y  c #B50334",
"T  c #AA1831",
"R  c #B51938",
"E  c #86233A",
"W  c #9A2439",
"Q  c #AA223B",
"!  c #C1003E",
"~  c #970A4A",
"^  c #901143",
"/  c #AB0542",
"(  c #B80344",
")  c #BD0C5C",
"_  c #882A43",
"`  c #962B46",
"'  c #85344C",
"]  c #97314D",
"[  c #883B57",
"{  c #9B3B58",
"}  c #A62D48",
"|  c #B72847",
" . c #AC324C",
".. c #AC3555",
"X. c #A83A58",
"o. c #B4395B",
"O. c #B73A58",
"+. c #B83051",
"@. c #B73E61",
"#. c #BE1060",
"$. c #C30042",
"%. c #C40249",
"&. c #CB004C",
"*. c #C90047",
"=. c #D0004F",
"-. c #CC0652",
";. c #D20152",
":. c #D7065B",
">. c #CA135B",
",. c #C33859",
"<. c #C42C53",
"1. c #DC0664",
"2. c #D41769",
"3. c #E30B68",
"4. c #EC0373",
"5. c #EB1475",
"6. c #F4157C",
"7. c #F61B7F",
"8. c #F01477",
"9. c #F30D7A",
"0. c #CB3B64",
"q. c #ED2B79",
"w. c #F3247D",
"e. c #E83377",
"r. c #944159",
"t. c #854C58",
"y. c #8A4D6A",
"u. c #9A4260",
"i. c #8F597B",
"p. c #945675",
"a. c #8F516D",
"s. c #A84768",
"d. c #B84869",
"f. c #AB5475",
"g. c #B65578",
"h. c #B24F71",
"j. c #8D6A6E",
"k. c #AB6B74",
"l. c #A3445F",
"z. c #C44A6D",
"x. c #C64467",
"c. c #D1476D",
"v. c #CC4D73",
"b. c #C74B71",
"n. c #D44B75",
"m. c #C85679",
"M. c #D3557C",
"N. c #D8527B",
"B. c #E5457C",
"V. c #CA627C",
"C. c #F91781",
"Z. c #F81980",
"A. c #F43483",
"S. c #B55D81",
"D. c #BB6B90",
"F. c #BA77A2",
"G. c #945D80",
"H. c #CB5D84",
"J. c #DA5780",
"K. c #D25D84",
"L. c #DC5A83",
"P. c #D85B84",
"I. c #F6498B",
"U. c #E35D8A",
"Y. c #E25885",
"T. c #F84994",
"R. c #F2518E",
"E. c #C86289",
"W. c #DC648D",
"Q. c #D7648C",
"!. c #C96992",
"~. c #DC6591",
"^. c #D96A95",
"/. c #C7729B",
"(. c #D5729B",
"). c #DB729D",
"_. c #D3778B",
"`. c #E4638D",
"'. c #E56693",
"]. c #EA6896",
"[. c #E26D9A",
"{. c #ED6D9C",
"}. c #E66995",
"|. c #F3699A",
" X c #E6729C",
".X c #F0709F",
"XX c #F85DA1",
"oX c #C67AA7",
"OX c #DB7AA7",
"+X c #F86CAB",
"@X c #F862A3",
"#X c #E474A2",
"$X c #EC74A3",
"%X c #E37CAA",
"&X c #EB7BAB",
"*X c #EB79A7",
"=X c #F172A2",
"-X c #F27CAC",
";X c #F778A8",
":X c #F77AB3",
">X c #ED79AD",
",X c #B8A8A8",
"<X c #A78E8E",
"1X c #D08C9A",
"2X c #D487B3",
"3X c #E784AC",
"4X c #F484AB",
"5X c #EB83B4",
"6X c #ED87B9",
"7X c #ED8ABC",
"8X c #E686B6",
"9X c #F484B4",
"0X c #F386B9",
"qX c #F48ABD",
"wX c #F785BB",
"eX c #EE9BB1",
"rX c #CDACB1",
"tX c #F0A3B6",
"yX c #EA8EC1",
"uX c #F886C1",
"iX c #F48DC1",
"pX c #F88DC7",
"aX c #E492C5",
"sX c #EC92C5",
"dX c #EC95CA",
"fX c #EB98CB",
"gX c #F492C5",
"hX c #F892C4",
"jX c #F595CB",
"kX c #F894CB",
"lX c #F598CE",
"zX c #F899CD",
"xX c #F098C0",
"cX c #F69CD3",
"vX c #F89DD4",
"bX c #F89ED7",
"nX c #DEBDC4",
"mX c #F8A1D9",
"MX c #F6A5D6",
"NX c #F6B4DA",
"BX c #F1AFC9",
"VX c #F5C9D6",
"CX c #E7CBD3",
"ZX c #F5CFE2",
"AX c #D9CBCC",
/* pixels */
"                                                                                . . . . . . . . . . . .                         ",
"                                                                              . . + > r t k k k k t y y                         ",
"                                                                            . . . : a E ] { s.s.{ ] ` E a                       ",
"                                                                          . . . + t _ X.z.M.K.Q.K.v.d.X.x 6                     ",
"                                                                        . . % ; t ' s.H.~.{.$X*X$X}.K.h.' a <                   ",
"                                                    . . . . . . . . . . . . ; f ] h.E.OX5XqXiXiXqX6X%X!.s.E 9 2 $               ",
"                                                . . o O $ * : - ; ; ; ; > ; f ` @.M.#X7XjXcXcXcXcXcXsXOXm...Z q * .             ",
"                                                . . # < 2 q s g z z z z z E ` ..x.L.*XiXcXvXmXmXmXmXlX8X^.z.] g ; .             ",
"                                      . . . . . . . < q Z D } ..o.o.o.o.o.o.O.0.c.L. X0XjXcXvXmXmXmXcXqX*XK.h.v r .             ",
"                                    . X % ; r t k k c ] X.d.b.M.M.J.J.J.J.J.J.N.P.`.$X9XiXkXcXvXmXmXcXhX9X#XS.[ r .             ",
"                                  . . . 4 f _ ] { s.g.E.!.).OX%X&X&X&X&X&X&X&X&X&X&X&X9X9XqXhXzXcXvXvXcXhX5X!.y.j .             ",
"                                . . . > l ] @.b.M.Q.).%X7XsXsXgXgXgXgXgXgXgXgXgXgXiX0X9X-X9XqXhXzXcXvXvXcXsXoXi.j .             ",
"                              . X , k v u.g.K.'.{.$X-X0XiXgXjXjXjXcXcXcXcXjXgXgXgXiX0X9X9X0XiXhXjXjXlXvXvXfXoXi.j .             ",
"                          . . . @ k [ h.E.).%X5X9X9X9X4X&X&X>X0XiXjXcXcXgX8X&X*X*X&X5XqXiXkXjXjXhXiXqXkXcXfX2Xi.n .             ",
"                        . X X o r [ g.^.%X7XgXjXhXqX9X XW.W.[.&X6XhXcXjX8X).L.P.W. X5XgXcXvXvXcXhX0X9XiXjXfXoXi.j .             ",
"                        . + - t _ s.!.&XqXkXcXcXkXqX&XQ.m.V.1XtXBXMXMXdXOXH.m._.1XeXxXcXmXmXmXcXjXqX0XiXjXsXoXp.k o .           ",
"                        . > t _ o.H.OX7XjXvXvXcXhX9X[.m.s.k.rXCXVXVXNXdXoXg.k.1XnXCXVXNXmXbXmXvXcXjXjXkXkX7XoXp.l = # o         ",
"                        & y z ..v.^.5XjXvXmXvXlXqX&X~.d.r.j.,XCXZXZXNXaX/.p.j.,XAXZXZXNXmXbXbXmXmXvXcXzXkX6X(.f.x 2 & O .       ",
"                      < 8 s ] x.L.$XqXcXmXmXvXjXqX*XW.s.' j.<XrXBXNXMXaXF.a.M <XrXnXBXMXmXbXmXmXmXmXvXzXhX6X(.h._ 8 < # .       ",
"            o o X @ ; e Z W O.M.}.&XiXcXmXmXvXjXqX*X~.s.v m k._.3XxXlXaXF.y.b t.k.1X2XfXcXmXmXmXmXmXvXzXhX0X).m.} N 2 * .       ",
"            1 7 k b m r.X.d.v.~.*X0XkXcXmXmXvXjXqX*XQ.s.v l ] z.W.5XgXaXF.M t 9 W d.(.sXcXmXmXmXmXmXvXcXzXqX#Xm. .Z 0 * .       ",
"        & 2 9 F { f.D.!.E.P.}.&XqXkXcXvXmXmXmXlXqX*XQ.s.v f ` 0.L.&XgXaXF.M t 9 B d.(.yXcXmXmXmXmXmXmXvXcXgX%Xm. .V 8 * .       ",
"      . : e E ..m.(.3X3X*X$X*XqXjXcXvXvXvXvXcXjXqX*X~.h.v l ] z.~.5XjXaXF.M t 9 W d.(.7XcXmXvXvXvXvXvXvXvXjX3XH...Z 0 * .       ",
"      . , c l.m.).5XiXqX9X-X9XiXcXcXkXpXuXuXuXwX9X-X^.f.b x l.H.#X0XjXaXF.M k F X.m.#X7XjXkXpXuXuXuXpXkXcXlX8XQ.O.W a - .       ",
"      . j t.S.OX5XhXjXhX9X-X9XiXcXkXwX+XXXXX@X+X:X:XOXS.v v f.).5XhXlXaXF.M b { m.'.&X0XiXwX+X@XXXXX+XwXkXjX6X^.x.} g ; .       ",
"      . j a./.8XhXzXcXjX0X-X9XhXlXkX:XXXT.T.T.@X:X0X3XD.p.p.D.8XhXcXcXaXoXG.y.g.^.*X9XqXqX:X@XT.T.T.XX:XpXjX6X[.v...z 3 .       ",
"      . j p./.7XzXcXvXlXiX9XqXjXcXkXuX:X+X+X+X:XuXhXyX2XF.F.2XsXcXbXvXfX2XoXF.oX8XqXhXkXhXwX:X+X+X+X:XuXkXjX6X[.n...z 6 .       ",
"      . j a./.6XkXcXvXcXhXiXhXjXvXvXzXkXkXpXkXkXzXcXcXfXaXaXfXcXcXvXcXcXfXaXaXdXlXlXcXcXcXkXkXkXpXkXkXcXvXjX6X[.n...z 6 .       ",
"      . j y.!.3XqXkXlXcXzXkXkXcXvXbXmXbXvXvXvXvXvXmXmXmXmXcXlXsXsXsXsXsXlXcXcXcXvXvXmXmXmXvXvXvXvXvXvXmXmXcX6X[.n...z 6 .       ",
"      . r [ g.^.&XqXhXzXzXcXcXvXbXmXmXmXmXmXmXmXmXmXmXmXmXcX7XOX(.!.(.OX8XlXmXmXmXmXmXmXmXmXmXmXmXmXmXmXmXcX6X[.n...z 6 .       ",
"      . r c s.M.}.&XqXhXlXcXcXcXcXcXcXcXvXvXmXmXmXmXmXmXcXdXOXE.z.O.d.E.OXsXcXmXmXmXmXmXmXmXmXmXmXmXmXmXmXlX6X}.v...z 3 .       ",
"      . - f ` d.K. X9XqXqX7X7X7X7XiXiXkXjXcXvXmXmXmXmXmXcXsX%XK.x.,.x.K.%XsXcXmXmXmXmXmXmXmXmXmXmXmXmXvXvXjX5XW.x.} g ; .       ",
"      . % 7 s ] h.Q.$X*X$X X[.[.[. X*X9XqXjXcXmXmXmXmXmXcXjX5X[.L.L.L.[.5XjXcXmXmXmXmXmXmXmXmXmXmXmXvXcXzXiX%XK.O.W a - .       ",
"      . O & 1 x r.m.~.'.U.J.L.W.}. X X$X-X0XkXcXcXcXvXmXvXlXiX:X$X$X$X-XqXlXvXmXmXmXmXmXmXvXvXvXvXvXcXzXhX6X).m. .Z 5 * .       ",
"        o # & 7 c u.h.v.n.B.}.3XtXtX4X|.|.=X&X6XgXjXcXvXvXcXjXiXqXqXqXiXjXcXmXmXmXmXmXmXvXvXcXzXzXzXkXhXqX&X^.h.E 0 < # .       ",
"            O : t x ] +.2.I.4XBXVXVXtX|.I.I.U. X3XqXjXcXvXvXcXcXlXjXlXcXcXvXmXmXmXmXmXmXvXcXkXhXhXhXhXqX9X#XH.u.l = # o .       ",
"            . % 5 d ^ ) 1.A.4XBXVXVXtX|.w.q.B.Y.{.&X0XhXjXzXcXcXvXvXcXcXcXcXcXcXcXvXvXcXcXjXiXqXqXqX9X4X$X'.g.[ r . . . .       ",
"            . : h ~ >.1.4.A.|.4XtXeX;XI.7.8.q.B.Y.}.$X&X0XqXhXkXzXzXzXzXzXzXzXzXzXzXzXzXjXiX9X9X-X-X-X=X'.P.d.' , . .           ",
"            . 4 ^ #.5.8.6.w.A.R.R.R.I.A.Z.7.w.q.B.B.U.}.$X-X9XqXhXhXhXhXhXhXhXhXhXhXhXhXqX9X-X=X=X=X{.'.L.v.X.z ; .             ",
"            . 4 ~ >.8.6.6.5.4.4.4.4.9.6.C.C.Z.w.q.e.B.Y.`.{.*X9X9X9X9X9X9X9X9X9X9X9X9X9X9X-X=X=X{.].`.J.z.o.` f > .             ",
"            . 4 ~ >.5.8.5.3.1.1.1.3.4.6.C.C.Z.7.w.q.e.B.Y.U.].$X-X-X-X-X-X-X-X-X-X-X-X-X-X=X=X{.'.U.N.z.X._ a 3 % .             ",
"            . 4 ^ #.2.5.1.:.;.;.:.1.3.8.6.6.7.Z.Z.7.w.e.n.N.`.{.=X=X=X=X=X=X=X=X=X=X$X{.{.{.{.'.U.M.x...z r + X X .             ",
"            . : h ~ #.>.-.;.;.=.;.:.1.3.5.8.6.C.C.Z.w.e.0.c.L.].{.=X=X=X=X=X=X=X=X{.{.'.`.U.L.M.b.d...E t # . . .               ",
"            . % 5 d A / ( &.=.=.;.;.:.:.3.5.8.C.C.7.5.2.<.x.M.'.{.=X=X{.{.{.{..X{.{.'.U.N.c.x.O. .` E a 3 O .                   ",
"              O & 1 q V S ( ( ( %.%.%.&.:.3.5.8.8.5.2.>.| O.b.L.'.].].].].'.'.'.'.`.L.n.0.,.| Q T F Z q 4 # .                   ",
"                O $ = 5 i A A S S I Y U *.:.1.3.1.:.>./ D ` o.z.M.J.U.U.N.M.v.v.v.v.x.,.<.| R J I I L V 5 % .                   ",
"                  O # * 4 4 5 q e V C G U %.-.&.%.U I C s Z W } O.x.c.c.x.,.+.+.+.+.| R R J J Y U $.( S i * .                   ",
"                    . . . . # = 1 q w N C L P P L C N w 0 q e Z W } ..O.+.Q T K K K J G H H Y U $.$.( S i * .                   ",
"                            . # & < 2 0 q i i i w 0 2 1 < < 1 5 a g z E D K G G G G G G H Y ! $.$.! Y C q * .                   ",
"                              o o O # $ & * * * * $ $ # O O # $ % > - 5 V L H Y Y H H H Y ! *.*.$.Y L N 0 & .                   ",
"                                  . . . . . . . . . . . . . . . . . . 2 V I U ! ! U U U $.*.&.&.( L N w 2 $                     ",
"                                                                  . o 5 A ( %.&.*.*.*.*.&.&.&.%.P V 0 <                         ",
"                                                                  . O 5 A ( *.&.=.;.;.;.&.&.%.( S u * .                         ",
"                                                                    O 5 V I $.*.&.;.;.;.&.( P S p 5 O .                         ",
"                                                                    O 2 w C Y U %.&.&.&.%.P A u 5 = O .                         ",
"                                                                    o 1 w N C L P / ( / P A u 1 = $ o                           ",
"                                                                        2 0 q i i p p p i u 4 = # O                             ",
"                                                                          $ & * * * * * * % # O o                               ",
"                                                                            . . . . . . . . .                                   ",
"                                                                                                                                ",
"                                                                                                                                ",
"                                                                                                                                ",
"                                                                                                                                ",
"                                                                                                                                "
};
