/* XPM */
static char *_c2d159baf044b48e183961c464820a0qs0sv80s9QzzeMhT[] = {
/* columns rows colors chars-per-pixel */
"64 64 245 2 ",
"   c None",
".  c #000000",
"X  c #0B0204",
"o  c #150101",
"O  c #1C0102",
"+  c #190409",
"@  c #170A12",
"#  c #230202",
"$  c #2B0204",
"%  c #28030C",
"&  c #320203",
"*  c #34020C",
"=  c #3A0405",
"-  c #390A15",
";  c #3B0D1A",
":  c #360614",
">  c #300A15",
",  c #3B1521",
"<  c #440103",
"1  c #4B0509",
"2  c #560108",
"3  c #420E1B",
"4  c #470318",
"5  c #580519",
"6  c #42101E",
"7  c #54131E",
"8  c #680109",
"9  c #740004",
"0  c #630112",
"q  c #660717",
"w  c #740318",
"e  c #6B111E",
"r  c #471726",
"t  c #571829",
"y  c #500E27",
"u  c #6A0523",
"i  c #740024",
"p  c #780528",
"a  c #671629",
"s  c #77172A",
"d  c #720B32",
"f  c #691B31",
"g  c #761D32",
"h  c #6F0433",
"j  c #4B2839",
"k  c #592437",
"l  c #672336",
"z  c #7D233B",
"x  c #752739",
"c  c #772E44",
"v  c #76324A",
"b  c #6E3549",
"n  c #492D40",
"m  c #794955",
"M  c #7D4E6B",
"N  c #87031D",
"B  c #99001C",
"V  c #860727",
"C  c #980229",
"Z  c #871527",
"A  c #8E0433",
"S  c #980536",
"D  c #9A1C37",
"F  c #891A30",
"G  c #AC062A",
"H  c #B3012D",
"J  c #B3092F",
"K  c #AC142F",
"L  c #A20234",
"P  c #AA023D",
"I  c #AA0337",
"U  c #BD013D",
"Y  c #B50334",
"T  c #AA1831",
"R  c #B51938",
"E  c #86233A",
"W  c #9A2439",
"Q  c #AA223B",
"!  c #C1003E",
"~  c #970A4A",
"^  c #901143",
"/  c #AB0542",
"(  c #B80344",
")  c #BD0C5C",
"_  c #882A43",
"`  c #962B46",
"'  c #85344C",
"]  c #97314D",
"[  c #883B57",
"{  c #9B3B58",
"}  c #A62D48",
"|  c #B72847",
" . c #AC324C",
".. c #AC3555",
"X. c #A83A58",
"o. c #B4395B",
"O. c #B73A58",
"+. c #B83051",
"@. c #B73E61",
"#. c #BE1060",
"$. c #C30042",
"%. c #C40249",
"&. c #CB004C",
"*. c #C90047",
"=. c #D0004F",
"-. c #CC0652",
";. c #D20152",
":. c #D7065B",
">. c #CA135B",
",. c #C33859",
"<. c #C42C53",
"1. c #DC0664",
"2. c #D41769",
"3. c #E30B68",
"4. c #EC0373",
"5. c #EB1475",
"6. c #F4157C",
"7. c #F61B7F",
"8. c #F01477",
"9. c #F30D7A",
"0. c #CB3B64",
"q. c #ED2B79",
"w. c #F3247D",
"e. c #E83377",
"r. c #944159",
"t. c #854C58",
"y. c #8A4D6A",
"u. c #9A4260",
"i. c #8F597B",
"p. c #945675",
"a. c #8F516D",
"s. c #A84768",
"d. c #B84869",
"f. c #AB5475",
"g. c #B65578",
"h. c #B24F71",
"j. c #8D6A6E",
"k. c #AB6B74",
"l. c #A3445F",
"z. c #C44A6D",
"x. c #C64467",
"c. c #D1476D",
"v. c #CC4D73",
"b. c #C74B71",
"n. c #D44B75",
"m. c #C85679",
"M. c #D3557C",
"N. c #D8527B",
"B. c #E5457C",
"V. c #CA627C",
"C. c #F91781",
"Z. c #F81980",
"A. c #F43483",
"S. c #B55D81",
"D. c #BB6B90",
"F. c #BA77A2",
"G. c #945D80",
"H. c #CB5D84",
"J. c #DA5780",
"K. c #D25D84",
"L. c #DC5A83",
"P. c #D85B84",
"I. c #F6498B",
"U. c #E35D8A",
"Y. c #E25885",
"T. c #F84994",
"R. c #F2518E",
"E. c #C86289",
"W. c #DC648D",
"Q. c #D7648C",
"!. c #C96992",
"~. c #DC6591",
"^. c #D96A95",
"/. c #C7729B",
"(. c #D5729B",
"). c #DB729D",
"_. c #D3778B",
"`. c #E4638D",
"'. c #E56693",
"]. c #EA6896",
"[. c #E26D9A",
"{. c #ED6D9C",
"}. c #E66995",
"|. c #F3699A",
" X c #E6729C",
".X c #F0709F",
"XX c #F85DA1",
"oX c #C67AA7",
"OX c #DB7AA7",
"+X c #F86CAB",
"@X c #F862A3",
"#X c #E474A2",
"$X c #EC74A3",
"%X c #E37CAA",
"&X c #EB7BAB",
"*X c #EB79A7",
"=X c #F172A2",
"-X c #F27CAC",
";X c #F778A8",
":X c #F77AB3",
">X c #ED79AD",
",X c #B8A8A8",
"<X c #A78E8E",
"1X c #D08C9A",
"2X c #D487B3",
"3X c #E784AC",
"4X c #F484AB",
"5X c #EB83B4",
"6X c #ED87B9",
"7X c #ED8ABC",
"8X c #E686B6",
"9X c #F484B4",
"0X c #F386B9",
"qX c #F48ABD",
"wX c #F785BB",
"eX c #EE9BB1",
"rX c #CDACB1",
"tX c #F0A3B6",
"yX c #EA8EC1",
"uX c #F886C1",
"iX c #F48DC1",
"pX c #F88DC7",
"aX c #E492C5",
"sX c #EC92C5",
"dX c #EC95CA",
"fX c #EB98CB",
"gX c #F492C5",
"hX c #F892C4",
"jX c #F595CB",
"kX c #F894CB",
"lX c #F598CE",
"zX c #F899CD",
"xX c #F098C0",
"cX c #F69CD3",
"vX c #F89DD4",
"bX c #F89ED7",
"nX c #DEBDC4",
"mX c #F8A1D9",
"MX c #F6A5D6",
"NX c #F6B4DA",
"BX c #F1AFC9",
"VX c #F5C9D6",
"CX c #E7CBD3",
"ZX c #F5CFE2",
"AX c #D9CBCC",
/* pixels */
"                        . . . . . . . . . . . .                                                                                 ",
"                        y y t k k k k t r > + . .                                                                               ",
"                      a E ` ] { s.s.{ ] E a : . . .                                                                             ",
"                    3 x X.d.v.K.Q.K.M.z.X._ t + . . .                                                                           ",
"                  < a ' h.K.}.$X*X*X{.~.H.s.' t 3 % . .                                                                         ",
"              $ 2 9 E s.!.%X6XqXiXiXqX5XOXE.d.] f 3 . . . . . . . . . . . .                                                     ",
"            . * q Z ..m.OXsXcXcXcXcXcXjX7X#XM.@.` f ; > ; ; ; ; - : * $ O o . .                                                 ",
"            . ; g ] z.^.8XlXmXmXbXbXvXcXiX*XL.x...` E z z z z z g s q 2 < # . .                                                 ",
"            . r v d.K.*XqXcXmXmXmXvXvXkX0X XL.c.0.O.o.o.o.o.o.o...} D Z q < . . . . . . .                                       ",
"            . r [ S.#X9XgXcXmXmXvXcXkXiX9X$XW.L.N.J.J.J.J.J.J.M.M.b.d.X.] c k k t r ; % X .                                     ",
"            . j y.!.5XgXcXvXvXvXzXgXqX9X9X&X&X%X&X&X&X&X&X&X&X*X*X#X).!.E.g.s.{ ] _ f 4 . . .                                   ",
"            . j i.oXsXcXvXvXvXzXkXqX9X-X-X0XiXgXgXgXgXgXgXgXgXgXgXsXsX7X%X).Q.M.b.@.] l > . . .                                 ",
"            . j i.oXfXvXvXcXjXkXgXiX0X9X9X0XiXgXgXgXjXcXvXvXcXjXjXkXgXiX0X-X$X{.'.K.g.u.v k , X .                               ",
"            . n i.2XfXcXkXqXiXgXkXkXkXiXqX5X&X*X*X&X5XgXcXcXjXiX0X>X&X&X4X9X9X0X5X%X).E.h.[ k @ . . .                           ",
"            . j i.oXdXjXiX9X0XgXcXvXvXcXgX5X XW.P.P.).8XjXcXgX0X&X[.W.W. X9XqXgXkXgX7X*X^.g.[ r o X X .                         ",
"          . o k p.oXsXkXiX0XqXkXvXmXmXmXcXxXeX1X_.m.H.OXdXMXMXBXeX1XV.m.W.&XqXkXcXvXzXqX&X!.s._ t - + .                         ",
"        o # = l p.oX7XkXkXkXjXcXvXmXbXmXNXVXCXnX1Xk.g.oXdXNXVXZXCXrXk.s.m.[.9XgXcXvXvXjX7XOXH.o._ t > .                         ",
"      . O & 2 x f.(.6XkXzXvXvXvXmXbXbXmXNXZXZXAX,Xj.p./.aXNXZXZXCX,Xj.r.d.~.*XiXjXvXmXvXjX5X^.v.X.z y &                         ",
"      . $ < 8 _ h.(.6XkXcXvXmXmXmXmXbXmXMXBXnXrX<XM a.F.aXMXNXnXrX<Xj.' s.~.*XqXjXvXmXmXcXqX$XL.x.] s 8 =                       ",
"      . & 2 N } m.).0XkXcXvXmXmXmXmXmXvXfX8X1Xk.t.b y.F.aXlXxX3X_.k.m v h.~.*XqXjXvXmXmXcXiX&X}.M.O.W Z e ; @ X o o             ",
"      . * 0 Z  .m.#XqXzXvXvXbXmXmXmXmXvXyX(.d.W 9 t M F.aXgX5XW.z.] l v s.Q.*XqXjXbXmXmXcXkX0X*X~.v.d.X.r.m b l 7 1             ",
"      . * 8 V  .m.%XgXvXvXbXmXmXmXmXmXvXyX(.@.B 9 t M F.aXgX&XL.0.` f v s.Q.*XqXlXmXmXmXvXcXkXqX&X}.P.E.E.D.f.{ F 9 2 &         ",
"      . * 0 Z ..E.3XjXvXvXvXvXvXvXvXvXcXyX(.d.W 9 t M F.aXgX5X~.z.] l v h.~.*XqXkXcXvXvXvXvXcXjXqX*X$X*X3X3X(.m...E a : .       ",
"      . - u D O.Q.8XlXcXkXpXuXuXuXpXkXkX7X#Xm.o.F k M F.aXjX0X#XH.s.c v f.^.&X9XwXuXuXuXpXkXcXcXiX9X-X9XqXqX5X).m.l.c , .       ",
"      . ; g } z.^.6XjXkXwX+XXXXX@X+XwXiX0X&X~.m.{ b M F.aXlXhX5X).f.v v S.OX-X:X+X@XXXXX+XwXkXcXiX9X-X9XgXkXgX5XOXS.t.j .       ",
"      . 3 z ..v.[.6XjXpX:XXXT.T.T.@X:XqXqX9X*X^.g.y.G.oXaXcXcXgX8XD.p.p.D.3X0X:X@XT.T.T.XX:XkXlXgX9X-X0XkXcXzXgX8X/.a.j .       ",
"      . 6 z ..n.[.6XjXzXuX:X+X+X+X:XwXhXkXgXqX8XoXF.oX2XfXvXbXcXsX2XoXF.2XyXgXuX:X+X+X+X:XuXzXcXgXqX9XiXlXvXvXkX7X/.p.j .       ",
"      . 6 z ..n.[.6XlXvXcXkXkXpXkXkXzXcXvXcXlXjXdXaXaXfXcXvXvXvXcXdXaXaXdXcXcXcXkXkXpXpXkXzXvXvXjXhXiXgXcXvXcXkX6X/.a.j .       ",
"      . 6 z ..n.[.6XcXmXmXvXvXvXvXvXvXmXmXmXvXvXvXvXcXlXsXsXsXsXsXlXcXvXmXmXmXbXvXvXvXvXbXmXmXvXcXkXkXzXcXlXkXqX3X!.y.j .       ",
"      . 6 z ..n.[.6XcXmXmXmXmXmXmXmXmXmXmXmXmXmXmXmXlX8XOX(.!.(.OX7XlXmXmXmXmXmXmXmXmXmXmXmXmXmXvXvXcXzXzXgXqX&X^.g.[ r .       ",
"      . 3 z ..v.}.6XlXmXmXmXmXmXmXmXmXmXmXmXmXmXmXvXsXOXH.d.O.z.E.OXdXvXmXmXmXmXmXmXvXvXvXvXcXvXcXcXcXlXkXqX&X}.M.s.c r .       ",
"      . ; g } z.W.5XkXvXvXmXmXmXmXmXmXmXmXmXmXmXmXvXsX%XK.x.,.x.K.%XsXvXmXmXmXmXmXbXcXjXgXiXiX7X7X7X7XqXqX9X XK.d.` f - .       ",
"      . - a W O.K.%XiXzXvXvXmXmXmXmXmXmXmXmXmXmXmXvXjX5X[.L.L.L.[.5XjXvXmXmXmXmXmXvXkXqX9X*X#X[.[.[. X$X*X$XQ.h.] s 7 % .       ",
"      . & 5 Z  .m.).6XhXzXvXvXvXvXvXvXmXmXmXmXmXmXvXlXqX-X$X$X$X-XiXcXvXmXmXvXcXcXkX0X-X$X X X^.W.L.J.U.'.W.m.r.x 1 & O .       ",
"      . # < 0 E d.^.&XqXhXkXzXzXzXcXvXvXmXmXmXmXmXmXcXkXiXqXqXqXiXjXvXbXmXvXkXgX6X>X=X|.|.4XtXtXeX}.B.n.v.h.r.c 7 & # o         ",
"      . o # = l u.H.#X-XqXhXhXhXkXkXcXvXmXmXmXmXmXmXvXcXcXlXjXlXcXcXvXvXcXkXqX3X XU.I.I.|.tXVXVXBX4XI.2.+.] x t : O             ",
"      . . . . r [ g.'.$X4X9XqXqXqXiXkXcXvXvXvXvXvXvXvXvXvXvXvXvXvXcXlXkXhX0X&X{.Y.B.q.w.|.tXVXVXBX;XA.1.) ^ d y % .             ",
"          . . , ' d.L.].=X-X-X-X9X9XiXkXzXzXzXzXzXzXzXzXzXzXzXzXkXgXqX0X&X$X}.Y.B.q.8.7.I.;XeXtX4X|.A.4.1.) ~ h : .             ",
"            . ; z X.v.L.'.{.=X=X;X-X9XqXhXhXhXhXhXhXhXhXhXhXhXhXqX9X-X$X}.Y.B.B.q.w.7.Z.A.I.R.R.I.A.7.6.8.2.#.^ 4 .             ",
"            . > f ` o.z.J.`.].{.=X;X-X9X9X9X9X9X9X9X9X9X9X9X9X9X9X*X{.`.Y.B.e.q.w.Z.C.6.6.9.4.4.4.4.5.8.7.5.2.~ 4 .             ",
"            . # 3 a _ X.z.N.U.]..X=X;X-X-X-X-X-X-X-X-X-X-X-X-X-X$X].U.Y.B.e.q.w.7.Z.C.C.6.4.3.1.1.1.3.5.8.8.2.~ 4 .             ",
"            . X X + r z X.z.N.U.'.].{.{.{.$X=X=X=X=X=X=X=X=X=X=X{.`.N.n.e.q.7.7.Z.7.7.7.8.3.1.;.;.;.:.1.5.2.#.^ 4 .             ",
"              . . . # t E ..d.b.M.L.U.`.'.].{.=X=X=X=X=X=X=X=X.X].L.c.0.e.w.7.C.C.7.8.5.3.1.:.;.=.;.;.-.>.#.~ h : .             ",
"                  . O 3 a E `  .O.x.c.N.Y.'.].{..X{.{.{..X=X=X{.'.M.x.<.2.5.7.Z.C.8.5.3.:.;.;.=.;.&.&.( / A d 5 % .             ",
"                  . # 4 q Z F T Q | ,.0.n.L.`.'.'.'.'.].].].].'.P.b.+.| >.2.5.8.8.5.3.:.&.%.%.%.( ( / S p q 1 & O               ",
"                  . $ 5 V L I I J R | <.,.x.v.v.v.v.N.J.Y.Y.N.N.z.o.` D / -.:.1.3.3.:.&.U Y I S S A A i 5 = $ O                 ",
"                  . * i S ( $.U Y J J R R | +.+.+.+.,.x.c.c.x.O. .W Z s C I U %.=.-.%.U G C V e q 5 4 4 * # O                   ",
"                  . * i S ( $.$.U Y H H H J K K K T Q +.O...} W Z e q 0 w N C L P P L C N w q 1 = # . . . .                     ",
"                  . * q C Y ! $.$.! Y H G G G G G G K D E z g a 5 1 < < 1 2 0 w i i i q 0 2 < & # .                             ",
"                  . & 0 N L Y $.*.*.! Y H H H Y Y H L V 5 - > % $ # O O # $ $ * * * * & $ # O o o                               ",
"                    $ 2 w N L ( &.&.*.$.! U U ! ! U I V 2 . . . . . . . . . . . . . . . . . .                                   ",
"                        < 0 V P %.&.&.*.*.*.*.&.&.%.( A 5 o .                                                                   ",
"                        . * u S ( %.&.&.;.;.;.=.&.*.( A 5 O .                                                                   ",
"                        . O 5 p S P ( &.;.;.;.&.*.$.I V 5 O                                                                     ",
"                        . O = 5 p A P %.&.&.&.%.U Y C w 2 O                                                                     ",
"                          o $ = 1 u A P / / / P L C N w 1 o                                                                     ",
"                            O # = 4 u i p p p i i q 0 2                                                                         ",
"                              o O # $ * * * * * * & $                                                                           ",
"                                  . . . . . . . . .                                                                             ",
"                                                                                                                                ",
"                                                                                                                                ",
"                                                                                                                                ",
"                                                                                                                                ",
"                                                                                                                                "
};
