/* XPM */
static char *eb3fab6378e74579a1a277968b08d969kehNMCoRVgk4KGhV[] = {
/* columns rows colors chars-per-pixel */
"64 64 249 2 ",
"   c None",
".  c #020000",
"X  c #0C0001",
"o  c #08090E",
"O  c #140101",
"+  c #1C0102",
"@  c #1D050B",
"#  c #1C0A13",
"$  c #240202",
"%  c #2D0304",
"&  c #28020A",
"*  c #340502",
"=  c #3B0403",
"-  c #39050A",
";  c #270A14",
":  c #3A0D19",
">  c #380514",
",  c #3D121C",
"<  c #2E131C",
"1  c #3F1624",
"2  c #46080B",
"3  c #480506",
"4  c #55020B",
"5  c #570708",
"6  c #460716",
"7  c #5D011E",
"8  c #570715",
"9  c #57121B",
"0  c #48131B",
"q  c #660817",
"w  c #770617",
"e  c #65131B",
"r  c #730B13",
"t  c #451826",
"y  c #5B192C",
"u  c #571525",
"i  c #5F1E31",
"p  c #580724",
"a  c #670521",
"s  c #780627",
"d  c #641B2D",
"f  c #691525",
"g  c #7A1827",
"h  c #6C1D32",
"j  c #771D32",
"k  c #7A083A",
"l  c #672439",
"z  c #7D233C",
"x  c #7C2235",
"c  c #62222E",
"v  c #692C43",
"b  c #762B41",
"n  c #78334C",
"m  c #6B3B54",
"M  c #6E3E58",
"N  c #7A3B56",
"B  c #6A3347",
"V  c #79475C",
"C  c #724650",
"Z  c #7C4966",
"A  c #88061B",
"S  c #88072B",
"D  c #980525",
"F  c #8B182B",
"G  c #93172B",
"H  c #890634",
"J  c #9A0238",
"K  c #961735",
"L  c #8B1630",
"P  c #A8032C",
"I  c #A60537",
"U  c #BA013B",
"Y  c #B5043A",
"T  c #AC1635",
"R  c #B9173D",
"E  c #882339",
"W  c #99253A",
"Q  c #A7243D",
"!  c #920946",
"~  c #AC0543",
"^  c #BC0548",
"/  c #A7144A",
"(  c #B91742",
")  c #BD0954",
"_  c #AE1056",
"`  c #832B44",
"'  c #8B2D48",
"]  c #982C46",
"[  c #98334C",
"{  c #8B3B57",
"}  c #9D3653",
"|  c #86334B",
" . c #A52945",
".. c #B92C4B",
"X. c #A6314E",
"o. c #A93857",
"O. c #B53958",
"+. c #B5304F",
"@. c #B73F60",
"#. c #AE3368",
"$. c #C5034A",
"%. c #C9034D",
"&. c #C20446",
"*. c #CA0753",
"=. c #D5065A",
"-. c #C41653",
";. c #C3385B",
":. c #C62852",
">. c #DE0262",
",. c #DC0C64",
"<. c #D50C60",
"1. c #D71669",
"2. c #CA1164",
"3. c #E10D68",
"4. c #E4106C",
"5. c #EC0772",
"6. c #EB1373",
"7. c #EA1775",
"8. c #F3147B",
"9. c #F01777",
"0. c #F40079",
"q. c #C73E61",
"w. c #DC3773",
"e. c #EF247C",
"r. c #8D475D",
"t. c #AB445C",
"y. c #8A4965",
"u. c #8E546B",
"i. c #9B4E6C",
"p. c #A54263",
"a. c #A9476A",
"s. c #BB4264",
"d. c #B84669",
"f. c #BA5379",
"g. c #B95478",
"h. c #B05371",
"j. c #8F7675",
"k. c #B16775",
"l. c #CC456A",
"z. c #C64469",
"x. c #CB4D73",
"c. c #C04D72",
"v. c #D54D74",
"b. c #D84F76",
"n. c #C85479",
"m. c #D4537A",
"M. c #DB527B",
"N. c #D25077",
"B. c #D04065",
"V. c #CD647F",
"C. c #F73B88",
"Z. c #F42880",
"A. c #B65C81",
"S. c #A75D85",
"D. c #BB648A",
"F. c #AB6C94",
"G. c #A76C93",
"H. c #B96A93",
"J. c #B16D8D",
"K. c #AA6C94",
"L. c #C85C85",
"P. c #DB5781",
"I. c #D45B84",
"U. c #DC5A84",
"Y. c #DA5E89",
"T. c #DE5E98",
"R. c #F7488E",
"E. c #E35E8A",
"W. c #E15B87",
"Q. c #F75699",
"!. c #F04C92",
"~. c #C96688",
"^. c #DA628C",
"/. c #D6638C",
"(. c #C86C94",
"). c #D86A95",
"_. c #CC7298",
"`. c #E3618D",
"'. c #E56692",
"]. c #EA6694",
"[. c #E26A95",
"{. c #EA6996",
"}. c #E46D9A",
"|. c #EC6C9B",
" X c #F06F9F",
".X c #F3659C",
"XX c #E9719E",
"oX c #CA7AA6",
"OX c #DB74A1",
"+X c #DA7CAA",
"@X c #DF7EB2",
"#X c #F76AA6",
"$X c #E575A4",
"%X c #EC74A3",
"&X c #E57BAB",
"*X c #ED7CAC",
"=X c #EA78A7",
"-X c #F073A3",
";X c #F27CAC",
":X c #F376A9",
">X c #EA7EB0",
",X c #F57DB4",
"<X c #F85EA1",
"1X c #AB888B",
"2X c #BBA6A5",
"3X c #CA8895",
"4X c #DC85A6",
"5X c #D786B6",
"6X c #D699AB",
"7X c #E980AD",
"8X c #ED83B4",
"9X c #EC8BBD",
"0X c #E785B5",
"qX c #F383B4",
"wX c #F386BA",
"eX c #F58BBC",
"rX c #F986B9",
"tX c #F189B4",
"yX c #CCB1B3",
"uX c #E2A2BE",
"iX c #DF8FC2",
"pX c #DF90C3",
"aX c #E68FC2",
"sX c #F58EC2",
"dX c #F88DC6",
"fX c #F88AC4",
"gX c #EC93C6",
"hX c #E995C8",
"jX c #F591C5",
"kX c #F892C5",
"lX c #F495CA",
"zX c #F895CA",
"xX c #F598CE",
"cX c #F899CE",
"vX c #F69CD4",
"bX c #F89ED5",
"nX c #F89FD8",
"mX c #F5A5CE",
"MX c #F7A0D7",
"NX c #F8A0D7",
"BX c #F8A0D8",
"VX c #F5A7D7",
"CX c #F6B5D9",
"ZX c #EBB1CB",
"AX c #DCBCC4",
"SX c #CFC2C2",
"DX c #E8C8D4",
"FX c #EDD1DD",
"GX c #F6CDE3",
/* pixels */
"                                                                                                                                ",
"                                                                                                                                ",
"                                                                                                                                ",
"                      . . . . . . .             . . . . . . . . . . . . . . . .             . . . . . . .                       ",
"                    u y i l l l l y y           + % 6 u i l v v v v l i u 6 % +           u y d l l l i y u                     ",
"                  6 j ' } p.a.a.o.[ ` y     . . $ 3 f E } p.a.a.a.a.p.} E f 3 $ . .     9 E ] } a.a.p.} ' j 6                   ",
"                O y ' @.x.I./.I.x.s.[ h ; o < , u l [ @.x.I.^.).).^.I.x.@.[ l 9 , < # < l } s.n.Y./.I.x.@.' y O                 ",
"                d ` a.L.[.%X=X}.I.s.] j d B V y.u.i.f./.[.%X*X;X;X;X%X[./.f.i.y.{ n n n r.f./.}.=X:XXX`.n.p.` d                 ",
"            : h ] a.~.$X8XsXeX&XL.o.G F [ h.D._.oXoX+X0X8XeXsXkXjXsXeX8X0X+XoX_.D.g.g.g.L.OX&XwXeXeXqX*X[.n.o.] h :             ",
"            : z o.n.OX9XxXvXlX5XA.[ F  .d.(.7X9XaXhXgXlXxXxXxXxXxXlXxXxXxXhXhX9X&X}.[.}.=XwXlXvXvXxXlXeX*X[.x.o.z :             ",
"          . : z O.P.=XlXnXnXlX+XA.} o.g./.$XqXwX9X9XgXvXvXxXjX9X9X9XgXvXMXBXnXlXeX;X;X,XrXlXvXBXBXnXcXjXqXXXU.d.` , .           ",
"          . : E O.P.=XlXbXlXwX$Xn.d.~.OX0X8X;X=X).OX0XlXxXsX&X).).).0XlXMXBXBXcXsXeXeXsXlXvXnXBXBXnXvXkXeX;X[.n.| 1 .           ",
"          . : z O.m.=XjXlXeX:X[.U.^.&XaXjXwX=X).V.~.4XgXlX&X^.n.n.~.4XgXvXBXnXcXzXjXlXvXvXnXNXNXnXnXcXkXeX;X|.L.{ t .           ",
"          . > j X.x.}.8XeX*X{.'.}.=X9XxXlX7X)._.3X6XuXxXgXOXn.k.3X6XuXmXMXBXnXbXcXxXvXvXBXBXNXnXbXcXzXkXeXqX%XL.{ t .           ",
"          . > f W q.Y.=X*X{.E.[.>XsXxXvXhXoXk.1XyXDXDXVXaX(.h.1XyXDXDXCXBXnXNXnXbXbXnXNXBXBXnXbXcXzXkXkXeXqX%XL.{ t .           ",
"          . & q F +.x.'.{.E.W.}.9XvXBXMXaXH.u.1XSXFXGXCXaXH.u.1XSXFXGXCXBXnXNXNXnXnXNXNXBXNXnXvXzXkXeXeXqX;X|.L.{ t .           ",
"          . $ 4 g W s.P.E.E.`.=XjXvXBXMXaXF.V j.yXAXCXVXaXF.V j.2XAXZXVXBXBXMXBXBXBXBXBXBXBXnXbXzXkXeXqX;X%X`.c.| 1 .           ",
"          . + 3 q E o.x.P.E.{.*XjXnXBXvXaXF.V r.J.4XuXxXaXF.C C k.3X6XxXMXBXBXBXBXBXBXBXBXBXnXvXzXeXqX;X%X'.P.d.` , .           ",
"            O % 3 g ] q.b.E.|.qXlXnXBXMXiXF.M ` d.^.8XlXiXF.m e W d.OXgXMXBXMXBXBXBXBXBXNXnXbXlXsXqX;X X'.P.l.o.z :             ",
"              + * 9 E +.l.W.|.qXlXnXBXMXpXG.M ` d.`.qXlXiXF.m w I z.OXgXMXBXMXBXBXBXBXBXnXbXlXeX7XXX{.`.P.c.o.' h               ",
"                + 6 g Q z.P.XXqXlXvXBXvXiXG.M { n.%XeXxXiXF.m j +.m.=XjXnXnXnXnXnXBXBXBXnXcXjXqX}.W.M.M.l.o.z y                 ",
"                . - q G O.I.%XqXsXlXzXdX@XS.m y.(.>XkXxXiXF.m z s.U.%XwXdXdXdXzXvXnXBXBXnXcXjXqX}.P.v.z.O.` t .                 ",
"                . % 5 g t./.*XqXrXqX,X:XT.a.v u.oXsXvXvXiXG.m | c.E..X#X#X#X#X,XzXnXBXBXnXbXxXeX=X`.x.O.' d > .                 ",
"                . $ = e r.(.8XeXqX:X#XQ.!.#.N S.5XxXBXvXaXF.Z y.L.{..XQ.R.R.Q.#XdXnXBXBXBXBXvXjX,X[.n.} f 2 & .                 ",
"                  + $ 0 r.(.8XeXrX,X:X#XT.L.S.oXiXvXBXMXhXoXG.H.OX>X:X#X<XQ.#X,XdXnXBXBXBXBXnXlXqX}.f.| 0 $ +                   ",
"                    . , y.(.0XkXkXjXdXfXwX0X5XiXhXMXBXMXvXaX5X5XaXjXdXfXrXrXfXdXvXnXBXBXBXBXnXlXqX}.g.n > .                     ",
"                      < V H.0XkXcXvXvXvXvXvXvXvXvXvXvXvXvXvXvXvXvXvXnXvXvXvXvXnXnXNXBXBXBXBXbXlXqX}.g.n ;                       ",
"                      # N D.7XsXcXnXMXMXMXBXBXxXsX9XjXvXMXBXBXBXBXBXBXBXBXBXBXBXBXNXBXBXnXnXcXsXqX}.g.n #                       ",
"                      ; N A.$XeXzXnXBXBXMXBXvXjX*X$X8XlXMXBXBXBXBXBXBXBXBXBXBXBXBXBXBXBXnXcXkXeX;X}.g.n ;                       ",
"                      ; n g.[.qXlXvXBXBXBXBXvXsX&X}.8XlXvXMXBXBXBXBXBXBXBXBXBXBXBXBXBXBXnXcXjXqX;X[.h.n ;                       ",
"                      @ b a.Y.*XjXvXBXBXMXMXvXlXwX8X9XxXBXBXBXBXBXBXBXBXBXBXBXBXBXBXBXBXnXzXjXqX%XY.a.b @                       ",
"                      @ l o.m.$XsXvXBXBXMXMXvXvXxXlXvXvXBXBXBXBXBXBXBXBXBXBXBXBXBXBXBXNXbXzXsXqX[.N.o.l @                       ",
"                      @ d ] z.).9XvXNXBXBXBXBXBXnXnXnXNXBXBXBXBXBXBXBXBXnXNXNXNXNXBXnXnXcXkXeX=X^.l.X.d @                       ",
"                      O 0 j o.~.7XlXnXNXBXBXBXBXBXBXBXNXBXBXBXBXBXBXBXBXnXNXNXBXBXNXnXcXkXeXqX}.m.O.W u O                       ",
"                      X - 8 b h.OXeXcXbXnXnXnXNXBXBXBXBXBXBXBXBXBXBXBXBXBXBXnXnXnXnXcXkXeXqX=X`.l.+.F 8 +                       ",
"                      . $ * c i.(.7XeXjXxXvXbXbXnXBXBXBXBXBXBXBXBXBXBXBXNXnXbXvXxXlXjXeXqX:X{.P.;.Q A 8 * O                     ",
"                        X O u { n.[.=XqXeXjXzXcXnXBXBXBXBXBXBXBXBXBXBXBXnXbXzXjXeXwXqX;X:X|.W.v.;.T A q 2 % +                   ",
"                          . 0 ` s.m.`.|.;XqXeXkXcXvXvXvXvXvXvXvXvXvXvXvXvXzXjXeX;X-X-X%X{.E.v.q...T D w 8 2 $ .                 ",
"                          . ; h [ @.v.E.|.;XqXeXsXjXlXjXjXjXjXjXjXjXlXjXjXeXqXqX:X-X|.].E.N.z.+.( Y P A r 4 % .                 ",
"                          . & 9 j [ s.N.E.|.:X;XqXqXqXqXqXqXqXqXqXqXqXqXqX;X;X;X-X|.].W.N.s.X. .( &.U P A q = .                 ",
"                            + - 9 x X.z.m.`.{.%X-X-X-X-X-X-X-X-X-X-X-X-X-X%X X|.|.{.E.m.z.X.E K ^ *.%.^ I s 6 O                 ",
"                            O $ = 9 E X.s.m.E.].|. X-X-X X X X X X-X-X-X X{.'.`.U.m.x.s.X.W G I *.>.>.=.^ J 7 % O               ",
"                                $ 2 u x [ s.m.E.{.|.-X X X X X X X X-X|.|.`.M.v.l.O.X.] E G P ^ ,.6.9.7.1./ s 3 % O             ",
"                                . $ = 9 x X.z.m.Y.'.{.{.|.|.|.|.|.|.|.{.`.P.l.;.+.Q G F S D Y *.4.Z.R.Q.W.d.E 5 = + .           ",
"                                  O $ = f E X.s.x.m.P.E.`.`.`.`.`.E.W.M.x.s.o. .K G A A D P &.=.5.C.#XrX0X~.} r 3 $ .           ",
"                                    O $ 6 f x ] +.;.l.v.M.M.M.M.M.v.l.;.+.] E g g g A D P U %.=.5.R.rXmXZX3Xt.A 5 % .           ",
"                                      X % 2 e L / :.;.q.q.B.B.B.z.q.+. .G g e 5 5 q w D P U %.>.5.R.qXmXmX4Xz.I w - .           ",
"                                      . $ = q K -.1.1.:.:.:.....X.] E g q 5 3 * = 3 q A D Y %.3.5.C.#XqXqX].w.) H > .           ",
"                                      . $ = f / 1.7.1.-.( R R T K g f 8 - % $ + + * 3 q S I %.>.6.e.C.R.R.C.e.2.! 6 .           ",
"                                      . $ * a / 1.9.6.=.*.*.%.^ I S a 6 . . . . . + * 2 s I &.=.4.6.8.8.8.8.6.2.! 6 .           ",
"                                          O p / 1.8.9.6.4.4.4.<.*.~ S 8 . .         O - q D Y %.=.3.5.0.0.5.,.) H > .           ",
"                                          . 6 ! 2.7.8.9.9.9.6.4.=.^ J 7 +             $ 4 A P U $.=.4.6.6.4.*.~ s > .           ",
"                                          . > k _ 2.1.6.6.6.6.,.*.~ S 8 O             X 3 w D P U $.=.,.,.*.~ H q & .           ",
"                                          . & p H / ) =.,.3.,.*.~ H q 6 X             . = 5 w D P U &.$.^ I s 7 > + .           ",
"                                            + - 8 s J ^ $.%.$.~ H q 2 % X             X % 2 q w D P P P D s 6 & X .             ",
"                                            O $ * 4 s H J J J H q 2 * $                 $ * 2 8 w A A A w 4 $ . . .             ",
"                                                $ * 6 7 a a a 7 6 % $                     $ % = 3 4 4 4 3 * O .                 ",
"                                                X X O + $ $ $ + O X                         X O O + + + O X . .                 ",
"                                                                                                                                ",
"                                                                                                                                ",
"                                                                                                                                ",
"                                                                                                                                ",
"                                                                                                                                ",
"                                                                                                                                "
};
