/* XPM */
static char *result[] = {
/* columns rows colors chars-per-pixel */
"64 64 240 2 ",
"   c #030304",
".  c #090607",
"X  c #050907",
"o  c #080807",
"O  c #060609",
"+  c #0A0709",
"@  c #040C0B",
"#  c #0C0D0D",
"$  c #110F0F",
"%  c #06100A",
"&  c #0E100E",
"*  c #021B09",
"=  c #10110F",
"-  c #050D11",
";  c #0E0F10",
":  c #110F10",
">  c #051413",
",  c #0E1112",
"<  c #051B15",
"1  c #0D1816",
"2  c #0E1618",
"3  c #051B1A",
"4  c #0D1A1A",
"5  c #101111",
"6  c #111916",
"7  c #121619",
"8  c #131B1C",
"9  c #191D1E",
"0  c #042607",
"q  c #042A05",
"w  c #053406",
"e  c #06350B",
"r  c #133E0D",
"t  c #072817",
"y  c #06231D",
"u  c #0C221E",
"i  c #12231F",
"p  c #1A211F",
"a  c #0A3617",
"s  c #133C13",
"d  c #173816",
"f  c #35231B",
"g  c #0C1E21",
"h  c #141E21",
"j  c #181D20",
"k  c #072424",
"l  c #0A2424",
"z  c #0D2925",
"x  c #0B2528",
"c  c #0C2B2B",
"v  c #132423",
"b  c #192323",
"n  c #122A25",
"m  c #132629",
"M  c #1A2728",
"N  c #132B2A",
"B  c #1A2C2C",
"V  c #0C3428",
"C  c #0E322D",
"Z  c #14332D",
"A  c #19312E",
"S  c #173929",
"D  c #0D2D33",
"F  c #172D32",
"G  c #0F3434",
"H  c #0E3837",
"J  c #0E3539",
"K  c #123534",
"L  c #1B3434",
"P  c #133835",
"I  c #1C3A35",
"U  c #123539",
"Y  c #1B373A",
"T  c #153D3B",
"R  c #1B3C3C",
"E  c #202E2E",
"W  c #2A3837",
"Q  c #223D3B",
"!  c #4F170E",
"~  c #56211A",
"^  c #61271E",
"/  c #572E25",
"(  c #672D28",
")  c #613121",
"_  c #13470E",
"`  c #045A04",
"'  c #075608",
"]  c #0D560C",
"[  c #04590B",
"{  c #09590D",
"}  c #164313",
"|  c #0A5816",
" . c #0A591A",
".. c #175718",
"X. c #2C4D19",
"o. c #354D1C",
"O. c #275418",
"+. c #345319",
"@. c #05620A",
"#. c #086817",
"$. c #146819",
"%. c #0E7216",
"&. c #18442C",
"*. c #0B5A23",
"=. c #0A5828",
"-. c #165B28",
";. c #0D4634",
":. c #15413C",
">. c #194639",
",. c #1C423C",
"<. c #0D5B36",
"1. c #135A34",
"2. c #17593A",
"3. c #314A2B",
"4. c #265926",
"5. c #254339",
"6. c #24423D",
"7. c #0C6423",
"8. c #186429",
"9. c #1A6539",
"0. c #187E32",
"q. c #226823",
"w. c #246938",
"e. c #2E743C",
"r. c #574329",
"t. c #4E4B34",
"y. c #60413B",
"u. c #153E41",
"i. c #1B3D41",
"p. c #203F40",
"a. c #0E4846",
"s. c #134443",
"d. c #1C4443",
"f. c #154945",
"g. c #1B4A46",
"h. c #154748",
"j. c #1C4649",
"k. c #134D4B",
"l. c #1B4C4B",
"z. c #14524C",
"x. c #14524D",
"c. c #19504B",
"v. c #185A48",
"b. c #155453",
"n. c #1B5453",
"m. c #155A56",
"M. c #1A5B56",
"N. c #155959",
"B. c #1A5A5A",
"V. c #234443",
"C. c #2B4544",
"Z. c #224A44",
"A. c #274A4C",
"S. c #2E4A4B",
"D. c #334A44",
"F. c #344C4C",
"G. c #26554C",
"H. c #37524E",
"J. c #294C51",
"K. c #245554",
"L. c #2B5452",
"P. c #245953",
"I. c #295957",
"U. c #245C59",
"Y. c #2D5D5B",
"T. c #345452",
"R. c #395A57",
"E. c #325B5A",
"W. c #186546",
"Q. c #1B7447",
"!. c #186755",
"~. c #246C47",
"^. c #2D7749",
"/. c #33744C",
"(. c #25615D",
"). c #2A6858",
"_. c #34635E",
"`. c #2C7451",
"'. c #1F5F62",
"]. c #2E5C60",
"[. c #236363",
"{. c #2C6463",
"}. c #236A65",
"|. c #2C6A65",
" X c #2D6C69",
".X c #326565",
"XX c #396465",
"oX c #346966",
"OX c #3A6965",
"+X c #346C6A",
"@X c #396A6B",
"#X c #30706B",
"$X c #37736A",
"%X c #3C7472",
"&X c #3C7878",
"*X c #584A41",
"=X c #4C5C4D",
"-X c #425D5A",
";X c #427A4C",
":X c #476867",
">X c #457977",
",X c #497C70",
"<X c #0A801C",
"1X c #1C8C2D",
"2X c #178432",
"3X c #28873A",
"4X c #2A963D",
"5X c #1CA637",
"6X c #18B037",
"7X c #22A639",
"8X c #23B03D",
"9X c #1D8649",
"0X c #238B46",
"qX c #319448",
"wX c #248A5A",
"eX c #3D835A",
"rX c #259654",
"tX c #27A745",
"yX c #28A653",
"uX c #428950",
"iX c #4C8B6D",
"pX c #569269",
"aX c #4A837B",
"sX c #548D76",
"dX c #7F966E",
"fX c #7C996E",
"gX c #619D7F",
"hX c #7C9773",
"jX c #7B9972",
"kX c #ABC07F",
"lX c #4C8281",
"zX c #4B8881",
"xX c #528382",
"cX c #578C8A",
"vX c #5B9588",
"bX c #64958B",
"nX c #669893",
"mX c #63A589",
"MX c #ABBF83",
"NX c #ACC083",
/* pixels */
"3.W M , 5 7 b M G G G G C G K s.b.N.xXC.        X i fXNXP.l         O O                                                         ",
"O O O ; 5 5 b m K G G G K G P s.b.N.%XJ.H K T.C.F x fXNXK.l N R :.T R R T T T T T T P :.:.P :.T P T :.P T T P T P :.T T T T T T ",
"- O + $ ; 5 8 m Z G G G G C G f.k.B.&X#X!.s.J.l.K x fXNXK.l K d.s.s.h.s.s.s.a.s.s.s.s.s.s.s.s.s.s.s.:.s.u.s.s.s.f.s.s.s.s.a.s.s.",
", , + # : 5 b l K K G G G G P s.N.B.#X[.n.a.J H c z dXNXK.k m H G H J J J J J U J J J J G J G G G G J J U K U J U U J J J H H H ",
"N N , % , 5 8 v Z K G G G G P f.k.B. X[.N.J.bX,XT.m dXMXK.k L.+X+X+XOXoXoX+X@X@X@X+XOX@X@X+XOXOXoXoX+X@X@X@X+X+X+X@X@X@X+X+X@X@X",
"K K v & , , v m K G G G K G H :.b.N.>X+Xn.h.Y.j.h n hXMXP.k i.K.h.K.j.T P.l.g.K.K j.K.h.n.l.C K.K.l.K.Y j.U.k.n.l.J n.K.h.n.T d.",
"G C n & 5 , 8 m Z G G G G G P g.k.N.lXR.x G c M M m dXMXP.k v N K c l B c Z c D m B z K x x b n D D m x F x D k m m Z N K N g F ",
"G K n # ; , n M K G G G G G G s.b.N.lXJ.x N N 8 ; m dXMXn.k ; 8 n n b 6 p l K u 8 1 p n n v 6 v m B u 8 > M n Z h g 8 4 B 8 b ; ",
"G K N = : , h v K G G G G G K h.k.m.lXS.m F x 2 5 n fXMXP.k + n Z i 1 1 4 A Z v 7 7 b Z n 7 5 , B K l 2 1 i A N 2 2 , N Z 8 7 5 ",
"G K N # # 5 v h K K G G G G G s.x.N.#XV.B N 8 9 j l fXNXP.x + n n i 8 8 8 B 4 v j 7 b Z 8 8 j h B 8 p 8 6 i B 4 9 h 8 B n v 7 9 ",
"G K N % 5 5 v v Z K K K K G G f.x.m.>XC.v 7 5 5 8 v fXNXP.k o b 6 1 = 8 8 h ; , 7 6 9 8 1 & 8 8 v , : 7 7 8 8 , ; 8 7 p 2 % & 7 ",
"K G N & , 5 h v K K G G G K P s.x.m.{.I 9 7 5 5 8 u jXMXP.k # j 8 5 = 7 9 j , : 6 5 9 8 = & 8 8 p 7 : 8 8 p 8 , ; 8 5 p , , , 7 ",
"G K n % # 5 b v K G G G G G K s.x.N.&XC.8 7 5 & 5 v fXNXP.l . 6 7 = 5 , , 7 , 5 = = 5 6 & & # , 8 , $ , , 5 7 & & & # 8 , , , % ",
"G G N & $ , v m K G G H G G U h.x.m.lXF., 5 5 5 $ b jXNXP.x o 5 , = = : $ & ; $ = & & & & : , & & & = = & & $ $ # & & $ ; & # , ",
"G K N # # 7 b v L K G G G G H s.n.N.xXF.# : 5 & , b jXNXP.k o 5 5 & 5 $ = & $ $ & & $ & # $ , # & & & = = = = $ 5 $ # 5 $ 5 5 & ",
"K K N & # , i v K K G K G G G l.k.N.lXF.# $ 5 # & l jXNXP.x # 5 = 5 : , 5 = = 5 = $ = & 5 5 $ 5 5 : = = 5 & 5 , # 5 = 5 # # $ , ",
"K K N # $ 5 b n K K K K K J G s.b.m.@XQ : $ $ $ 5 m hXMXP.k O 5 5 5 $ : $ 5 ; : 5 $ 5 = ; 5 $ 5 # 5 5 5 , , , & 5 5 : : : : 5 : ",
"G G N # = , 4 m K K K K G K K h.x.N.>XC.$ + + + # m hXkXP.k   . o + o . + . o o # . o . o o o .   o # + O O   o o + +   - + O + ",
"K G N , 5 , n M K L K G G G K s.b.m.{.L           m hXkXP.x                                                                     ",
"G K n & ; ; v m K K K G G K J g.x.m.oXd.z 3 y 1 X n hXkXP.x 3 k 3 l y % l y y u > i L Z N L S N l l < t y y y t t 0 0 0 0 q * < ",
"K G n , 5 , v n K K K G G G G h.b.N.aXoX>.,.,.I 4 N jXNXP.x I V.,.6.I Z V.g.R Z.n R._.R.E.XXE.J.V.Z.&.&.c.c.c.c.:.} r _ r r } L ",
"G G N & = , h m K L K K G K H f.x.N.lXT.n N z n 8 M jXMXU.x 8 l Z u l v l M B x v T.L D.S.J.f.p.,.Z K s.a.:.s.H a d Z Z Z < s 1 ",
"G K n # 5 5 8 n K K P G K K H s.x.m.lXF.v N n 8 # v hXNXI.x # h N n 8 2 h M L h 8 H.Z.>X&XlXxXcX).,XxXU.$X!.!. . .~.#XW.<.z s % ",
"K G c & 5 ; b m K K K K G G H f.b.N.>Xp.N Z m 8 v N hXMXK.k # B K n 8 9 j F D v 2 R.Z.%X%XxXcXcX/.iX>X%XzX#X~.` $.9.W.9.*.a s % ",
"G G N & , 5 h m K F K K K G G f.x.m.aXA.v v 7 7 4 n jXMXP.x # v M 2 7 7 2 M 3 8 2 T.G.&X[.xXbXiXG.vXcX XzX).9.`  .~.`.9. .a } % ",
"G G N % ; 5 b n K K G G G G U s.b.m. X,.b 2 : 7 b l fXNXP.x # i 4 , 7 8 8 9 , , 8 R.G.{.'.cX,XaXoXzX+X&X$X9.w.[ 9.9.1.w. .e s % ",
"G G N # ; 5 h v K K G G G G H f.b.N.|.I b j 5 5 2 n fXMXP.x % 8 4 , 5 5 5 b , ; , R.g.M.[.aXnXnX$XaXm.).~.8.`.^. .~.^.9.[ w s % ",
"K K n # 5 5 b v K K G K K G H s.b.B.>XD.7 5 5 5 : v jXMXP.x o , , 5 , 5 5 5 5 , 5 H.>.|.v.9.W.!.!.!.W.=.[ #.#.#.@.%.#.#.[ w r % ",
"K K N & & , 8 v K K G K K K H g.x.N.lXF.5 : 5 5 : n fXMXP.k o , & 5 5 : : , : : : V.,.).9.rXyXyXyXyXrX7.[ #.rXtX8X8X8X7X7.e d % ",
"G G n & , 5 b v K K P U K K H s.b.N.xXF.5 5 5 5 ; v fXMXP.k o 5 5 : = $ 5 : 5 : ; 6.Z 2.0XQ.;.g.<.&.3X0.[ 4X0.-.8.8.O.4X3Xe >.% ",
"K H c & : 5 h v N N K G U K K f.b.N.&XC.: 5 5 5 5 i fXkXP.k + = = 5 : 5 5 $ : : ; V.G <.9Xz.!..X-Xt.+.1X<X7X$.t.=X=Xt.t.4Xe 6.% ",
"G P N & 5 5 b v v v M N K K P d.b.N.@XV.: : 5 5 5 i fXkXP.k o 5 5 $ = 5 $ 5 : $ & &.V m.rXx.].B / y.+.7X5X6X+.*X! ~ y.y.uXw ,.% ",
"K G N & 5 5 h n v h m m n Z K h.b.N.>XC.= 5 , = & i fXNXP.l # 5 ; & , $ = & : : = s Z v.wX!.f.f ^ ) +.1X` 5X+.( ! ^ ( y.qXw ,.# ",
"G G m , 5 5 8 h h m 8 v v z P h.x.B.(.L 5 5 5 , & v fXNXP.l + 5 5 5 : = 5 : 5 : 5 S C M.wX9XD./ ) r.4.4X' 7Xq.r.) ( ( ;X1Xw d.% ",
"H K c ; 5 5 # 2 4 2 2 v v v N K h.b.>XC.= 5 & = = n fXNXP.x o 5 = 5 5 5 : = = : 5 Q G '.wXrXG.3.X.4.0X0.` 2X0X4.o.o.X.qX#.w 6.@ ",
"K K c , , # > Y R 3 - 8 % 7 h Q T a.lXF.$ : = = = i fXNXP.l o , 5 # 5 $ 5 5 $ : & I G B.W.0XtX6X5X5X2X| ` @.3X7X5X7X7X0.@.w 6.% ",
"N g x R T j.l.&X$Xj.V.s.c > - 4 c l.lXF.; $ = = = i fXNXP.k + 5 $ 5 5 $ $ : 5 $ = Q C v.*.4.$.%.%.%.O...O._ q.q.%.%.%.+.] q Q # ",
"c g.c.h.n.m.m.>X+XG u.b.b.A.I 2 x s.+XQ = 5 = & = i fXNXP.x # , 5 = : 5 5 = 5 : & R Z 1.[ O.O.O.o.X.r.t.+.+.3.X.O.O.+.o.O.q 5.# ",
"d.#Xb.k.{.N.b.B.B.n.b.B.B.I.T j.T R >XF.5 = = = = i fXNXP.x o 5 $ 5 : = = : $ : = 5.a | ` ] *...O.-.4.O.` ] .. .-.4.q...] q Q @ ",
"U #X[.b.T (.P.oXOXOXU.+XK.D j.N.V.i.>XF.5 = 5 = = n jXNXP.x o = $ , 5 $ 5 5 = : = I w ] [ 1.).v.pXgXpX4.' ] uX8.uXbXsX8.` q ,.# ",
"R %XlX{.M.f.C G N G c T T l.l..XD T @Xp.: : : ; & i jXNXP.z o & $ 5 : = , $ = = # d e ] 9.iX$X~.iX)...;X' 7.mXw.[ pX-.] | a ,.@ ",
"U G A.>X{.(.(.|.@X.XU.U.n.l.{.d.k R >XC.: : ; ; & v fXNXP.k # 5 5 $ $ 5 : = 5 : & d w 8.$XzX>X9.pX`.' qX[  .gXw.` pX-.| =.t Z.- ",
"d.d.Z c T I.).:XxX>X].Y.I.u.G ,.T Y .XQ : : 5 , , i jXNXP.l # & 5 : 5 : $ 5 : 5 # d w ~.aX&X(.| pX).-.eX7.8.iX-.' uX-.=.<.z R.# ",
"f.|.c F.F m K c z N l x V.H.T n.U T %Xp.5 5 = 5 & b jXNXP.l o & $ $ , = 5 $ , 5 & d w w.$X!.<.| sXsXsXuX^.w././.] ~.<.<.v.c T.# ",
":.#XY _.,.N ,.F L W A.M >X:XZ.B.T :.xXF.: 5 & = = v fXNXP.l o 5 5 & 5 : 5 : ; , & d a 1.1.<. . .e.;X;Xw.w.8. .e.[ 9.<.v.!.c R.@ ",
"c U.T T.P.Q L.R.E.S.].u.%XE.A.n.D A.lXF.: : 1 & & v jXNXP.l # 5 $ , : : ; 5 : : $ r a G.v.v.v.1. .' [ | { ] ] ] | -.1.v.m.c R.@ ",
"v P.P.Y.Y.R E.:X@XS.l.Y [.E.L.b.G s.aXD.$ + o # = v jXkXP.l   o $ + $ + # # + # . d * l y k y t 0 0 0 q w q q q t t k z k > T.X ",
"v P..XOXI.6.T.:X:XS.].U B.j.J.b.D l.oXW   .     o n jXkXP.l                       d s _ _ r _ s >.Z.j.Z.Z.Z.Z.Z.g.Z.A.R.R.XXR.O ",
"l P.{.Y.I.d.E.H.P.L.n.K N.h.d.n.G s.>XC.% @ @ X O v jXkXK.l X @ @ % @ @ > % - @ O % * * * * * * < 3 < > > 3 3 > 3 > 3 y g g > - ",
"v P.U.{.Y.d.].-XL.K.n.s.}.k.h.k.c l.{.I.Z.,.Z.I > v jXkXP.l L Z.;.Z.I N Z.,.:.Z.z R g.R j.R g A.j.d.A.D i.A.u.j.p.g C.j.U A.D Y ",
"v n.k.Y.].l.Y.S.j.J.oXk.}.b.h.f.x s.{.f.z C z l b i jXNXP.k v l Z z l M l c c B v A x F l n M l c N N m B u Z l x M m c Z c h F ",
"h c.h.U.).n.].S.l.J.{. X}.v.a.l.x n.{.R l N c h , i jXNXI.k ; h N n 8 7 v l L 4 9 2 v M B h 2 i u A u 8 1 b n S h 2 4 4 Z u b , ",
"4 j.s.n.oXn.{.I.n.{.%X(.{.s.f.u.v h.|.R b K m 8 4 v jXMXK.l - b K n 2 7 h N Z v 7 7 m Z l 7 8 2 B F i 6 7 i A N < 8 2 B Z u , 7 ",
"> l.T l.].l.{.P.n.P.oXs.P.s.:.c 2 g.%XC.B m g 8 8 u hXMXP.k # b n i 9 9 8 B 3 h 8 8 v z 8 9 h 8 B j 8 8 2 p B < 7 9 2 B v u 7 8 ",
"- ,.K g.Y.d.{.c.l.J.U.u.b.T T M 2 j.%XC.v 2 , , 8 i jXMXP.k # h 4 , ; 7 8 8 % , 7 7 j 8 , , p 8 b 2 = 6 6 p 1 % : 9 2 v 1 , 5 8 ",
", j.L s.A.d.K.T k.,.g.U l.F Y M 5 f.%XC.p 2 5 5 8 i jXkXP.u # v 4 , , 7 8 j 5 = 7 7 9 8 - , 8 8 p 5 5 1 6 p 6 & ; 8 < b , , 5 5 ",
"O ,.K R p.u.k.T h.I c.u.l.F U B > A..XQ 8 7 : = # v jXkXP.k o 6 2 ; ; & , 7 & , & & 5 5 , 5 , & 6 5 5 $ = , 5 , , : , 8 # , $ ; ",
"+ Q c c p.T l.T l.P c.T l.m l 8 7 u.{.L = $ : $ # v hXMXP.x + , ; ; 5 , & , & $ = & & & # = # 5 = = = $ $ , & ; : , ; : 5 $ : ; ",
"  A A L p.R j.R l.L c.T l.x n b 5 Y Y.L $ = : $ = v jXNXP.y # & ; ; = = & $ $ $ # = & & = & = 5 # = = # # , = = # = , # ; = # 5 ",
"  b v m K N d.Y H c f.T s.g n M # R >XD.$ 5 5 & $ n fXNXP.l X & : , = $ 5 , = = = & & = = = 5 # & = & & $ = # = : 5 $ = 5 5 $ & ",
"  - j B Q I G N ,.A G l :.g N v + U E.Q $ # & & $ v hXMXP.k o & $ & # = # 7 $ = & # & = & 5 # & # = = 5 & 5 $ = = # # # = , # 5 ",
"    8 B N Z R K G n Z B T F F - @ Y .XK # .     $ v hXNXP.l     O o o o o   + .     X o . o o o   . o     o .   o o     + o   . ",
"      3 n N K c d.B A B N 8 4   + v T.n           n hXNXP.k                                                                     ",
"# . +   7 v E 4 K b n B n , O # $ $ , @ .   o   o v dXNXP.k     X               o O           O       X o o O   o   .   .       "
};
