/* XPM */
static const char *bGV2ZWw4XzI_[] = {
/* columns rows colors chars-per-pixel */
"64 64 184 2 ",
"   c #020000",
".  c #0B0101",
"X  c #140000",
"o  c #1C0000",
"O  c #230200",
"+  c #2B0000",
"@  c #230C00",
"#  c #2C0B00",
"$  c #320301",
"%  c #3C0100",
"&  c #370F00",
"*  c #3C0900",
"=  c #231000",
"-  c #440100",
";  c #4B0000",
":  c #420900",
">  c #4B0C00",
",  c #550000",
"<  c #5B0100",
"1  c #500C00",
"2  c #4A1600",
"3  c #4C1A01",
"4  c #521200",
"5  c #5B1200",
"6  c #431414",
"7  c #491614",
"8  c #491914",
"9  c #630300",
"0  c #6B0300",
"q  c #690C00",
"w  c #750200",
"e  c #7B0200",
"r  c #730C00",
"t  c #780A00",
"y  c #631300",
"u  c #6C1200",
"i  c #631800",
"p  c #6D1C00",
"a  c #731400",
"s  c #7E1200",
"d  c #731B00",
"f  c #7E1E00",
"g  c #4B2700",
"h  c #4E3800",
"j  c #4B271A",
"k  c #662100",
"l  c #6E2500",
"z  c #662A00",
"x  c #6D2C00",
"c  c #732300",
"v  c #7E2200",
"b  c #742900",
"n  c #7D2B00",
"m  c #6F3000",
"M  c #663A00",
"N  c #753E00",
"B  c #772427",
"V  c #663A28",
"C  c #654600",
"Z  c #774300",
"A  c #65462D",
"S  c #654635",
"D  c #840200",
"F  c #8B0100",
"G  c #890F00",
"H  c #940100",
"J  c #9B0100",
"K  c #950F00",
"L  c #811500",
"P  c #8F1300",
"I  c #821C00",
"U  c #8C1D00",
"Y  c #951700",
"T  c #931E00",
"R  c #991D00",
"E  c #A30000",
"W  c #AA0000",
"Q  c #A41C00",
"!  c #832300",
"~  c #8C2400",
"^  c #832900",
"/  c #8B2C00",
"(  c #962500",
")  c #9C2400",
"_  c #932D00",
"`  c #9A2B00",
"'  c #833300",
"]  c #8B3400",
"[  c #8E3C00",
"{  c #913100",
"}  c #9E3200",
"|  c #933C00",
" . c #9D3B00",
".. c #A42400",
"X. c #AA2300",
"o. c #A02E00",
"O. c #A82C00",
"+. c #B52900",
"@. c #A13400",
"#. c #A43D00",
"$. c #AC3D00",
"%. c #BA3200",
"&. c #B33A01",
"*. c #BA3D00",
"=. c #902424",
"-. c #963E2A",
";. c #C03900",
":. c #CB3C00",
">. c #D13900",
",. c #8B4902",
"<. c #944300",
"1. c #9C4400",
"2. c #994800",
"3. c #8E5600",
"4. c #905500",
"5. c #995B00",
"6. c #A44600",
"7. c #AC4000",
"8. c #A34B00",
"9. c #AD4D00",
"0. c #B84500",
"q. c #BC4500",
"w. c #B34A00",
"e. c #A75400",
"r. c #AB5600",
"t. c #B25500",
"y. c #B75A00",
"u. c #B54617",
"i. c #976A00",
"p. c #C34300",
"a. c #CF4A00",
"s. c #D14900",
"d. c #CB5400",
"f. c #C45800",
"g. c #D75200",
"h. c #D35B00",
"j. c #EB4800",
"k. c #F45200",
"l. c #C56500",
"z. c #CB6400",
"x. c #C36A00",
"c. c #C97200",
"v. c #CA7C00",
"b. c #D47300",
"n. c #E16D00",
"m. c #EE7300",
"M. c #E47A00",
"N. c #E55024",
"B. c #BA6B48",
"V. c #A4794C",
"C. c #B86C5A",
"Z. c #A27A55",
"A. c #C57554",
"S. c #9A8E00",
"D. c #B59100",
"F. c #CA8900",
"G. c #C99E00",
"H. c #DE9B00",
"J. c #DB8110",
"K. c #E18A00",
"L. c #F48300",
"P. c #E49700",
"I. c #F69800",
"U. c #CBBF00",
"Y. c #F9A200",
"T. c #FEBC00",
"R. c #FFC000",
"E. c #E0D800",
"W. c #9C875B",
"Q. c #A6845C",
"!. c #B38E5A",
"~. c #9A8E6D",
"^. c #D18D49",
"/. c #C7895B",
"(. c #C99E5A",
"). c #CA896A",
"_. c #C99E69",
"`. c #F8C94D",
"'. c #CBC080",
"]. c #CBC095",
"[. c #F1CB9A",
"{. c #E0D992",
"}. c #E0D9A8",
"|. c #FFF4AC",
/* pixels */
"8 8 8 8 8 8 8 8 8 8 8 8 8 8 8 8 8 8 8 8 8 8 8 8 8 8 8 8 8 8 8 6 6 6 6 6 6 7 8 8 8 8 8 8 8 8 8 8 8 8 8 8 8 8 8 8 8 8 8 8 8 8 8 7 ",
"@.o.o.o.o.o.o.o.o.o.o.o.o.o.o.o.o.o.o.o.o.o.o.` o.o.o.o.o. ./ U , , , , < o.] #.o.o.` ` o.o.o.` o.o.o.o.o.o.o.o.o.o.o.o.o. .' ( ",
"/ ^ ^ ^ ^ ^ ^ ^ ^ ^ ^ ^ ^ ^ ^ ^ ^ ^ ^ ^ ^ ^ ^ ^ ^ ^ ^ ^ ^ 9 ~ v y , , , p v I ! ^ ^ ^ ^ ^ ^ ^ ^ ^ ^ ^ ^ ^ ^ ^ ^ ^ ^ ^ ^ ^ q ( f ",
"^ v v v v v v v v v v v v v v v v v v v v v v v v v v v v ^ ! ^ i , , , c @.a ^ v v v v v v v v v v v v v v v v v v v v v ^ a _ ",
"J W W W W W W W W W W W W W W W W W W W W W W W W W W W W e  .~ i , , , c L { F W W W W W W W W W W W W W W W W W W W W W D #.s ",
"W W W W W W W W W W E W W W W W W W W W W W W W W W W W W J { ! i , , , c P ^ W W W W W W W W W W W W W W W W W W W W W W E [ G ",
"W W W W W W W W W H i e 0 W E R J W W W W W W W W W W W W E { v i , , , c P ^ W W W W W W W W W W W W W W W W W W W W W W W [ G ",
"W W W W W W W W E > 9.#.% D 7.p.o.E W W W W W W W W W W W E { v i , , , c P ^ W W W W W W W W W W W W W W W W W W W W W W W [ G ",
"W W W W W W W W F b p.O.$ a I.v x H W W W W W W W W W W W E { v i , , , c P ^ W W W W W W W W W W W W W W W W W W W W W W W [ G ",
"W W W W W W W W e m p.0 % K.x.+ x H W W W W W W W W W W W E { v i , , , c P ^ W W W W W W W W W W W W W W W W W W W W W W W [ G ",
"W W W W W W W W D 2 , % A.^.$ - ] E W W W W W W W W W W W E { v i , , , c P ^ W W W W W W W W W W W W W W W W W W W W W W W [ G ",
"W W W W W W W W F )   <.[.,.3 T [ E W W W W W W W W W W W E { v i , , , c P ^ W W W W W W W W W W W W W W W W W W W W W W W [ G ",
"W W W W W W W W E 0 % h.d $ O ! <.J W W W W W W W W W W W E { v i , , , c P ^ W W W W W W W W W W W W W W W W W W W W W W W [ G ",
"W W W W W W W W E ; e U l %   ; d Y W W W W W W W W W W W E { v i , , , c P ^ W W W W W W W W W W W W W W W W W W W W W W W [ G ",
"W W W W W W W W 0 y - O g.b   o.d e W W W W W W W W W W W E { v i , , , c P ^ W W W W W W W W W W W W W W W W W W W W W W W [ G ",
"W W W W W W W F ,.`.@.2 <.5 O l *.H W W W W W W W W W W W J { v i , , , c P ^ W W W W W W W W W W W W W W W W W W W W W W W [ G ",
"W W W W W W W D J.|.M.* H.P o - ;.r W W W W W W W W W W W E { v i , , , c P ^ W W W W W W W W W W W W W W W W W W W W W W W [ G ",
"W W W W W W W D ..>.P p 0.9 ,   ) ~ H W W W W W W W W W W E { v i , , , c P ^ W W W W W W W W J W W W W W J W W W W W W W W [ G ",
"W W W W W W W E < ; i { R I f + 9 :.H W W W W W W W W W W E { v i , , , c P ^ W W W W W W W E Q.F W W W F W.E W W W W W W W [ G ",
"W W W W W W W W , O e ` :.*.< o ; %.H W W W W W W W W W W E { v i , , , c P ^ W W W W W W W E 7.Q.E W J Z. .E W W W W W W W [ G ",
"W W W W W W W W e o F ; w u o % X.^ H W W W W W W W W W W E { v i , , , c P ^ W W W W W W W E / r.B E B e.v E W W W W W W W [ G ",
"W W W W W W W W w % e e 9 %.l 9 %.I H W W W W W W W W W W E { v i , , , c P ^ W W W W W W W E d n V.E !.f i E W W W W W W W [ G ",
"W W W W W W W W 9 d e >.< 6.v.- X.&.H W W W W W W W W W W E { v i , , , c P ^ W W W W W W W E / d @.E &.d n E W W W W W W W [ G ",
"W W W W W W W W D _ < l.f., v.@.r a.H W W W W W W W W W W J { v i , , , c P ^ W W W W W W W W w Z e E w Z e W W W W W W W W [ G ",
"W W W W W W W W D ..< L P.9 Q b.> p.H W W W W W W W W W W E { v i , , , c P ^ W W W W W W W E 5.i.p H.N i.3.E W W W W W W W [ G ",
"W W W W W W W W E U U ; *.Q a %.- } H W W W W W W W W W W E { v i , , , c P ^ W W W W W W W E ] [ ] k.' ] ' E W W W W W W W [ G ",
"W W W W W W W W E F D % G %.K ] @ v W W W W W W W W W W W E { v i , , , c P ^ W W W W W W W E ! 4.9 ] y 4.I E W W W W W W W [ G ",
"W W W W W W W W W F F , ; @.h.I * I W W W W W W W W W W W E { v i , , , c P ^ W W W W W W W W J ' J E J ' E W W W W W W W W [ G ",
"W W W W W W W W W F F < % } h.- < E W W W W W W W W W W W E { v i , , , c P ^ W W W W W W W W W W W W W W W W W W W W W W W [ G ",
"W W W W W W W W W J e e $ ~ r i < W W W W W W W W W W W W E { v i , , , c P ^ W W W W W W W W W W W W W W W W W W W W W W W [ G ",
"W W W W W W W W W J Q +.% % + { 9 W W W W W W W W W W W W E { v i , , , c P ^ W W W W W W W W W W W W W W W W W W W W W W W [ G ",
"W W W W W W W W W H I j.> 9 % ! *.E W W W W W W W W W W W J { v i , , , c P ^ W W W W W W W W W W W W W W W W W W W W W W W [ G ",
"W W W W W W W W W F F s.s K ! - :.+.E W W W W W W W W W W E { v i , , , c P ^ W W W W W W W W W W W W W W W W W W W W W W W [ G ",
"W W W W W W W W W P $.&.@.0 ..% T 0.H W W W W W W W W W W E { v i , , , c P ^ W W W W W W W W W W W W W W W W W W W W W W W [ G ",
"W W W W W W W W W U q._ k.; F ; 9 P F W W W W W W W W W W E { v i , , , c P ^ W W W W W W W W W W W W W W W W W W W W W W W [ G ",
"W W W W W W W W W F j.P d.I w 5 % - J W W W W W W W W W W E { v i , , , c P ^ W W W W W W W W W W W W W W W W W W W W W W W [ G ",
"W W W W W W W W W F N.I ` 4 _ { + F W W W W W W W W W W W E { v i , , , c P ^ W W W W W W W W W W W W W W W W W W W W W W W [ G ",
"W W W W W W W W W J C. .; [ ` 1.> E W W W W W W W W W W W E { v i , , , c P ^ W W W W W W W W W W W W W W W W W W W W W W W [ G ",
"W W W W W W W W W =.B.~ 9 ..0 Q [ E W W W W W W W W W W W E { v i , , , c P ^ W W W W W W W W W W W W W W W W W W W W W W W [ G ",
"W W W W W W W W W -.&., o < ; H [ E W W W W W W W W W W W E { v i , , , c P ^ W W W W W W W W W W W W W W W W W W W W W W W [ G ",
"W W W W W W W W F u.0 $ . . X 9 t E W W W W W W W W W W W E { v i , , , c P ^ W W W W W W W W W W W W W W W W W W W W W W W [ G ",
"W W W W W W W H  .M.6.1 y.x.p b b.f. .{ , 9 W W W W W W W E { v i , , , c P ^ W W W W W W W W W W W W W W W W W W W W W W W [ G ",
"W W W W W W W F g.Y.n.^ L.I.7.q.I.m.e.[   $ E W W W W W W E { v i , , , c P ^ W W W W W W W W W W W W W W W W W W W W W W W [ G ",
"W W W W W W W H <.t.8.^ 8.9.[ | t.1.r.[   $ E W W W W W W E { v i , , , c P ^ W W W W W W W W W W W W W W W W W W W W W W W [ G ",
"W W W W W W W K * = 5 i @ # p > = > 2.[   $ E W W W W W W E { v i , , , c P ^ W W W W W W W W W W W W W W W W W W W W W W W [ G ",
"W W W W W W W O.* X x [ X X 2.4 X 4 r.[   $ E W W W W W W E { v i , , , c P ^ W W W W W W W W W W W W W W W W W W W W W W W [ G ",
"W W W W W W W O.* - x [ % $ 2.4 ; 4 r.[   $ E W W W W W W E { v i , , , c P ^ W W W W W W W W W W W W W W W W W W W W W W W [ G ",
"W W W W W W W O.* ; x [ % $ 2.4 ; 4 r.[   $ E W W W W W W E { v i , , , c P ^ W W W W W W W W W W W W W W W W W W W W W W W [ G ",
"W W W W W W W O.* ; x [ % $ 2.4 ; 4 r.[   $ E W W W W W W E { v i , , , c P ^ W W W W W W W W W W W W W W W W W W W W W W W [ G ",
"W W W W W W W O.* ; x [ % $ 2.4 ; 4 r.[   $ E W W W W W W E { v i , , , c P ^ W W W W W W W W W W W W W W W W W W W W W W W [ G ",
"W W W W W W W O.* ; x [ % $ 2.4 ; 4 r.[   $ E W W W W W W E { v i , , , c P ^ W W W W W W W W W W W W W W W W W W W W W W W [ G ",
"W W W W W W W +.: - ^ $.% $ q.5 ; 5 y.[   $ E W W W W W W E { v i , , , c P ^ W W W W W W W W W W W W W W W W W W W W W W W [ G ",
"W W W W W W W d.2 ; 5.v.% $ K.k ; z c.[   $ W W W W W W W E { v i , , , c P ^ W W W W W W W W W W W W W W W W W W W W W W W [ G ",
"W W W W W W W F.g ; S.U.% $ E.M ; C G.[   $ W W W W W W W E { v i , , , c P ^ W W W W W W W W W W W W W W W W W W W W W W W [ G ",
"W W W W W W W ).j ; ~.].% $ }.V ; S _.[   $ E W W W W W W J ] ! i , , , c P ^ W W W W W W W W W W W W W W W W W W W W W W E [ G ",
"J E E E E E E /.j ; W.'.% $ {.V ; A (.[   + E E E E E E E t  .! i , , , c L } D E E E E E E E E E E E E E E E E E E E E E D #.s ",
"^ ^ ^ ^ ^ ^ ^ D.g ; S.U.% $ E.M ; C G.[   @ n ^ ^ ^ ^ ^ ^ n ! ^ i , , , c @.u ^ ^ ^ ^ ^ ^ ^ ^ ^ ^ ^ ^ ^ ^ ^ ^ ^ ^ ^ ^ ^ ^ ^ u _ ",
"/ f f f f f f w.> ; 2.z.% $ n.i ; k z.[   O f f f f f f v q ~ ! 5 , , , p v I ^ f f f f f f f f f f f f f f f f f f f f v q ( f ",
"} } } } } } } $.: ; n 6.% $ w.5 ; 5 t.[   # } } } } } } }  .{ U , , , , , o.]  .} } } } } } } } } } } } } } } } } } } } }  .] ( ",
"$ $ $ $ $ $ $ x : ; x <.% $ 2.4 ; 4 r.[   . $ $ $ $ $ $ $ $ $ $ $ $ $ $ $ $ $ $ $ $ $ $ $ $ $ $ $ $ $ $ $ $ $ $ $ $ $ $ $ $ $ $ ",
"@.@.@.@.@.@.@.#.* ; x [ % $ 2.4 ; 4 r.[   # } @.@.@.@.@.@.@.@.@.@.@.@.@.@.@.@.@.@.@.@.@.@.@.@.@.@.@.@.@.@.@.@.@.@.@.@.@.@.@.@.@.",
"R.R.R.R.R.R.R.P.% - x [ % $ 2.4 ; 4 r.[   h T.R.R.R.R.R.R.R.R.R.R.R.R.R.R.R.R.R.R.R.R.R.R.R.R.R.R.R.R.R.R.R.R.R.R.R.R.R.R.R.R.R.",
"q.q.q.q.q.q.q.w.i a ' <.u y 8.c a c r.[   & 0.q.q.q.q.q.q.q.q.q.q.q.q.q.q.q.q.q.q.q.q.q.q.q.q.q.q.q.q.q.q.q.q.q.q.q.q.q.q.q.q.q.",
"$ $ $ $ $ $ $ 3 ^ ^ n x ^ ^ x n ^ ^ <.[   . $ $ $ $ $ $ $ $ $ $ $ $ $ $ $ $ $ $ $ $ $ $ $ $ $ $ $ $ $ $ $ $ $ $ $ $ $ $ $ $ $ $ "
};
