/* XPM */
static const char *bGV2ZWwx[] = {
/* columns rows colors chars-per-pixel */
"64 64 256 2 ",
"   c #030304",
".  c #080506",
"X  c #0E0F03",
"o  c #070909",
"O  c #0E0E0E",
"+  c #120E03",
"@  c #1B0D03",
"#  c #110E0E",
"$  c #1B0F08",
"%  c #0E1203",
"&  c #0A1608",
"*  c #0D120D",
"=  c #121103",
"-  c #1D1204",
";  c #11120C",
":  c #151A0D",
">  c #050C10",
",  c #0F0F10",
"<  c #100F11",
"1  c #0E1212",
"2  c #091717",
"3  c #0D1A14",
"4  c #0B1C1B",
"5  c #101111",
"6  c #121C13",
"7  c #1B1C13",
"8  c #121619",
"9  c #141C1C",
"0  c #191D1D",
"q  c #220E02",
"w  c #2B0E03",
"e  c #350E05",
"r  c #241304",
"t  c #2C1205",
"y  c #2D140A",
"u  c #281809",
"i  c #331205",
"p  c #3A1304",
"a  c #331309",
"s  c #381808",
"d  c #321713",
"f  c #19230F",
"g  c #0D2317",
"h  c #0D231B",
"j  c #142418",
"k  c #13231C",
"l  c #1A231D",
"z  c #34240B",
"x  c #24251B",
"c  c #382418",
"v  c #0C1C21",
"b  c #161E21",
"n  c #0D2523",
"m  c #0D2B28",
"M  c #142323",
"N  c #1A2222",
"B  c #132A25",
"V  c #1B2B24",
"C  c #16262A",
"Z  c #132C2B",
"A  c #1A2D2B",
"S  c #0D322B",
"D  c #14332D",
"F  c #1E3428",
"G  c #1A322C",
"H  c #162F31",
"J  c #0E3536",
"K  c #0D3639",
"L  c #0C3938",
"P  c #143534",
"I  c #1A3534",
"U  c #153934",
"Y  c #1A3B35",
"T  c #123639",
"R  c #143C3B",
"E  c #1A3C3B",
"W  c #272924",
"Q  c #332A25",
"!  c #263529",
"~  c #35392B",
"^  c #263A35",
"/  c #373836",
"(  c #323A3A",
")  c #560E04",
"_  c #431305",
"`  c #4D1403",
"'  c #461808",
"]  c #541203",
"[  c #5A1103",
"{  c #581906",
"}  c #481C12",
"|  c #641B05",
" . c #681C08",
".. c #48230A",
"X. c #592608",
"o. c #492614",
"O. c #562915",
"+. c #483319",
"@. c #59311C",
"#. c #682609",
"$. c #772609",
"%. c #7A260C",
"&. c #7B280C",
"*. c #77340B",
"=. c #652A17",
"-. c #732B10",
";. c #6A351A",
":. c #773717",
">. c #4D3529",
",. c #633826",
"<. c #23541E",
"1. c #1F5921",
"2. c #0D443D",
"3. c #17423C",
"4. c #32522C",
"5. c #28453D",
"6. c #38443B",
"7. c #166C34",
"8. c #286F2C",
"9. c #50471C",
"0. c #72441D",
"q. c #706D1D",
"w. c #494A2E",
"e. c #49473A",
"r. c #524E30",
"t. c #564538",
"y. c #684426",
"u. c #724724",
"i. c #715036",
"p. c #597035",
"a. c #6D6E38",
"s. c #1A3E42",
"d. c #213F43",
"f. c #134545",
"g. c #1B4342",
"h. c #164946",
"j. c #1D4946",
"k. c #1D4A4A",
"l. c #19524C",
"z. c #185858",
"x. c #234444",
"c. c #274A44",
"v. c #22494A",
"b. c #394845",
"n. c #29534B",
"m. c #365649",
"M. c #295956",
"N. c #365C56",
"B. c #355C5A",
"V. c #395D59",
"C. c #16704F",
"Z. c #2B6656",
"A. c #34625A",
"S. c #1E5F60",
"D. c #296565",
"F. c #346564",
"G. c #3B6C67",
"H. c #356B6A",
"J. c #38726B",
"K. c #3B726D",
"L. c #306F72",
"P. c #377370",
"I. c #3B7472",
"U. c #454A42",
"Y. c #505A46",
"T. c #675846",
"R. c #506E52",
"E. c #6F6A51",
"W. c #687957",
"Q. c #446A62",
"!. c #467A6A",
"~. c #467977",
"^. c #537D76",
"/. c #797C65",
"(. c #8A2D05",
"). c #842909",
"_. c #8C2E09",
"`. c #8D320A",
"'. c #88340A",
"]. c #9B3504",
"[. c #9A3806",
"{. c #963608",
"}. c #8C3512",
"|. c #A23706",
" X c #8F5017",
".X c #A6450C",
"XX c #BB4609",
"oX c #A94916",
"OX c #B25216",
"+X c #B86C1A",
"@X c #854627",
"#X c #835135",
"$X c #A95630",
"%X c #9A6433",
"&X c #AE6B31",
"*X c #C8480B",
"=X c #D3490A",
"-X c #D44C0B",
";X c #C7510E",
":X c #C64C12",
">X c #D54D11",
",X c #CF5715",
"<X c #ED5B0A",
"1X c #F45A08",
"2X c #F45B0A",
"3X c #EB5A13",
"4X c #D06A1D",
"5X c #DA6523",
"6X c #CE7028",
"7X c #94744F",
"8X c #278939",
"9X c #33863F",
"0X c #508536",
"qX c #699332",
"wX c #23924B",
"eX c #29A24A",
"rX c #5E9756",
"tX c #568368",
"yX c #52896F",
"uX c #568575",
"iX c #6A8A6F",
"pX c #75977A",
"aX c #D68230",
"sX c #E89336",
"dX c #DFA43C",
"fX c #A39253",
"gX c #8F9370",
"hX c #89AB77",
"jX c #A7B06E",
"kX c #E79847",
"lX c #CFAD58",
"zX c #EAA544",
"xX c #F0B74A",
"cX c #EEDD66",
"vX c #F4D768",
"bX c #4A8181",
"nX c #588887",
"mX c #689986",
"MX c #6E9389",
"NX c #6A9694",
"BX c #769B96",
"VX c #739C9A",
"CX c #74A38F",
"ZX c #89A887",
"AX c #9AB88A",
"SX c #91AB92",
"DX c #91A998",
"FX c #98B797",
"GX c #B2B58C",
"HX c #B3CC8E",
"JX c #B8D794",
"KX c #ABCAA5",
"LX c #C6CB97",
"PX c #DDEE97",
"IX c #D3ED98",
"UX c #D5F0A4",
/* pixels */
"J L L L K K K K L L K K K K K K J J K K K K K K K K K T T K L K T T T T K L T T K K T T J J J J K K T J J J T J T T T L K T T T ",
"k.k.k.k.k.k.v.v.k.k.v.k.k.k.k.k.k.k.v.k.k.k.k.k.k.k.k.v.v.v.j.k.j.x.c.x.j.j.j.v.v.v.v.v.v.j.x.x.j.v.v.j.j.x.v.j.j.v.v.k.k.k.v.x.",
"H.H.F.H.H.H.F.B.H.H.H.H.F.H.F.H.H.F.H.H.H.F.F.F.H.H.H.A.B.N.N.N.N.N.N.N.N.N.N.B.N.N.V.V.N.N.N.N.N.B.N.N.N.N.V.N.N.N.V.N.N.G.K.F.",
"R R Z g.3.R P C g.2.R T T f.R g.T P f.R f.S v P g.T k.F X.*.-.} p -.:.X.e p X.:.#.' p *.*.{ t s X.*.X.p ' *.*.' i ..X.-.X.e.K.f.",
"B M M M B B M M n m M M M M Z n M M M Z n M 0 0 B M U >..XzXaX].{.,XsX;X).).OXzX6X_.{.5XsXXX&.'.,XzXOX).|.6XaX|.).{.6XkX.Xi.K.f.",
"A 3 1 8 V G 9 2 9 Z Z 9 1 0 D B 8 1 9 D n 4 1 0 V M 5.t.{.dXaX)..XsXvX6X{.%.OXzX4X&..XxXvX,X'.$.OXzXOX&.;XxXxX;X).&.6XsX[.i.K.f.",
"M k k 9 A M 9 0 M D M 8 9 M D M 0 9 M D M 3 0 1 9 M ^ ! p .X'.p $.aXvX+X| e X.OX-.p *.dXvX.X] i #..X{ p {.xXxX.X_ i *.oX_ b.P.f.",
"2 3 3 4 M 2 8 8 9 Z 3 8 8 9 M 1 8 8 N N 8 1 3 1 1 1 U Z $ s i + i {.aX*.w + - ..r $ p OX6X| q + - s @ @ ' +X4X{ @ = t s + ( K.f.",
"1 1 N k 8 , 1 l N 1 1 1 0 N 8 * 5 l 0 8 1 5 0 9 9 1 E ! a @ i s w ` $.p w ' e @ a _ w | %.w t s q - s a q #.#.w i p @ q s e.K.f.",
"5 1 8 8 0 O 5 8 8 0 1 1 5 9 9 * 5 8 0 9 1 5 5 1 8 N c.>.] ` ] ] ] ] [ ` ` [ ] ] ] ) ` [ [ ` ] [ ] ` ] [ ` [ [ ` ] [ ` ` ] t.K.f.",
", O < < 1 * * 1 1 5 1 O O 1 * O O * 1 1 * O O * 1 M U y.].].].].].].[.].|.[.|.|.].].].].].].|.|.].|.].[.].[.[.[.].].].[.].i.K.f.",
"O O , , O O O 1 1 1 , O O O O O O O * 1 * O O O 0 M c.%X3X<X<X<X<X<X<X<X<X<X<X<X<X<X<X<X<X<X<X<X<X<X<X<X<X<X<X<X<X<X<X<X<X&XG.f.",
"O * O , * O O , , , O O O O O O O O 1 1 1 O O O 8 M c.&X3X2X2X2X2X2X2X2X2X2X2X1X2X2X2X2X2X2X2X2X2X2X2X2X1X2X2X2X2X2X2X2X2X&XK.f.",
"5 5 ; 5 5 5 5 5 5 5 5 5 5 O 5 5 O 5 5 1 5 < < < 5 M ^ %X*X=X-X-X=X>X*X=X>X-X=X=X=X=X-X-X=X*X=X=X>X>X=X=X-X=X>X>X=X=X=X>X=X$XK.f.",
"O O O # O , O O O , O # O O O # # # O # O O < O , * V u.:X;XXXXX*X*X;X;XXXXX:X:X:X;XXXXX*X;X:X;XXXXX:X:X*X*XXX*X:X;X*X*X*X%XJ.f.",
". . o . . . . o o o . . . o . . . . . . . . # o O O ^ i.].].].].].].].].].[.].].[.[.[.[.[.[.[.[.[.[.[.[.[.].].].].].].].].#XK.f.",
"                                              o   o l y.].].[.].{.{.[.[.].[.[.[.[.[.[.[.].].[.].].].[.[.].].].].].].].[.[.#XK.f.",
"Z Z 2 Z m B n 2 P m B n 4 Z n Z n v H n Z h 4 P m P M ;.(.(.`.`.(.`.(.(.`.{.(.`._._.`.`.(._.(.(.`.`._._._._.`.`.(.(._.(._.i.K.f.",
"E s.C x.g.E P A x.g.E I I E R g.T I g.E g.Z I g.f.g.Z O.%.%.&.%.%.&.%.%.%.&.%.%.&.%.%.%.%.%.%.%.%.%.%.&.&.$.&.%.%.%.%.%.%.i.K.f.",
"m M M M B m M M M m B N M n Z M M M M Z n M b M B M M d #.#.| |  .| #.#.| | %.%.%.%.%.%.&.%.%.%.&.%.$.$. . .| |  . .| |  .t.J.f.",
"P 3 1 3 A P 4 5 9 m Z 9 1 9 Z Z 8 2 9 G M 9 2 k S h 8 d ] ] ] ] ] ] ) ] ] | &.%.&.&.$.%.%.&.%.&.$.$.&.%.[ ] ] ] ] ) ] ] ] t.K.f.",
"M M M 9 H C 9 N M D B 0 0 M P M b b N G M 9 b V Z M b d s _ _ _ _ _ _ ' p %.:X].{.`.`.`.`.`.}.}.}.'.}.{.:X{. .` ' ' _ _ _ e.K.f.",
"1 1 3 8 M 8 8 3 4 Z 8 8 8 3 M 2 1 1 0 M 3 1 1 M k 1 8 u t i i a i i i i p ).3XXXoXoX{.}.u.y.y.y.u.u.r.u.5X,X.X=.t i a y y 6.I.f.",
"5 1 N 0 8 1 5 N 9 1 5 5 9 N 8 1 5 N 0 1 1 1 0 N 1 1 3 7 $ @ @ - @ q +.;.$X,X<X|.{.0.0.y.r.w.n.e.e.e.r.y.%.#.' e @ @ @ $ @ 6.I.f.",
"O 1 5 8 0 , 1 1 3 0 1 1 5 9 0 1 1 8 0 0 1 1 1 0 0 1 5 % % = = + = = r r ' }.4XoXi.T.E.r.m.n.z.z.n.n.6.o.} p + + = = = = % 5.I.f.",
"5 5 5 1 1 * 1 1 1 1 1 5 5 1 1 1 1 * 1 1 , # * * 1 < 5 % + + % X /.% - - = 6.W.R.n.M.m.n.z.z.z.z.z.z.T ! l 7 % X % % % % % 5.P.f.",
"5 5 5 1 1 1 1 5 5 5 1 5 5 5 1 1 1 * O O # # * * < < 5 % + + % = 7 @ i.T.x c.bX~.H.I.D.L.D.D.D.S.D.f.J Z l k 6 X X = % % = 6.J.f.",
"5 5 5 1 1 1 5 5 5 5 5 5 5 5 5 1 1 O , , O O O O < < 5 % + + X = = _ %X;./.m.S.Z.S.S.D.f.s.z.z.l.2.2.S n G g = X % % % = @ b.K.f.",
"5 5 5 1 1 5 5 5 5 5 5 5 5 5 5 1 5 O # O O O O # 1 1 ; % % + + % - *.vX&X_ 5.bXuXL.L.~.M.v.j.v.R k.l.B B M l 3 % % + = - y 6.K.f.",
"5 5 5 1 1 5 ; ; 5 5 5 5 5 5 5 1 5 O # # O O O O , 1 5 = % + + % - *.vX&X' r.tXwXC.C.7.7.4.+.c ! 4.w.Q V W +.9.1.<.o.r r a U.K.f.",
"5 5 5 5 5 5 5 5 5 5 5 5 5 5 5 5 5 O O O O 5 O O 1 1 5 = = = = % t.X.lX%Xo.i.fXeXC.C.wXwXR.y.o.w.R.y.+.l x 0.a.9X0Xy.p a a 6.I.f.",
"5 5 5 5 5 5 5 5 5 5 5 5 5 5 5 5 5 O O O 5 5 O O 1 1 5 = = + + + E.w #.o.l Y.pXrX7.S P P E G G k B M k B U j * % % + t i a b.I.f.",
"5 5 5 5 5 5 5 5 5 5 5 5 5 5 5 5 5 O O O O 5 5 5 1 5 # ,.@X..=.,.+ = y x 5.2.Z.iXK Z T g.P U Y B k j h B I k ; + = r i i a 6.I.f.",
"5 5 5 5 5 5 5 5 5 5 5 5 ; 5 < < 5 O O O O O 5 5 * ; 5 ,.:.X.=.,.+ % W 6.n.3.h.R P H Z P ! b.G V l k k B I k : + @ y a i a 6.K.f.",
"5 5 5 5 5 5 5 5 ; ; 5 5 ; ; < # 5 O # # O O 5 5 * * 1 + q #.X.@ % ~ t.U.m.f.h.f.n k V ^ T.e.^ k M l k h Z k % % y a i i y 6.I.f.",
"O O O O O O 5 5 * * O 2 * * 5 ; 5 5 5 5 O O O O O * 1 + X.lXfXp 7 e.gXgXU.k.f.P k M V r.GXE.W M k k l Z ^ 6 X u i i a t @ 5.P.f.",
"O O O O O O 5 W N.iXW.c.iX* ; 5 5 5 5 5 O O O O O O 5 = #.cXlX_ x E.LXE.e.k.3.k k h B W.LXa.W j l l 9 M V = + t i a a t + 5.P.f.",
"O O 5 5 O O 5 ^ NX^.iXpXA.ZXf ; 5 1 1 5 5 5 5 5 O O 5 $ X.vXlX+.^ T.GX7X>.k.B l l l F T.GXw.W j j 6 l l & + y i i i a @ % 5.P.f.",
"O O 5 5 O O 5 ( BXVX^.G.CXA.ZX~ 7 * 1 1 5 5 5 5 O 1 1 + i  X0.~ D U.#X;.^ U l l h j Y Y.T.W l j gXl 9 6 % r a i i a - + X 5.J.f.",
"O O 5 5 O O 5 ( BXVXVXnXG.FXZ.iXiX1 1 1 5 5 5 5 O 1 1 O = ' >.l G ! } Q 3.h l l l k B V ~ ^ g.k x : % % + t s i t r @ + X 5.P.f.",
"O O O O O O 5 ( VXVXVXVXnXG.tXK.!.6.1 5 5 5 5 5 5 5 1 * g V N.5.x.2 ^ 3.3.* ; j l k M l B D.D.m l ; % % y i i i y + + + X 5.P.f.",
"O O O O O O 5 ( VXVXVXVXnX!.UXtXHXjX* 5 5 5 5 5 5 1 1 V n.Q.~.K.l.U h.h.S : x e.U.V 9 9 Y ~.bX5.6.= % r a i s a q X = = + 6.I.f.",
"5 5 5 5 5 1 1 ( DXZXBXVXnX!.JXtXAXgX# ; ; ; 5 5 5 5 * * 4 D ^.^.l.h.f.2.Z 3 ~ gXE./ B l k M.M.n gX= $ y i i t r = = % = @ b.H.f.",
"5 5 5 5 5 5 1 ( KXJXAXBXNXK.uXI.^.W.; ; ; 5 5 ; 5 O ; * l I A.!.3.Q.n.J H l T.LXgX( k & = U U 3 + + r i i i y @ % = = = y 6.J.f.",
"O # O O O O O ( CXFXJXGXBX!.mXI.uXgXO # # O O O O O # * k G ^.Q.f.pX6.R.F 7 E.HXE.~ j x Y.3 h % = - t i i a q = = = = r a e.J.f.",
". . . . . . . ^ FXBXSXLXMXK.hX!.pXW.. .     . . . . . 8 l V 3.f.f.R m pX! M 6.gXW.x & ~ /.: 4 = @ i } } p w = @ = = q y a 6.J.f.",
"              ^ FXFXSXBXNX!.UXtXKXjX                  6 7 * 5.f.2.S h S h h V w.c - X l k g 3 + t o.O.O.i @ % % + @ y a y 6.K.f.",
"D G > 3 I S U n.FXHXAXFXnX!.ZX!.mXtXY Z U n > B I D Y ~ o.;.a.wXwX8X8XwX8X8X8Xp.;.;.@.V n g k r s o.O.' @Xp.8X8.y.' y i a e.I.h.",
"P I M 8 Y P R A.JXcXJXSXnX!.mXK.uXpXU E U m 9 Z I P j.~ s O.p.wX7.0XeXeX0X8.8.w.+.@.o.A n 6 7 z O.@.} i @.4.8.8.y.' i i i e.K.h.",
"Z M 9 1 N b n A.DXJXPXIXpX!.yXK.!.R.M Z M M 3 M A n E Z + + ! R B z <.1.+.: j j & 5 m.D Z j +.y.=.;.O.( V.x.Z 7 y a i p ` T.K.f.",
"D 2 1 1 N N C ~.BXZXHXPXpX!.JXtXAXgX0 P A 3 2 0 N M x.Y o o B D h % & j : l j ; 6 n.l.J D @.:.7XfX@Xc Y v.E l u i i i _ -.i.K.f.",
"n M N 1 1 8 M F.KXHXhXZXMX!.IXtXHXjXN D M 9 N 1 5 M U 3.E A.3.B m.^ ; j j j l * m.j.L P V @.@X#Xy.o.W P P B ; y a p i { %.i.K.f.",
"2 1 1 1 1 1 M F.BXHXLXZXMXG.tXK.tXY.0 k 2 1 1 1 5 1 Y D.NXpXZX2 h 3 * 4 k M 2 D v.L T A c o.=.O.@.x D P M = y p u u { $.).#XJ.f.",
"1 1 N 1 0 1 B F.BXBXFXUXpX!.CXJ.uXZX0 1 1 8 0 8 0 1 Y M.NXKXQ.M.M.P c.m.k Y M.g.U P G x @.O.=.O.z V A 2 % c o.o.Y.p.+XoX|.%XK.f.",
"1 5 1 1 5 1 A I.VXBXmXuXnXG.uXJ.yXY.9 9 1 1 5 , 1 N c.k.G.G.l.l.h.T J ZX! P L P Z & ; y o.o.o.i = ; % % - z z z z #.'.OX+Xa.J.f.",
"1 1 1 5 5 8 M F.VXVXnXnXnX!.IXtXHXjX* 1 1 1 5 5 8 M Y D A 2 6 & : Z P D k l k j 3 = t s O.O.p q = + = = o.w.4.4.-.OX Xq.qX0XJ.h.",
"5 5 5 5 0 b A ~.VXNXnXnXnX!.JXtXAXgX, 1 5 5 5 5 0 M n.5.* * ; % % 3 k D 4 1 * 3 3 @ i i i e r = = = + r i t u s  .%.'.#.O.e.K.f.",
"5 5 5 5 1 N M ~.NXNXnXbXnXK.yXK.!.W., 5 5 5 5 5 8 h c.^ % % % % = l V V V k k M l s e i a y = = = = @ i p a e { )._.).$.] t.J.f.",
"5 5 5 5 5 1 3 G.bXnXbXI.nX~.mXI.yXpX< 5 1 5 O 5 O 9 ^ ^ = ; = X + % ; 6 O * ; % - s p a a @ + = = $ y i i i _ -.&.'.%.| ] t.K.f.",
"O O 5 O # O > n.F.nX~.I.nX!.hX!.pXiXO O O O O O O O I Y n n n n M k k k k k 9 l W x x l x k h k k M W x x x c >.@.o.>.c Q / M.3.",
". . o O o o > n.d.^.nX~.nX!.IXtXHXjX. .     O o o O ^ 3.T P P P U P P P P P T T U U P P U P P P P P P I I I I I I I P P I Z B H ",
"      o .   . A x.l.F.^.NX!.hX!.pXW.          . . . M Z 4 4 4 4 4 4 4 4 4 4 4 4 4 4 4 4 4 4 4 4 4 4 4 4 4 4 4 4 4 4 4 4 4 4 4 > ",
"o o o O o o o 3 x.H.M.F.bX~.mXI.uXgXo o O O O o O O 1 1 O O o o o O o o O O O O o O O o O O O O O O O O o o o o O O O o o o o o ",
"l 8 1 1 8 l 0 1 c.B.H.S.M.x.m.k.m.e.8 8 M N 1 8 M 0 9 1 8 8 9 l 1 0 8 3 M 1 0 0 8 8 1 0 0 9 8 < b N 9 1 5 9 N N 8 8 0 0 b 1 1 9 "
};
