/* XPM */
static const char *bGV2ZWw4XzE_[] = {
/* columns rows colors chars-per-pixel */
"64 64 251 2 ",
"   c #020000",
".  c #0C0000",
"X  c #000E0C",
"o  c #130000",
"O  c #1C0000",
"+  c #140800",
"@  c #060D12",
"#  c #00001D",
"$  c #1A0414",
"%  c #00181B",
"&  c #250000",
"*  c #270505",
"=  c #2C0000",
"-  c #330000",
";  c #3D0100",
":  c #370902",
">  c #291300",
",  c #321500",
"<  c #3C1A01",
"1  c #2F0919",
"2  c #351B1B",
"3  c #00251E",
"4  c #0A3016",
"5  c #392A19",
"6  c #000024",
"7  c #010429",
"8  c #0E1628",
"9  c #000134",
"0  c #01053C",
"q  c #00183B",
"w  c #220021",
"e  c #2B042A",
"r  c #390128",
"t  c #32172B",
"y  c #2A0137",
"u  c #380436",
"i  c #002827",
"p  c #0F352D",
"a  c #002639",
"s  c #013437",
"d  c #003A3A",
"f  c #212121",
"g  c #2E2B27",
"h  c #2F2A35",
"j  c #383736",
"k  c #440100",
"l  c #4B0100",
"z  c #410800",
"x  c #4A0F00",
"c  c #4F000F",
"v  c #550000",
"b  c #5C0000",
"n  c #5A0705",
"m  c #550B00",
"M  c #481800",
"N  c #551600",
"B  c #591B02",
"V  c #4A0215",
"C  c #52181A",
"Z  c #640000",
"A  c #6C0000",
"S  c #6A0506",
"D  c #730000",
"F  c #7B0000",
"G  c #7E0B00",
"H  c #671802",
"J  c #771703",
"K  c #790414",
"L  c #641B1B",
"P  c #462100",
"I  c #4B2200",
"U  c #5A2500",
"Y  c #562800",
"T  c #5A2800",
"R  c #553904",
"E  c #492519",
"W  c #632600",
"Q  c #6B2C00",
"!  c #742700",
"~  c #7C2600",
"^  c #732900",
"/  c #7B2900",
"(  c #643100",
")  c #6A3400",
"_  c #753600",
"`  c #6C2A17",
"'  c #4D0B2E",
"]  c #68022D",
"[  c #720E2B",
"{  c #52382E",
"}  c #6B352F",
"|  c #00421D",
" . c #044F30",
".. c #004938",
"X. c #2E5139",
"o. c #08693C",
"O. c #327239",
"+. c #574308",
"@. c #734E00",
"#. c #6F6300",
"$. c #524836",
"%. c #6A5034",
"&. c #000049",
"*. c #08054A",
"=. c #0A0F4E",
"-. c #16034A",
";. c #000055",
":. c #03005A",
">. c #011655",
",. c #290245",
"<. c #350042",
"1. c #380041",
"2. c #380052",
"3. c #012845",
"4. c #033B48",
"5. c #002756",
"6. c #0D3050",
"7. c #302D42",
"8. c #000062",
"9. c #00006A",
"0. c #060075",
"q. c #00007E",
"w. c #0D107A",
"e. c #00336F",
"r. c #313066",
"t. c #481150",
"y. c #522458",
"u. c #0A4B48",
"i. c #004A59",
"p. c #005555",
"a. c #005A54",
"s. c #325346",
"d. c #0A6E49",
"f. c #006354",
"g. c #006B54",
"h. c #007353",
"j. c #007B54",
"k. c #067A58",
"l. c #317546",
"z. c #004767",
"x. c #005166",
"c. c #32496D",
"v. c #434444",
"b. c #464B48",
"n. c #55494C",
"m. c #555555",
"M. c #565E5A",
"N. c #5D5F5F",
"B. c #626262",
"V. c #830000",
"C. c #8B0000",
"Z. c #8A060A",
"A. c #8E0E0E",
"S. c #930100",
"D. c #9A0100",
"F. c #960E00",
"G. c #A30000",
"H. c #AA0000",
"J. c #A0010A",
"K. c #B30000",
"L. c #BB0000",
"P. c #B30B05",
"I. c #AE1709",
"U. c #862800",
"Y. c #932E00",
"T. c #9A2900",
"R. c #883401",
"E. c #853900",
"W. c #993700",
"Q. c #8C2715",
"!. c #A82B00",
"~. c #B02300",
"^. c #A63F00",
"/. c #A93900",
"(. c #8E0C27",
"). c #A50F28",
"_. c #8E3031",
"`. c #A5312F",
"'. c #C30000",
"]. c #CC0100",
"[. c #CF0808",
"{. c #D30100",
"}. c #DC0000",
"|. c #D80A03",
" X c #D41900",
".X c #E40000",
"XX c #EC0000",
"oX c #E50D00",
"OX c #F70400",
"+X c #EC1800",
"@X c #FC1900",
"#X c #CA2900",
"$X c #D63200",
"%X c #E92800",
"&X c #FA2800",
"*X c #E73500",
"=X c #FA3600",
"-X c #945303",
";X c #AA5500",
":X c #AB5D00",
">X c #8C6E00",
",X c #B16900",
"<X c #91552E",
"1X c #CA5F18",
"2X c #EE4500",
"3X c #CD7000",
"4X c #DB7800",
"5X c #A25F46",
"6X c #847B50",
"7X c #088B4D",
"8X c #008355",
"9X c #008A55",
"0X c #088953",
"qX c #009453",
"wX c #029B53",
"eX c #2C905D",
"rX c #00A455",
"tX c #00AA55",
"yX c #559672",
"uX c #8B8900",
"iX c #988800",
"pX c #A39600",
"aX c #F3A300",
"sX c #8D845B",
"dX c #8F8869",
"fX c #000083",
"gX c #00038C",
"hX c #001C85",
"jX c #0F009B",
"kX c #042C8B",
"lX c #002C95",
"zX c #0000A6",
"xX c #0001A9",
"cX c #0007B1",
"vX c #0527B0",
"bX c #2C32A0",
"nX c #702788",
"mX c #2C55B3",
"MX c #4B4A8E",
"NX c #4A6AAC",
"BX c #0028C8",
"VX c #172FC7",
"CX c #0022D1",
"ZX c #002DD2",
"AX c #0337D7",
"SX c #0037DC",
"DX c #2960CC",
"FX c #0052F7",
"GX c #0055FE",
"HX c #864186",
"JX c #708B8F",
/* pixels */
"f f f f f f f f f f f f f f f f f f f f f f f f f f f f f f f f f f f f f f f f f f f f f f f f f f f f f f f f f f f f f f f f ",
"2 2 2 2 E 2 E L L L L L L L L L L L L L L L L L L L L L L L L L L L L L L L L L L L L L L L L L L L L L L L C E 2 5 2 2 2 2 2 2 ",
"v v v ; Q z ^ H.H.H.H.H.H.H.H.H.H.H.H.H.H.H.H.H.H.H.H.H.H.H.H.H.H.H.H.H.H.H.H.H.H.H.H.H.H.H.H.H.H.H.H.H.H.H.F Q x T v v v S T.W.",
"v v v ; Q z ^ H.H.H.H.H.H.H.H.H.H.H.H.H.H.H.H.H.H.H.H.H.H.H.H.H.H.H.H.H.H.H.H.H.H.H.H.H.H.H.H.H.H.H.H.H.H.H.F Q x T v v v U.U.~ ",
"v v v k Q z ^ H.H.H.H.H.H.H.H.H.H.H.H.H.H.H.H.H.H.H.H.H.H.H.H.H.H.H.H.H.H.H.H.H.H.H.H.H.H.H.H.H.H.H.H.H.H.H.D Q x T v v v / Y./ ",
"v v v k Q z Q G.G.G.G.G.G.G.G.G.G.G.G.G.G.G.G.G.G.G.G.G.G.G.G.G.G.G.G.G.G.G.G.G.G.G.G.G.G.G.G.G.G.G.G.G.G.G.D Q x T v v v / !.J ",
"v v v ; Q z { N.N.N.N.N.N.N.N.N.N.N.N.N.N.N.N.N.N.N.N.N.N.N.N.N.N.N.N.N.N.N.N.B.N.N.N.N.N.N.N.N.N.N.N.N.N.N.v.Q x T v v v / T.D.",
"v v v ; Q z { B.B.B.B.B.B.B.B.B.B.B.B.B.B.B.B.B.B.B.B.B.B.B.B.B.B.B.B.B.B.B.B.B.B.B.B.B.B.B.B.B.B.B.B.B.B.B.v.Q x T v v v / T.D.",
"v v v ; Q z { m.m.m.m.m.m.m.m.m.m.m.m.m.m.m.m.m.m.m.m.m.m.m.m.m.m.m.m.m.m.m.m.m.m.m.m.m.m.m.m.m.m.m.m.m.m.m.j Q x T v v v / T.D.",
"v v v ; Q z ` v.v.v.v.v.v.v.v.v.v.v.v.v.v.s.v.v.v.v.v.v.v.v.v.v.v.v.v.v.v.v.v.v.v.v.v.v.v.v.v.v.v.v.v.v.v.v.g Q x T v v v / T.D.",
"v v v ; Q z Y = O     o b   k v & Z D o = C.L v.v.v.v.v.v.v.v.v.v.v.v.v.v.v.v.v.v.{ C.Z & ; F ; o A o ; k   . Q x T v v v / T.D.",
"v v v ; Q z Y m -X,   1 r 6 7.g w u 7.8 e t.M.B.B.B.B.B.B.B.B.B.B.B.B.B.B.B.B.B.B.N.j u w p t.r @ 7.0 $ r o . Q x T v v v / T.D.",
"v v v ; Q z Y m ;XE.  = * 7 5...r ,.u.e y 5.d.                                    | i.*.e 7.6.u f f.*.$ 1 o . Q x T v v v / T.D.",
"v v v ; Q z Y m ;XE.. k & k _.[ ; J.c - K ).{                                     4 _.(.v - (.Z 1 `.v O l & . Q x T v v v / T.D.",
"v v v ; Q z Y m ;XE.& k = b XXI.F +XJ l D.%XZ                                     O #X].D o *XK.: @XS.; l = o Q x T v v v / T.D.",
"v v v ; Q z Y m ;XE.O l = V.OXC.D.=XH A '.%Xx T T T Y Y T T T T Y Y Y Y T Y T T T I !.+XS.= *X].v +XL.k ; ; o Q x T v v v / T.D.",
"v v v ; Q z Y m ;XE.- l k D.@Xl L.*X- S.].#X: N N N N N N N N N N N N N N N N N N x V.*XG.v ~..XA  X{.b ; k o Q x T v v v / T.D.",
"v v v ; Q z Y m ;XE.- l b H.*XZ '.*X= G.%X#XO O O O O O O O O O O O O O O O O O O O D =XK.D T.%XC.~.|.V.l k . Q x T v v v / T.D.",
"v v v ; Q z Y m ;XE.l ; F |.#XV..X#XZ H.&XS.6 w w w w w w w 1 N : * w n.{ t n.n.t w V %X'.C.J &XH.G %XD.l k = Q x T v v v / T.D.",
"v v v ; ^ z T m ;XE.l ; S.{.F.S.+X!.C.L.=X] ;.;.;.;.;.;.;.;.1.^.U # a.yXc.k.yXyX=.;.-.$X|.G.n =XL.Z oXG.b ; - ^ x W v v v / T.D.",
"v v v ; W.x R.m ;XE.- l G.}.D K.&XP.D.}.%X' ;.;.;.;.;.;.;.;.1.^.U 3 rXh.p.tXrX5.;.;.;.~.@XH.F &X}.D ].L.F - & W.B R.v v v / T.D.",
"v v v ; iXI uXm ;XE.- b L.{.V.}.&XF H.+X*Xu ;.;.;.;.;.;.;.;.1.^.U | 9X5.wXtXa.;.;.;.;.~.=XL.C.#X@XD.H.}.C.; = iX( >Xv v v / T.D.",
"v v v ; sXE sXm ;XE.= V.}.'.C.XX XV.L.=X~.*.;.;.;.;.;.;.;.;.1.^.U 3 5.qXtXh.;.;.;.;.;.] 2X}.G.F.OXK.C..XG.k o sX{ 6Xv v v / T.D.",
"v v v ; dXE sXm ;XE.& C.XXS.D.XXS.G.XX=X[ ;.;.;.;.;.;.;.;.;.1.^.U # h.tXqX;.;.;.;.;.;.,.2X@XK.D .X'.A .XK.v   dX{ 6Xv v v / T.D.",
"v v v ; iXI uXm ;XE.; H.XXC.K.}.A H.XX2X] ;.;.;.;.;.;.;.;.;.1.^.U 4 tXwX5.;.;.;.;.;.;.,.$X&X'.S.H.{.V.{.{.D o iX( >Xv v v / T.D.",
"v v v ; -Xx E.m ;XE.; Z.).Z '.K.S.'.@X$X<.;.;.;.;.;.;.;.;.;.1.^.U | tXa.;.;.;.;.;.;.;.;.A.=X.XH.F .XV.Z.).c o -XB E.v v v / T.D.",
"v v v ; ^ z W m ;XE.r ,.t r I.D G.}.&XA.*.;.;.;.;.;.;.;.;.;.1.^.U | h.;.;.;.;.;.;.;.;.;.' %XOXH.V.I.] r -.r = ^ x W v v v / T.D.",
"v v v ; Q z Y m ;XE.v A.' -.4.r ] |.@X] ;.;.;.;.;.;.;.;.;.;.1.^.U 3 >.;.;.;.;.;.;.;.;.;.,. XOX(.r h >.r [ D ; Q x T v v v / T.D.",
"v v v ; Q z Y m ;XE.Z D.A ).{ e -.b.<X,.;.;.;.;.;.;.;.;.;.;.1.^.U # ;.;.;.;.;.;.;.;.;.;.;.} %.5.y h ).K V.C.- Q x T v v v / T.D.",
"v v v ; Q z Y m ;XE.A V.A XXA r 7.j.O.;.;.;.;.;.;.;.;.;.;.;.1.^.U # ;.;.;.;.;.;.;.;.;.;.;.h 7Xi.u V ].L.v S.= Q x T v v v / T.D.",
"v v v ; Q z Y m ;XE.Z v S.].Z G._.9Xh ;.;.;.;.;.;.;.;.;.;.;.1.^.U # ;.;.;.;.;.;.;.;.;.;.;.-.l.s.P.V.S.{.; D o Q x T v v v / T.D.",
"v v v ; Q z Y m ;XE.k ; L.S.V..XXX(.q.fXfXfXM.8 ;.m.fXfXfX:.2./ M 9 &.9.fXfXfXfXfXMXJXf.i.fXt.[.OXH.b ].l v O Q x T v v v / T.D.",
"v v v ; Q z Y m ;XE.& - H.D G.OX}.' 8.8.8.8.=.% 7 8 8.8.8.% 1 x ; # i &.8.8.8.8.8.r.X.p i 8.:.H.OX{.v L.v - o Q x T v v v / T.D.",
"v v v ; Q z Y m ;XE.O k G.l '.OXH.0.fXfXfXfX9.i 0 *.fXfXfX5.t Q ; 7 =.8.fXfXfXfXfXMXl. .s fXfX] XXXXF C.F O o Q x T v v v / T.D.",
"v v v ; Q z Y m ;XE., v F l .XXX] 9.9.9.9.9.;.% 7 9 9.9.9.=.y W ; # 9 &.9.9.9.9.9.c.0Xh.i.9.9.2.].OXS.Z Z x o Q x T v v v / T.D.",
"v v v ; Q z Y m ;XE.^ /.= v {.].2.fXq.q.q.q.9.7 q 6.MXe.e.&.y x ; 6 3.:.q.q.bXe.e.e.k.z.z.q.fX0.J.XXC.= H /.O Q x T v v v / T.D.",
"v v v ; Q z Y m ;XE.* W.B A K.(.jXxXxXxXxXxXgX7 9 j yX ...0 u ^.B 6 7 q.xXxXMXo. ...x.z.e.zXxXxXt.L.S.- ^.N . Q x T v v v / T.D.",
"v v v ; Q z Y m ;XE.Q R.^.G Z.VXSXSXSXSXSXSXvX3 q j s. .s >.u ^.U # a vXSXSXmX .s s e.e.e.AXSXSXAXy.V.W.! W.o Q x T v v v / T.D.",
"v v v ; Q z Y m ;XE.  W.U.3X5XcXcXcXcXcXcXcXgXi 0 s.eXh.p.4.l.^.U 7 &.fXcXcXNXk.h.i.e.w.fXcXcXcXcXMX3XW./.< . Q x T v v v / T.D.",
"v v v ; Q z Y m ;XE.  : /.-X`.VXZXZXZXCXCXZXvX6 q 4.j.x.z.7XO.^.U 6 3.lXZXZXmX..s 4.5.q.0 BXZXZXZXHXR.,X/ o . Q x T v v v / T.D.",
"v v v ; Q z Y m ;XE.  - ` 1X5XvXBXBXBXNXh.p.a 9 0 % u.u.8X7X5 ;XU 7 7 9 0 &...u.4.4.0 &.7 BXBXBXBXnX4X<Xk o . Q x T v v v / T.D.",
"v v v ; Q z Y m ;XE.. v Z j _.VXZXZXZXNX ...i i q i % ..wX .O.^.U 6 a X i a a a q s i q a ZXZXZXZXHX` t D O . Q x T v v v / T.D.",
"v v v ; Q z Y m ;XE.o b A $.c.GXGXGXGXDXd.d.d i 9 q i wXo.wXO.^.U 7 0 X i 0 3.a q s i 9 =.FXGXGXGXVXs.S F = . Q x T v v v / T.D.",
"v v v ; Q z Y m ;XE.& F A K X.AXGXGXGXDXa.d s 7 0 3.eXo.eX7X< ;XU 6 *.6 6 &.3.a q s 9 9 >.FXGXGXGXc.} D S.; o Q x T v v v / T.D.",
"v v v ; Q z Y m ;XE.- V.A V.%.y.lXlXlXe.% # %   % f B.f B.j O U ,   i     3 % % 7 %   X i kXlXlXkX} Q.; D.l o Q x T v v v / T.D.",
"v v v ; Q z Y m ;XE.- V.A H $.l Y Q Q Q Q Q Q Q Q Q Q Q Q Q Q Q Q Q Q Q Q Q Q Q Q Q Q Q Q Q Q Q & K } k D.l o Q x T v v v / T.D.",
"v v v ; Q z Y m ;XE.; F k E [ b = ; ; ; ; ; ; ; ; ; ; ; ; ; ; ; ; ; ; ; ; ; ; ; ; ; ; ; ; ; ; ; - V.h ; V.l & Q x T v v v / T.D.",
"v v v ; Q z Y m ;XE.l F 2 u.'.D.O & & & & & & & & & & & & & & & & & & & & & & & & & & & & & & & l  X{  .F v = Q x T v v v / T.D.",
"v v v ; Q z Y m ;XE.v F s.e %XP.    .   o . o o o   o       . o o . .       . . . o o .   o     v =XK u.J v ; Q x T v v v / T.D.",
"v v v ; Q z Y m ;XE.v B d b ].K.W #._ @.! -X  @.@.:XT -X_ :X@.P   >XY.>X#.E.@.R.-X  I >X,XI -X^ n oXC.8 $.v ; Q x T v v v / T.D.",
"v v v ; Q z Y m ;XE.v C 8 V.'.H.+.E.Y * Y.R.^ W./ N Y _ @.H / W._ R.R.R E.I , Y.R._ W.! H Y ) @.B .XD.* h v ; Q x T v v v / T.D.",
"v v v ; Q z Y m ;XE.v C g Z K.C.:XT ) , ) _ ( _ ( T Y ) ,X) ( _ ( ) _ :XT _ > ) ) ( _ ( ( P _ :XY {.A k j v ; Q x T v v v / T.D.",
"v v v ; Q N Y m ;XE.v c j b S.V.> , M < >         I M > , I         , I , < < >         P < , > z H.Z E t b ; Q N T v v v / T.S.",
"v v v z ( ) T m ;XE.A Z t D.G.V.& = = = = = = = = = = = = = = = = = = = = = = = = = = = = = = = k H.H.C V F z ( ) W v v v / !.J ",
"v v v x I   ( m ;XE.V.Z { %.C.V.  .                 .                   . .         . .         k S.A.X.v C.N M   _ v v v / Y.! ",
"v v v N W Q W.m ;XE.A v V s.F F U ^ ^ ^ ^ ^ ^ ^ ^ ^ ^ ^ ^ ^ ^ ^ ^ ^ ^ ^ ^ ^ ^ ^ ^ ^ ^ ^ ^ ^ ^ ^ l S.$.h v A H W Q /.v v v U.U.U.",
"v v v R #.6XiXm ;XE.2 t t h j C $ > > > > > > > > > > > > > > > > > > > > > > > > > > > > > > > 2 C u.t t t +.#.6XpXv v v Z Y.R.",
"& & & R #.dXpXm ;XE.*.*.*.=.*.-.&.&.&.&.&.&.&.&.&.&.&.&.&.&.&.&.&.&.&.&.&.&.&.&.&.&.&.&.&.&.&.&.*.*.>.-.*.*.$.#.dXpX& & & & O & ",
"4X4X4X:X) @.-Xm ;X} hXhXhXhXhXhXhXhXhXhXhXhXhXhXhXhXhXhXhXhXhXhXhXhXhXhXhXhXhXhXhXhXhXhXhXhXhXhXhXhXhXhXhXhXy.( @.3X4X4X4X4X4X4X",
"aXaXaX,XU > _ m <X0XqXqXf.p.p.j.qXqXj.p.p.f.qXqX9Xa.p.a.9XqXqXg.p.p.j.qXqX8Xp.p.f.qXqXqXa.p.p.9XqXqXh.p.p.h.O.M > ,XaXaXaXaXaXaX",
"! ! ! U P + T g 9XtXtX9Xp.p.g.tXtXrXf.p.p.wXtXtXj.p.p.8XtXtXqXp.p.f.tXtXtXf.p.p.qXtXtX8Xp.p.j.tXtXwXa.p.f.rXO.M + _ ! ! ! ! ! ! ",
"d d d d $.%.s.a.8X8X8X9X9X9X8X8X8X9X9X9X8X8X8X8X9X9X9X8X8X8X9X9X9X8X8X8X9X9X9X8X8X8X8X9X9X9X8X8X8X9X9X9X8X8Xf.$.%.X.d d d d d d ",
"p.p.p.p.p.p.p.p.p.p.8XtXtXqXp.p.g.tXtXtXf.p.p.qXtXtXj.p.p.j.tXtXwXa.p.f.rXtXtXg.p.p.9XtXtX9Xp.p.h.tXtXwXa.p.p.p.p.p.p.p.p.p.p.p.",
"p.p.p.p.p.p.p.p.p.a.9X9X9Xa.p.p.j.9X9Xh.p.p.f.9X9X9Xp.p.p.9X9X9Xf.p.p.h.9X9Xj.p.p.f.9X9X9Xa.p.p.8X9X9Xg.p.p.p.p.p.p.p.p.p.p.p.p."
};
