/* XPM */
static char *result[] = {
/* columns rows colors chars-per-pixel */
"64 64 255 2 ",
"   c #020102",
".  c #0C0000",
"X  c #000A00",
"o  c #00010A",
"O  c #0C0309",
"+  c #000B0D",
"@  c #130001",
"#  c #1A000B",
"$  c #001402",
"%  c #031909",
"&  c #12170F",
"*  c #080415",
"=  c #000B14",
"-  c #01001C",
";  c #000D1B",
":  c #170118",
">  c #001414",
",  c #001B14",
"<  c #00131D",
"1  c #001B1C",
"2  c #0F191D",
"3  c #24001B",
"4  c #00260B",
"5  c #022314",
"6  c #01231B",
"7  c #022918",
"8  c #0C331D",
"9  c #10331F",
"0  c #000125",
"q  c #000E24",
"w  c #03012C",
"e  c #0A032B",
"r  c #150124",
"t  c #190225",
"y  c #12022B",
"u  c #19012A",
"i  c #1B0D29",
"p  c #001423",
"a  c #001A24",
"s  c #0E1A23",
"d  c #01132B",
"f  c #001C2B",
"g  c #121D2A",
"h  c #010233",
"j  c #090636",
"k  c #02013B",
"l  c #1C0033",
"z  c #17063B",
"x  c #1B033D",
"c  c #011334",
"v  c #011C33",
"b  c #00143B",
"n  c #051939",
"m  c #181A38",
"M  c #260026",
"N  c #311627",
"B  c #270438",
"V  c #24023C",
"C  c #230C3C",
"Z  c #25173B",
"A  c #012424",
"S  c #012925",
"D  c #00232C",
"F  c #012B2C",
"G  c #0C2829",
"H  c #162828",
"J  c #053728",
"K  c #123328",
"L  c #002433",
"P  c #002C34",
"I  c #0C2A33",
"U  c #00253A",
"Y  c #012C3B",
"T  c #0A2C3C",
"R  c #1B2333",
"E  c #152C34",
"W  c #192837",
"Q  c #003335",
"!  c #093536",
"~  c #00333C",
"^  c #00393C",
"/  c #163638",
"(  c #25342A",
")  c #222234",
"_  c #352735",
"`  c #27383B",
"'  c #383837",
"]  c #591A13",
"[  c #710C16",
"{  c #4E1A2B",
"}  c #6F1C2A",
"|  c #492C36",
" . c #562C36",
".. c #473C39",
"X. c #5A3639",
"o. c #732E36",
"O. c #663639",
"+. c #1E422D",
"@. c #284838",
"#. c #324C33",
"$. c #595D0E",
"%. c #636300",
"&. c #4D5231",
"*. c #566D37",
"=. c #6B6C30",
"-. c #000044",
";. c #00014A",
":. c #0B0C49",
">. c #1C0444",
",. c #180846",
"<. c #051747",
"1. c #02134B",
"2. c #0B144B",
"3. c #0B1B4E",
"4. c #141544",
"5. c #1A1543",
"6. c #131B44",
"7. c #12124A",
"8. c #161B4A",
"9. c #090F51",
"0. c #061A52",
"q. c #220941",
"w. c #211842",
"e. c #311C44",
"r. c #082748",
"t. c #16274A",
"y. c #003443",
"u. c #003A43",
"i. c #0A3846",
"p. c #003D4C",
"a. c #153848",
"s. c #032351",
"d. c #072851",
"f. c #0A3151",
"g. c #232143",
"h. c #263C49",
"j. c #30394B",
"k. c #152B69",
"l. c #513946",
"z. c #6D3642",
"x. c #653B44",
"c. c #034648",
"v. c #01404D",
"b. c #174549",
"n. c #12524F",
"m. c #074957",
"M. c #174653",
"N. c #1C4E54",
"B. c #075656",
"V. c #135455",
"C. c #1D5555",
"Z. c #1E5B5B",
"A. c #27474B",
"S. c #38474A",
"D. c #2E5145",
"F. c #385849",
"G. c #274756",
"H. c #244D55",
"J. c #2C4B55",
"K. c #364C55",
"L. c #245455",
"P. c #2B5555",
"I. c #27565B",
"U. c #325555",
"Y. c #3A5455",
"T. c #37575A",
"R. c #3C6043",
"E. c #0F5D65",
"W. c #155C64",
"Q. c #335963",
"!. c #086869",
"~. c #186869",
"^. c #166B71",
"/. c #077878",
"(. c #197F7F",
"). c #276769",
"_. c #38686A",
"`. c #277A7A",
"'. c #387575",
"]. c #3D7979",
"[. c #48444B",
"{. c #584547",
"}. c #484A53",
"|. c #574D59",
" X c #475759",
".X c #555558",
"XX c #714D51",
"oX c #547141",
"OX c #4D5668",
"+X c #685C64",
"@X c #486566",
"#X c #4B626A",
"$X c #54686B",
"%X c #586972",
"&X c #457878",
"*X c #507176",
"=X c #6F6F6D",
"-X c #66777A",
";X c #86121A",
":X c #B0291C",
">X c #AB1923",
",X c #892323",
"<X c #8C2F34",
"1X c #A8272A",
"2X c #AF302E",
"3X c #C31F11",
"4X c #863B45",
"5X c #85494A",
"6X c #944241",
"7X c #935F68",
"8X c #916C74",
"9X c #A47274",
"0X c #758332",
"qX c #76864A",
"wX c #798A6F",
"eX c #8D9616",
"rX c #A9AB18",
"tX c #87942C",
"yX c #C9D116",
"uX c #8D9744",
"iX c #95A149",
"pX c #95AA4F",
"aX c #ABB152",
"sX c #849368",
"dX c #CBD36E",
"fX c #0F388B",
"gX c #202F9D",
"hX c #0F35AB",
"jX c #284986",
"kX c #38569A",
"lX c #3247B3",
"zX c #48568B",
"xX c #586C8A",
"cX c #677788",
"vX c #727B83",
"bX c #696E95",
"nX c #6B7692",
"mX c #4A54AB",
"MX c #546DA1",
"NX c #656AA2",
"BX c #0D18D9",
"VX c #1132CF",
"CX c #2934C7",
"ZX c #2D33CD",
"AX c #2E4DC1",
"SX c #847B82",
"DX c #0B8282",
"FX c #158282",
"GX c #2A8484",
"HX c #77868C",
"JX c #748192",
"KX c #8E8890",
"LX c #DFE196",
"PX c #EEF0A5",
"IX c #FEFFC6",
/* pixels */
"D U F v Q v P D ^ Q `.D v Q v L D U F L Q v P L L D ^ c.).P c P L U D Y F v Q v P D U D ^ !.H.P v L D U D L P v P D L D U F Q /.",
"P F U F L P f Y A r.U.b P v P f Y D U F U F L U f Y A i.G.v P D P f U F U F L P f P D U S a.h.v P D Y D U F L P D Y D L F U F A.",
"1 y.A Y Q v ~ a y.a _.D U ^ v ~ 1 y.1 y.F U ^ f y.1 y.! U.Q n ~ f y.1 y.F U Q v ~ a u.1 ~ b.S.^ c y.1 u.6 y.Q U ~ a y.< y.A U Z.",
"y., Y A L P q ~ = y.P.b S v P q ~ = Y A U F d Q ; Y > a.H.c P p Q = y.> U A L P q y.= Y 1 G.m.q Y ; ~ > U A L D d ~ ; y.> y.A J.",
"+ p.1 y.Q U u.p c.+ `.A Y ^ L u.= v.+ u.P U y.f y.o c.Q ).Q U y.p p.o p.A y.Q v u.; v.+ c.B.S.^ f u.= v.> u.P Y u.d u.+ v.1 c.!.",
"~ < ~ A L P a ~ < v.^.n D D P p y.> y.1 Y F f Y < y.> m.W.v P a Q < ~ 1 ~ D L P p y.= ~ A E.m.a Q < y.= y.1 P P f ~ ; ~ > y.A ^.",
"; u.a ~ P L ~ d u.; T.f Y Q L ~ p u.; u.F Y Q ( D.= u.H K.P P ~ a u.; u.f Y Q L ~ p u.; u.` j.! v y.< u.< ~ P P Q f y.; u.a Q A.",
"Q f Y D P P D Q a i.Q.L L P P f Y a Q f Q D D @.=./ f a.J.L L D Q d Q f Q D P P D Y a Q f N.M.L Y a Q f Y D P L D Q f Q f Y D I.",
"f ^ f Q P P P L ^ v ).v Q P P P D ^ a Q D P Q F &.G ^ Y I.L P P L Q a ~ v Q P P P D Q f ^ M.A.P P Q f ^ f Q P P P L ^ a ^ f Q W.",
"D U F L Q v P D ^ P `.D v Q v L D U I zXxXmXcXmXzXmX*.c.).P v P L U F U F L Q v P D U D Q !.H.P v L A U F L P v P D L D U F Q /.",
"Y A U F L P f Y A r.U.b F D Y f T G $XxXwXNXsXbXcX-XtXt.H.n P f P f Y S U F L Y f Y A U F A.h.v Y f Y D U F L P L Y f Y D U F J.",
"1 u.A Y Q v ~ a y.1 _.S U ^ v ~ 1 Y.j.jXlXgXkXCXjXZXD.Q T.Q v ~ f y.1 y.S U Q v ~ a y.1 y.b.A.Q v ~ 1 u.1 ~ P U ^ a y.> u.6 Y Z.",
"Y > Y A L P q ~ * i.P.b F v P ; N.' Y xXtXnXiXvXHXuXeXf.G.c D p Q = ~ 1 U S L P q ~ = y.1 h.M.c P ; y.= Y 6 U F d ~ = y.> Y A J.",
"= v.1 y.Q U u.; c.+ `.S Y ^ v y.S.v.+ fXVXhXhXBXfXBXV.P ).Q U u.p p.o p.a y.~ L u.; p.+ c.B.S.^ v u.+ v.> u.P U u.d u.o v.1 c.!.",
"~ 1 ~ A P P a y.< v.^.<.D D Q p y.= U.bXtXnXpXvXJXqXeXm.W.v P a y.; y., ~ A L P a ~ ; ~ A E.m.a Y 1 H.8X/ 8Xa.8Xz.+X8XM.7Xa.E ^.",
"< u.p ~ P U Q a u.; Y.f Q Q L y.< A.$XjXAXlXzXCXjXZXF.g K.P L ^ a y.; u.f Q Q L Q p u.< u.` S.Y L Q -XS.j. .A..X| N [.S.O.R b.A.",
"Y f P D P L D Y d ~ Q.L L P P f !  XP zXsXNXwXbXcXvX0Xb.H.L L L Y f P D Y D P L D Y a Y f C.M.D P Y.P f A.SXh.L SXK.` y.KXi.R I.",
"f ^ a ! P P P D ^ f ).v P P P P  X! d zXNXmX-XmXxXmX*.i.I.L P P D Q f ^ D Q P P P D ^ f ^ M.A.L Y./ a b.) {.#XA.O./ %XL XXj.Y.Z.",
"H T G I ! v Y D ^ Q `.D v Q v U D U P zXMXmXxXmXzXmX*.u.).P v P D U A U F n Q v P D U A ^ !.J.P L U G %XF OXQ c %Xf OXP OXI ^ /.",
",X=X<X+X5XP f Y D r.P.b F L P a ~ G $XxXwXNXsXbXnX-XtXi.J.n P f Q f Y S U F L P a Y A U S a.M.v Y a $X5Xj.6XK.P 5Xy.5XK.2Xa.@.J.",
"_ |.'  .&.n y.a y.1 _.F Y ^ v ~ a T.j.jXlXgXkXCXjXZXU.! T.Q U ~ a y.1 y.A Y ^ v y.a y.1 y.b.S.~ f J. Xp.` Q.F U u.h.P.h.'.f U Z.",
"|.{.|.O.l.U p ~ = i.J.b A v P q b.' Y xXtXnXiXHXJXqXeXa.G.c L p y.* y., U A v P q ~ = Y 1 G.m.q b.' y.H S.8X$XQ o.XX$Xp.9XG.Y.J.",
"+ p.1 ~ ^ L u.; c.+ `.S Y ^ v y.}.v.= fXVXhXhXBXfXBXV.F ).Q U y.p p.o p.A y.^ v u.; p.+ c.B.S.~ S.u.+ p.> i./ U / i i.o b.A b.!.",
"O.[.O.l.X.P a y.< v.^.n D L Q p ^ > L.bXtXnXiXHXnXqXeXm.W.v P a ~ ; ~ 1 ~ A L Q p u.= y.6 E.m.f Q < H.8Xa.7Xa.8Xx.+X8Xc.7Xa.E ^.",
"[ @X] .X{.E #.f u.q  Xf Q Q L ~ < A.$XjXlXlXzXCXjXZXR.H S.P #XA.%Xi.%XT. X#XK.$Xa.%Xb.$X^ ` S.Q D Q -X[.j...h.|.| N }.}.X.R a.S.",
"XXXX+X4XXX/ =.' f ! Q.L v P U f ! Y.I zXwXNXwXNXcXvX0Xa.I.L K.A.#X/ @XW #XA.K. Xh.#XE #Xa N.M.D P  XF f A.8Xh.D SXK.` ~ KXa.E L.",
"R / m ` ) Q ..( Q g ).v P P P L  X! f zXxXmXcXmXxXmX*.i.I.L P F D Q f ^ f P Y P P D ^ f ^ M.G.P Y./ D b.) {.#XA.x./ %XL XXj.Y.W.",
"G T G I ! v P D *X$XGX@Xh.! g P F T A Y ! b y.mXzXmXoXc.).P v I D U G U F v ! v P D Y G -X).@X-X_  .S o.H O. .| X.) | S Y S Q /.",
",X=X<X+X5X! f Y ' J._.j.XXXX5XXXiXaX_ +.dX$.e.bXnX=XtXi.G.c P  .rXI aXtX_ #.dX&.N uXaX_ S.G.Q.[.<X1XX.:XO.2X<X<X1Xo.} aXiX_ G J.",
"' l.'  ...U ~ a Q.,X_.x.J.{.| e.dXPX;XoXIXrXo.ZXjXZXJ.J U.Q n @.rXG.PXLX,XqXPXrXz.dXPX[ |.5X X..1X{.3Xl.:XO.2X<Xz.1Xl.LXLX,XY Z.",
"|.x.|.O.x.P d ~ }.a.OXj. Xx.{. .*.%.y.a =.E <.vXJX=XeXa.G.c P p y.9.*.$.Y S tXf q &.%.~ }.G.#XZ O.>Xa.3X' 1X<X<X>Xx.[ =.$.Y A J.",
"* v.1 y.~ U y.< c.] *X,Xr.^ n u.= p.+ y.! Y ^ fXm.gXn.S ).F U ^ d p.o v.f Y ^ v u.; v.}.c..XXXO.g h.* A.= j. XW a.[.J.o p. Xc.!.",
"^ < *.( P P N &.; v.^.<.D L P a ^ { #.a ~ D D ~ ;Xi.-X*XGXcXD } j.* y.,XY D P P f ^ s b.G E.n.g O.:X/ ;Xc.G b.I I i.G y.H M.A ^.",
"} R.PXaXo.L =.yX@.` =X#.! #.L ~ < tXrXy.#.Y Q } L HX~ { [.N o.D HX~ [ *X X~ #.L ~ } R.0 [.<Xz.O.1Xx.:X{.{ @.!  .@.( p.} F.a / A.",
"&.( dXuX_ L f &.k. X@X#.I =...D P f F.0.=.X.D | -X#X7Xz.*X{._ HX#X{ l.HX[._ =.X.D i.yX=.D B.oX#.<X,Xo.o.D.yX+.~ tXrXc u.yX&.L I.",
"f ! H Q D Q F D ! cX#X%XP ..' Q D ^ f Q _ &.P F %Xf ` l.+X<XF -XD / n -Xg P &.' P @XqXK ^ b.iX=.| <XG O.-X=.P ` wX*.P $XqXG Q Z.",
"'.'.'.'.'.'.'.'.].&X].&X'.'.'.'.'.'.'.'.'.'.'.'.'.'.'.&X&X&X'.'.'.].'.GX'.'.'.'.'.].].'.'.].&X'.'.'.'.'.wX^.'.'.&X'.].&X`.'.'.'.",
"(.`.!.DX`.FX/.(.'.!.(.^.DX!.FXGX^.DX(.(.!.DX`.(./.FXGX~.DX`.).DX~.).!.jX~.DX!.FX`.~.(.~.DX!.DX`.!.kX~.DX!.DX`.).DX~.(.!./.FX).DX",
"L.L.L.P.L.P.L.U.B.P.L.L.P.C.U.C.L.L.L.L.C.P.C.P.L.P.C.L.P.L.L.L.C.n.P.L.L.P.OXG.V.P.L.L.D.L.P.C.Z.L.C.Z.L.L.L.L.L.L.L.P.L.L.C.L.",
"P.C.P.P.C.Z.L.P.P.P.P.L.L.P.L.V.P.L.L.L.P.L.C.L.C.P.C.P.P.L.P.P.Z.R.P.P.L.P.a.OXL.P.P.C.U.L.P.C.R.P.C.F.L.P.Z.P.P.L.P.L.P.L.P.P.",
"P.B.C.P.C.L.P.P.P.L.P.I.C.C.U.L.C.U.L.V.L.Y.L.Z.P.P.B.L.P.P.P.P.P.P.Z.F.L.C.$X@X@XI._.P.V.L.U.P.L.U.P.B.P.P.L.P.P.P.V.L.U.P.C.P.",
"C.P.P.L.L.C.L.V.L.L.P.L.C.P.V.L.L.P.C.L.P.V.L.L.P.V.L.P.Z.L.L.P.V.P.L.P.C.C.P.V.C.~.L.V.L.P.V.L.L.P.V.L.L.C.L.L.U.V.C.L.L.C.L.U.",
"L.U.P.L.P.L.P.P.P.P.U.U.L.P.L.P.P.U.P.L.L.P.P.P.U.L.P.C.P.P.P.Y.L.P.P.U.P.L.P.P.U.n.!.L.Y.L.P.U.P.U.L.P.C.U.P.L.Y.L.P.C.U.L.U.Y.",
"L.L.Y.J.L.N.L.L.H.Y.H.L.V.N.U.L.U.H.P.N.N.U.P.P.J.J.N.L.P.P.L.J.J.V.U.L.L.C.M.U.P./   ~.N.N.U.P.J.P.J.N.L.P.P.H.U.P.M.L.P.L.C.U.",
"R R v j m a c R g v j m a q E g g j R d q E R v h g c p E R v h m c g h R f d E m o   q d d E R v h g c a E ) n h g m a I g I j ",
",   4 2 5 1 4 ,   $ G % 1 6 6   $ S % , 6 5   X 7 & 6 A 7   X 6 & 5 p 4 +   5 2 7 p 4 %   , 2 7 1 4 ,   $ G 5 , 5 ,   $ A & , 6 ",
"m + i.d.K s.m t.O ^ t.T r.m r.@ ^ t.r.T 6.r.: Q r.t.E r.t.: F i.r.! s.W i 6 i.d.I s.R m , i.d./ s.m 6.+ u.t.E 0.m r.@ ^ t.T y.w.",
"3., Z 3.C ,.C s.* ) 8.V >.q.t.0 E 8.q.>.C t.e I w.,.>.,.t.j G C 7.>.V g.:.S B 3.C x w.3.6 Z 3.B >.w.s.+ ) 3.C >.C d.- W 8.V >.C ",
"3 X D 4.<.>.7.M . 6 2.:.z 1.M @ 6 <.,.z 1.M @ 4 <.x 5.1.V # $ <.z 5.1.V # $ n 4.4.:.z 3 $ v 6.2.,.,.3 X A 7.2.x 2.M . 6 2.:.z 1.",
"        o   o       o     o       o     o o     o     o             o           o   o             o                   X o     o ",
"H J Y ! & , ~ H J r.K & $ ^ W J U 9 s + ^ / J U K G   J W J P K G   S i.K Q E F . 7 y.H Q ! Q O 5 u.H J r.J * % ^ R J r.9 2 + ^ ",
"3.Z :.t.y Y Z 0.m :.t.z F Z s.C 7.t.6.A g.d.Z :.6.r.> t.t.Z 9.,.d.* i.w.5.5.>.d.: u.g.2.C >.f.e ~ w.2.Z :.a.z P Z s.z 7.t.4.F ) ",
",.3.8.V t 6 7.7.8.4.V u 5 7.2.4.5.B l % m 0.3.,.C x X R 0.3.,.w.V O H 0.5.,.5.V : G 0.,.3.5.V : 8 7.,.3.4.V t 6 7.7.8.4.B M 6 4.",
"r t h t . X d : r h y @ X p t y j e @   a u e y h #   , y e t h #   $ j e t h :   $ h r r h r . X d r t h r . X p r u w y @   p ",
"*   % 6 5 , 4 ,   $ A & , 5 5   $ A & 1 6 5   X 7 & 5 1 4 o X 7 & 7 p 4 +   6 & 7 < 4 %   0 - 0 r - *   % 2 5 , 5 5   $ G % , 6 ",
"k + u.t.E s.m t.. ^ t.T r.m r.@ ^ r.T ! 6.r.# Q r.r./ r.t.: F r.r.I s.R i 1 i.r.! s.R m - l l k e k k + u.t.! s.m 6.. ^ 8.T i.m ",
"l , Z 3.B >.w.s.* E 8.B >.C d.- / 8.q.>.q.f.e I w.,.q.,.t.h G C 7.q.q.w.:.S Z 3.q.q.w.<.  -.l ;.u h l > ) 8.B >.q.d.* E 8.V q.q.",
"e X D 7.2.x 7.M . A 2.7.,.1.M @ 5 1.>.z 1.M @ 4 0.z 4.1.B # % <.z 5.1.x # $ n 5.4.:.,.3 o k l h w z 0 o D 7.<.x <.M . 6 2.:.,.1.",
"    X   o   o     X o   . o       o o   o o     o     o           O   o     X   o o o       o   o       X o o O o       o     o ",
"h u k h - , ~ H J U K * + ^ E J U 9 s   j y k l w h o J W J P K I   e j h t k h   6 y.9 Q ! ! . 6 ^ H J U K O , ^ R J Y 9 2 + Q ",
"k h k t e T Z 0.C 2.t.z F Z s.Z 9.8.6.- z l -.e k l > t.t.Z 9.>.d.o z r ;.e k u 0 i.g.7.w.,.f.e Y w.3.C :.t.z P Z s.C 9.t.m A w.",
"-.z z w w 6 7.7.3.4.B u 5 7.3.7.5.B B   k l ;.t k h $ R 0.4.,.5.q.O -.l ;.y k h - G 0.,.7.5.V : 8 7.,.3.4.V y 7 7.7.7.5.B B 5 4.",
": - - r   X d r u h y @   p r y w j @   w r - 0 : -   , y w t h #   0 e : 0 0 :   $ c r u h r   X d r t h r . X d r r h e @   p ",
"-.c < w ;.1 p k n < 0 ;.p q h <.> 0 -.c p w ;.< q k b < w ;.1 q h <.> w ;.p q h 1.> 0 -.c p w ;.> d k b < w ;.1 q h <.> 0 ;.p p "
};
