/* XPM */
static const char *bGV2ZWwyXzI_[] = {
/* columns rows colors chars-per-pixel */
"64 64 251 2 ",
"   c #010101",
".  c #0B0002",
"X  c #000B03",
"o  c #0F0D02",
"O  c #01010B",
"+  c #0A020A",
"@  c #000B0B",
"#  c #0E0E0E",
"$  c #130002",
"%  c #190207",
"&  c #15010B",
"*  c #001302",
"=  c #001C03",
"-  c #00140B",
";  c #0C1609",
":  c #001C0C",
">  c #141709",
",  c #000013",
"<  c #0A0413",
"1  c #000910",
"2  c #01011B",
"3  c #0D001B",
"4  c #140213",
"5  c #1A0014",
"6  c #14001B",
"7  c #1A001C",
"8  c #001414",
"9  c #011B13",
"0  c #0E1B15",
"q  c #081418",
"w  c #001C1C",
"e  c #0E1B1A",
"r  c #151918",
"t  c #2B090D",
"y  c #3A0102",
"u  c #210015",
"i  c #23001A",
"p  c #012203",
"a  c #00220C",
"s  c #0A260E",
"d  c #022315",
"f  c #0E2214",
"g  c #032C14",
"h  c #01231C",
"j  c #0E2319",
"k  c #022C1C",
"l  c #102A1E",
"z  c #04321D",
"x  c #010025",
"c  c #0C0024",
"v  c #010E23",
"b  c #01012C",
"n  c #0C022C",
"m  c #040C2B",
"M  c #120123",
"N  c #1B0024",
"B  c #13002D",
"V  c #1C012D",
"C  c #180B29",
"Z  c #021323",
"A  c #001C22",
"S  c #00102E",
"D  c #001E2E",
"F  c #181826",
"G  c #020134",
"H  c #0C0234",
"J  c #01013A",
"K  c #0B003D",
"L  c #060B38",
"P  c #020A3C",
"I  c #140134",
"U  c #1B0033",
"Y  c #130C33",
"T  c #190A37",
"R  c #13013A",
"E  c #1B003B",
"W  c #021635",
"Q  c #001B36",
"!  c #001B3A",
"~  c #071839",
"^  c #1C133E",
"/  c #131B3C",
"(  c #191A38",
")  c #240025",
"_  c #25002C",
"`  c #230033",
"'  c #23013B",
"]  c #270839",
"[  c #271337",
"{  c #25143C",
"}  c #251B3C",
"|  c #002423",
" . c #012D24",
".. c #01222D",
"X. c #012C2B",
"o. c #0C2829",
"O. c #152829",
"+. c #013324",
"@. c #02332D",
"#. c #043C29",
"$. c #083828",
"%. c #123124",
"&. c #1E3C2E",
"*. c #072534",
"=. c #0A2A34",
"-. c #01253C",
";. c #032B3B",
":. c #0C2B3B",
">. c #1C2433",
",. c #152B3C",
"<. c #1C2938",
"1. c #003434",
"2. c #0A3331",
"3. c #003933",
"4. c #04333B",
"5. c #003B3B",
"6. c #1D3635",
"7. c #222222",
"8. c #252529",
"9. c #282828",
"0. c #262732",
"q. c #2B3533",
"w. c #343334",
"e. c #461413",
"r. c #76391F",
"t. c #014E1B",
"y. c #095013",
"u. c #0B412B",
"i. c #004929",
"p. c #194828",
"a. c #195526",
"s. c #064438",
"d. c #1A4939",
"f. c #045633",
"g. c #195637",
"h. c #26462A",
"j. c #205327",
"k. c #24532C",
"l. c #254B38",
"z. c #2D493C",
"x. c #314E39",
"c. c #235634",
"v. c #2C5434",
"b. c #24563B",
"n. c #2D573B",
"m. c #335438",
"M. c #33543A",
"N. c #046133",
"B. c #000145",
"V. c #000A43",
"C. c #0C0847",
"Z. c #00004B",
"A. c #150544",
"S. c #1B0343",
"D. c #140A45",
"F. c #1C0B44",
"G. c #150649",
"H. c #120B4A",
"J. c #091644",
"K. c #001A44",
"L. c #02154C",
"P. c #0C154C",
"I. c #031A4B",
"U. c #0C1B4C",
"Y. c #141444",
"T. c #1D1444",
"R. c #141945",
"E. c #1C1C47",
"W. c #13154A",
"Q. c #111A4B",
"!. c #010052",
"~. c #021752",
"^. c #031A52",
"/. c #091B51",
"(. c #220343",
"). c #210C42",
"_. c #201A45",
"`. c #022542",
"'. c #012942",
"]. c #02254C",
"[. c #092849",
"{. c #0D2A4B",
"}. c #132343",
"|. c #1C2544",
" X c #1A2C43",
".X c #162849",
"XX c #023A42",
"oX c #063449",
"OX c #153244",
"+X c #042552",
"@X c #032A54",
"#X c #0B2951",
"$X c #102750",
"%X c #023557",
"&X c #222244",
"*X c #2D2D4C",
"=X c #003B60",
"-X c #004343",
";X c #06474B",
":X c #004B4C",
">X c #164444",
",X c #134B4B",
"<X c #075446",
"1X c #195847",
"2X c #014457",
"3X c #004855",
"4X c #005454",
"5X c #01545C",
"6X c #005959",
"7X c #175856",
"8X c #2B4A44",
"9X c #224848",
"0X c #255547",
"qX c #2D5643",
"wX c #325645",
"eX c #255355",
"rX c #006549",
"tX c #036D5A",
"yX c #004B63",
"uX c #035A63",
"iX c #00546E",
"pX c #005571",
"aX c #005A73",
"sX c #006665",
"dX c #066764",
"fX c #006C6B",
"gX c #05766A",
"hX c #006272",
"jX c #006D76",
"kX c #006C7F",
"lX c #017A77",
"zX c #1A7B71",
"xX c #257E77",
"cX c #454545",
"vX c #484847",
"bX c #4B4B4B",
"nX c #4A524B",
"mX c #525252",
"MX c #5D5D5D",
"NX c #435F60",
"BX c #6A6A6A",
"VX c #757676",
"CX c #7D7E7E",
"ZX c #006881",
"AX c #007486",
"SX c #007D84",
"DX c #008181",
"FX c #009A9C",
"GX c #00A8A7",
"HX c #858585",
"JX c #8B8B8B",
/* pixels */
"7.7.7.7.7.r 7.7.7.7.7.7.7.7.7.7.7.7.7.7.7.7.7.7.7.7.7.7.7.7.7.7.7.7.7.7.7.7.7.7.7.7.7.7.7.7.7.7.7.7.7.7.7.7.7.7.7.7.7.7.7.7.7.7.",
"# 0 r 0 bXCX9.# ; j > e e f # # j r f e s 0 # 0 r e 0 f 0 # ; j > e e f # # j r f e s 0 # 0 r j e f 0 # ; e 0 0 e f # # j > f e ",
"8 XX{.2.mXJX9.  3.].:.4.}.:.4 X.oX}.@.].>.F 8 XX{.2.].>./ . 5.[.:.4.}.`.& X.oX}.1.].>.C w XX{.#.].>./ . 5.[.=.4.<.-.& @.oX,.1.].",
"w } U.] vXVX9.  ,.&XS.(.S.{.G =.[ P.(.S.&XI.h } +X] A.T.@X, <.E.' (.S.#XG =.{ H.(.S.&XL.| { +X] S.T.@X, <.E.' (.(.@Xb =.} H.(.S.",
"* ..Q.J.bXHX9.  h I.A.R.I.` & : K.Y.R.L.E i * Q Q.I.A.W.) . h I.D.Y.L._ & a I.D.R.L.E u * Q Q.I.D.Y.) . | P.C.Y.L._ $ a I.A.R.L.",
"    + O mXJX9.    O + + , +     O . + O O       + O + , .     , + . , O     O . + O O       + O + , .     O + . , O     O . + O ",
"@.;.@.+ mXHX9.: `.l F X @.,.$.;.%.X.. k oX%.1.:.@.+ 9 5.O.#.`.%.e @ 3.,.#.;.%.o.. z {.%.1.=.@.. d XXO.#.;.%.q @ 3.,.#.-.%.*.  +.",
").G.{.H bXHX9.b H.|.Q.h |.$X[ H.F.@X< OX&XD.).S.@Xn ;.{ /.] H.|.R.| &X+X[ H.T.#XO OX_.F.T.S.%Xc 4.} /.{ H.|.Y.| &X+X[ H.T.{.O OX",
"Q.Q.' N bXCX9.c Y.' U : / ^.Q.A.T.' . %.^.A.Q.W.' 6 d P.H.Q.W.' V : / /.Q.D.T.' . O.^.D.W.W.' 6 h P.H.U.Q.' V a J./.Q.D.).E + O.",
"6 b 6 . mXHX9.$ c b $   8 M c 6 b &   * b c 6 b 6 . X Z 4 6 x c .   8 6 c 6 b &   * c c 6 b 6   X v 6 M b n .   8 6 b M b &   * ",
"  g O.k mXJX9.      @ @ X   X @ X X X @     @ X   X X X     a *.s | | k + X X.r k D g 8 % 7 Z.E B / K.2XhXhXuX1./ K.E B.!.G.A ..",
"w OX$X<.mXHX9.  = d.d.8Xl.x.l.9Xx.l.8Xd.x.p.8Xl.x.l.l.z.Z   XX|.J.}.W.oXM 4.|.].>.^.|.( < V $ dXtXtXgXrXN.N.rXtXtXgXdXuXI J m I.",
"9 } ^.^ vXVX9.  X.nXu.u.s.d.u.u.>Xs.u.u.>Xs.u.s.d.u.u.M.E.  <./.' W.{ T.c o.T.H.W.^ ] R A @XlXrXN.f.y.-Xi.i.i.s.t.f.N.rXlX&.B.^ ",
"  A T L mXJX9.  X.M.b , , , , , , , , , , , , , , , Z c.E.  : V.R T V.V . * ! V T P R % $ <Xs.i. .W P 7 , , 2 N P W +.i.s.:X5 V.",
"9 8 =   mXJX9.  k M.x 1.5.1.1.1.1.5.:X5.1.1.1.1.1.:XX v.Q * 1 = @   * ; 9 8 = - . 2 O     &.+.O B.B.B.B.B.B.B.B.B.B.B.X h.x . 2 ",
"4.}.:.4 mXJX9.  X.a.x -XD L.L.L.L.%XfX5.V.L.L.I.P jX@ g.D Z ].>.F w XX{.$.].>./ 7 J b J   d.#., Z.x Z.b x x x Z.J b Z.8 g.S 6 J ",
"(.A..XL vXVX9.  X.M.x -XS FXGXGXDX=XfX5.AXGXGXFX-.jX@ wXD G S.&XL.h [ +X] A.T.@Xb U c R   8X#., B.  b %XX F A Z.O O Z.8 qXS 2 I ",
"R.L.` & mXHX9.  k a.x -XS SX6X6X:X=XfX5.kX6X6X6XQ jXX a.D 6 L.E u * Q R.J.A.W.) 3 b R x   p.#., Z.    J X.;.2 G   O Z.* a.S 2 G ",
"+ O O   mXJX9.   .M.x -XS SX4X4X:X=XfX5.kX6X4X4XQ jXX wXD . O O       + O + O .     +     z.#.O !.J   J eX( x ,   2 Z.- n.S     ",
"X @.,.$.mXHX9.   .k.x -XW r.;X4X:X=XfX5.kX6X4X4XQ jX@ b.D   +.oX%.1.:.@.+ d XXO.#.'.%.r   l.#.O Z.  4XoXw -X2X  *.J Z.8 c.S 9 ;.",
"w |.$X[ bXHX9.  X.v.x -XD r.w.4X:X=XfX5.kX6X4X4XQ jX@ qXD   OX_.F.T.S.@Xn ;.} /.] H.|.J.  8X#.O B.    oXF 8 ;.:X8   Z.8 b.S J H.",
": / ^.Q.bXCX9.  g a.x -XS NXw.4X:X=XfX5.kX6X4X4XQ jXX a.D   o.^.D.W.W.` 6 d P.H.U.W.' _   p.#., B.  , -.  1.5.O O J Z.* a.S n Q.",
"  - 6 x mXHX9.  X.M.x -XS SXq.4X:X=XfX5.kX6X4X4XQ jX@ wXD   * c 3 6 b 6 .   v 4 6 x c .   8X#., B.  oXV.:X-Xm oX~ x Z.8 qXS $ x ",
" ...k O bXHX9.  k v.x -XS SX4X4X:X=XfX5.kX6X4X4XQ jXX n.D = D g q   k O.z D g h   a *.f 8 z.#., B.  -XW 2X].K.| cX1 Z.* v.S   d ",
"<.P.{.C r bX9.  X.j.x -XS SX4X4X:X=XfX5.kX6X4X4XQ jX@ b.D b ^.|.( h  X#X0.^.R.{.. oX|.J.> d.#., B.  m 0.F P ;.8 + D Z.8 g.S   oX",
"W.^ ).B # mX9.   .k.x -XS SX4X4X:X=XfX5.kX6X4X4XQ jX@ c.D G ^ ] R h ^ ^.T.S.{ H.+ O.~.] v l.#., B.x B.8.  B.2 J O O Z.- c.S   >.",
"T V.V $ bXMX9.   .v.x -XS SX4X4X:X=XfX5.kX6X4X4XQ jX@ n.D % P R %   D Y L U P u   : L R 2 l.#., !.Z.Z.Z.Z.Z.Z.Z.Z.Z.Z.- b.S   9 ",
"  * 0 9 bXHX9.  k M.x -XS SX4X4X:X=XfX5.kX6X4X4XQ jXX M.D   X w ; 8 9 =     d o a 8 p @   z.#.1 3X3X3X3X3X3X3X3X3X3X2X* n.S * 8 ",
"8 XX{.2.mXJX9.  X.a.x -XS SX4X4X:X=XfX5.kX6X4X4XQ jX@ g.D   5.[.:.4.}.`.4 X.oX}.2.].>.C   d.#.1 :X1.X.5.| | *.2XX.;.:X8 g.S S ].",
"w } $X] vXVX9.  X.M.x -XS SX4X4X:X=XfX5.kX6X4X4XQ jX@ wXD   <.E.' (.S.{.G =.{ H.(.S.&XL.  8X#.1 -Xb O 1.v O  XO . OX:X8 qXS J S.",
"X ..R.J.mXJX9.  k a.x -XS SX4X4X:X=XfX5.kX6X4X4XQ jXX a.D   h L.A.Y.L._ $ : K.T T.L.E u   p.#.1 4X`.    8.w w   0.P :X- a.S 7 L.",
"      O mXJX9.  k M.x -XS SX4X4X:X=XfX5.kX6X4X>XQ jXX wXD     O   + O         . + O O     z.#.1 ,X8.    0.].1.  x V.:X- n.S . O ",
"3.:.2.< cXBX9.   .k.x -XS SX4X4X:X=XfX5.kX6X,Xe.Y jX@ b.D   c R J 2 H B J -.%.*.. +.{.%.d l.#.1 -XD | X 2XyX@   F | :X8 c.S   +.",
").A.{.H # bX9.  X.v.x -XS SX4X4X:X=XfX5.kX6X4Xw.Y jX@ qXD   K U B.b K ` Z.H.T.@X, OX_.F.% 8X#.1 ;X9XX.  , |   eX|.2 :X8 n.S    X",
"Q.U.' 7 9.MX9.  g a.x -XS SX4X4X:X=XfX5.kX6X,Xq.W jXX a.D   J I B.x B.U Z.D.T.` . o.^.D.Z p.#.1 ;Xr   w   A 4.E.r >.:X* a.S   o.",
"6 x 3 . bXMX9.  X.M.x -XS SX4X4X;X=XfX5.kX6X4X,XW jX@ wXD   , c <   x 3 O 6 x &   * x 3 O 8X#.1 -X7./ 5X-X  9X8 m m :X8 qXS   * ",
"  k O.k mXJX9.  k v.x -XS SX4X4X6.=XfX5.kX4X4X4XQ jXX n.D   2 G b 6 G x O * @.r z ..g q   z.#.1 3XW.w.Z.uXO &XoX>.K.:X- v.S = ..",
"w OX$X>.bXHX9.  X.j.x -XS SX,Xq.t =XfX5.kX,X4X4XQ jX@ b.D   R I B.x J I b 4.|.].>.^..X(   d.#.1 :XS   ( O.# *XZ.Z X.:X8 g.S G ~.",
"9 ( ^.T.vXVX9.   .k.x -XS uX8.y y =XfX5.yX5.6.5.W jX@ c.D   J ` Z.I H b b o.F.H.W.^ ] R   l.#.1 -X    ( G DXZ O   @ :X- c.W J ^ ",
"  w Y L mXJX9.   .v.x -X5XiXiXiXiXZXfX4XpXiXiXiXpXjX@ n.D   b G M b b N O * W V T P I %   z.#.1 4X:X:X;X3X4X:X:X:X:X:X- b.S % P ",
"9 w p   mXJX9.  k M.x -XuXsXsXsXsXsXuX6XsXsXsXsXsXsXX M.D * 8 p @   2 , 2 8 p :   * w ; @ z.#.O w w w w h h w w w w w * v.S   * ",
"4.}.}.4 mXJX9.  X.a.x -XD +X@X@X+X%XfX5.I.@X@X@XK.jX@ g.D v ].>.C 2 E V J ].( / . 5.$X:.p g.1Xg.0X7Xg.<XeX4X1X1XeX<X7X1XN.S   5.",
"(.S..XL vXVX9.  X.M.x -XS FXGXGXDX%XfX5.AXGXGXFX-.jX@ qXD G S.&XJ.O B.` !.S.T.+X, <.E.' 6 7XgXlXxXxXlXlXxXzXlXzXxXxXlXlXzXS   <.",
"Y.L.` & mXJX9.  k j.x -XS SX4X6X:X=XfX5.ZX6X6X6XQ jXX c.D 7 L.E u O J I J S.Y.) . h P.D.v p.y.i.i.i.y.i.t.i.y.i.t.t.t.f.a.S   | ",
"  O     mXJX9.  k M.x -XS SX4X4X:X=XfX5.kX6X4X>XQ jXX M.D                   O             X X X X X X @ X X X @ X X @ @ @       ",
"@ 3. X$.mXHX9.   .k.x -XS SX4X4X:X=XfX5.kX6X,Xe.Y jX@ b.D   +.{.%.1.:.@.+ h XX>.#.'.%.r O K B J U J J   B R J N J G 2 I G J w '.",
"w &X$X] bXCX9.  X.v.x -XS SX4X4X:X=XfX5.kX6X4Xw.Y jX@ qXD   OX_.F.).S.@Xn ;.{ P.' H.|.J.2 K ` Z.M J E , K V B.B J B b M J E J G.",
"* / /.U.bXCX9.  g a.x -XS SX4X4X:X=XfX5.kX6X,X6.W jXX a.D   o.^.D.W.U.` 5 d P.H.Q.P.' ) , J I B.c B.G O J I B.n J H x c B.G n U.",
"  - 3 2 mXJX9.  X.M.x -XS SX4X4X;X=XfX5.kX6X4X,X~ jX@ wXD   X x 3 4 x 3     8 4 6 x x .   2 3 O 2 4 ,   , c < x , &   2 4 , $ x ",
" ...k O bXHX9.  k v.x -XS SX4X4X6.=XfX5.kX4X4X>X~ jX@ n.D = ..g q    .O.z ..g |   a =.f  .o.k + O H x N G x 2    .O.z ..g |   g ",
"<.P.{.C r bX9.  X.j.x -XS SX,Xq.e.=XfX5.kX,X>Xe.Y jX@ b.D b ^.|./ h  X#X0.~.R.{.+ oX&XQ.}.H.oXM H U G J J n R | |.@X0.~.R.{.+ oX",
"W.T.' B # mX9.   .k.x -XS uX9.y y =XfX5.yX5.y y L jX@ c.D G ^ ] E d ( ^.E.A.{ A.+ O.~.] W.{ S.M b E K Z.U b J d ^ /.E.F.{ A.O >.",
"C P V $ bXMX9.  X.v.x -X5XaXaXaXaXZXfX4XaXaXaXaXaXjX@ qXD % L H %   A Y L U J u   : L H V V.N . 2 J 7 x x V ,   D Y L I J u   9 ",
"  = 0 9 bXHX9.5.fXgXfXfXlXDXDXDXDXDXlXlXDXDXDXDXDXlXsXgXfX:X* h ; 9 w a     d o d 8 p @   : 0 d 8 p :   * w ; 9 9 a   3 2 O * 8 ",
"8 XX{.2.mXJX9.1.sXsXsXsXsXsXsXsXsXsXsXsXsXsXsXsXsXsXsXsXsX:X5.$X:.4.E.[.4 1.{.[.2.].>.C w oX{.2.].( / . 5.$X:.'.( `.4 n J K S ].",
"w } /.] vXVX9.X 8 w 8 | 8 8 w 8 8 8 w 8 w 8 | 8 8 w 8 8 8 8 <.E.' (.S.$Xb =.{ H.F.S.&XJ.| { +X] S.T.+X, <.E.' S.(.{.b N J U J S.",
"X ..R.J.mXJX9.8 X w 8 8 8 @ 8 8 w @ w X w 8 8 8 @ 8 8 w @ @ h L.A.^ L._ $ = K.T T.L.E u * Q Y.J.A.D.) . h P.C.^ L._ & b R b 7 L.",
"        mXJX9.w 5.5.5.5.5.5.5.5.5.5.5.5.5.5.5.4.5.5.3.5.5.X.                                                                    ",
"3.:.2.4 bXVXO.-XDXDXDXDXDXDXDXDXDXDXDXDXDXDXDXDXDXDXDXDXDXsX`.%.F @ 3. X#.'.%.*.. @.{.%.1.,.@.. 2 E G V J b b 8 5.,.#.`.%.*.. @.",
").S.{.L vXVXO.  ..X.| X.X.X.X.| X.| | X.X.| X.X.| X.| X.X.`.A.&XJ.| } +X] G.T.@X, OX_.S.).(.@Xb G E K B.I c R | } +X] H.T.+XO ,.",
"Q.U.` 7 w.mXw w X @ w w @ X 8 w @ @ | X @ w w @ X 8 w @ @ m P.' ) = ~ U.U.H.T.` . o.^.H.W.U.` 4 b K I J H K b = J.U.U.H.T.` . o.",
"6 x 3 2 0 O., , 8 w 8 8 w w 8 8 A 8 8 8 | 8 8 w 8 8 8 w 8 # 2 x 3   - 3 b 4 x 6 O X x c 4 x 3 2   x 6 2 , 6 2   1 3 b 3 x 6 O * ",
"W D J B.w Q J yXDXDXDXDXDXDXDXSXSXDXDXDXDXDXDXDXDXDXDXDXDXsXw P B.S D J B.w ! J K.w L B.D D J B.w ! J ! w L B.D W J B.w ! J ! A ",
"D P ].Z -.-.I.| -X-X-X:X-X-X:X-X-X-X-X-X:X-X:X-X-X:X-X-X-X-XL '.Q D W ].A Q -.K.| L '.Q D W ].A Q -.K.| L '.Q Q W ].A ! -.K.| P "
};
