/* XPM */
static char *_3c94ea159f64b2ac0c7c1e2e2d23f54Ds5hyZD3ns6V1BpT[] = {
/* columns rows colors chars-per-pixel */
"64 64 255 2 ",
"   c #030116",
".  c #02011A",
"X  c #09031B",
"o  c #0B0324",
"O  c #15062A",
"+  c #1B0C36",
"@  c #260837",
"#  c #2E0D36",
"$  c #2D2E3B",
"%  c #501A38",
"&  c #5A2337",
"*  c #340E4D",
"=  c #271346",
"-  c #361549",
";  c #1A2A4F",
":  c #1E2857",
">  c #1B285B",
",  c #32254A",
"<  c #222555",
"1  c #24275A",
"2  c #2B1D69",
"3  c #381D69",
"4  c #341C74",
"5  c #381B76",
"6  c #292B6B",
"7  c #392369",
"8  c #372879",
"9  c #530F4F",
"0  c #4A175C",
"q  c #571358",
"w  c #6F164E",
"e  c #5B2757",
"r  c #682746",
"t  c #782648",
"y  c #783C49",
"u  c #783455",
"i  c #461A63",
"p  c #481A64",
"a  c #531770",
"s  c #721963",
"d  c #462E75",
"f  c #43267F",
"g  c #1C4A69",
"h  c #274571",
"j  c #535F5D",
"k  c #78434B",
"l  c #764954",
"z  c #585365",
"x  c #725064",
"c  c #6E6E71",
"v  c #8C1B55",
"b  c #A5135D",
"n  c #8C2659",
"m  c #942959",
"M  c #8A3251",
"N  c #953258",
"B  c #B02B59",
"V  c #8A1B6A",
"C  c #972A65",
"Z  c #922E6C",
"A  c #B02F72",
"S  c #D6215C",
"D  c #CC3672",
"F  c #ED3776",
"G  c #884D56",
"H  c #9E535E",
"J  c #A84C59",
"K  c #A1545D",
"L  c #82605F",
"P  c #934D6D",
"I  c #9D5663",
"U  c #AF4F6E",
"Y  c #A65766",
"T  c #8F6C70",
"R  c #B57277",
"E  c #D34D72",
"W  c #DA557B",
"Q  c #E84C78",
"!  c #CF6D75",
"~  c #F07279",
"^  c #60857B",
"/  c #9A9B7D",
"(  c #AE897B",
")  c #C89079",
"_  c #EC8F7D",
"`  c #F9897A",
"'  c #F7987D",
"]  c #F7A47E",
"[  c #3E2583",
"{  c #3D2A84",
"}  c #3D2E8C",
"|  c #393789",
" . c #38328E",
".. c #3C318C",
"X. c #3C3493",
"o. c #451E84",
"O. c #422483",
"+. c #412A84",
"@. c #452A8A",
"#. c #562C8D",
"$. c #423281",
"%. c #44348B",
"&. c #432E91",
"*. c #463695",
"=. c #543393",
"-. c #713094",
";. c #1C5B88",
":. c #2B4C86",
">. c #2A5187",
",. c #364996",
"<. c #304F98",
"1. c #334C9D",
"2. c #326B96",
"3. c #324DA1",
"4. c #2D53A3",
"5. c #2C5CA9",
"6. c #3153A3",
"7. c #355AA5",
"8. c #1C6CA5",
"9. c #1C6CA9",
"0. c #1D6CAF",
"q. c #246AA6",
"w. c #246CAA",
"e. c #2968A8",
"r. c #3266A7",
"t. c #2472AB",
"y. c #2877A9",
"u. c #2B71AF",
"i. c #4E4C99",
"p. c #69578F",
"a. c #6F6B92",
"s. c #596AA7",
"d. c #913191",
"f. c #AE3392",
"g. c #992FA0",
"h. c #D03591",
"j. c #ED2D8B",
"k. c #EA3698",
"l. c #F43696",
"z. c #F63A96",
"x. c #F43599",
"c. c #F53999",
"v. c #E935A2",
"b. c #8C5E8E",
"n. c #B54E88",
"m. c #B87387",
"M. c #D04E8B",
"N. c #DA5883",
"B. c #E74887",
"V. c #E85B83",
"C. c #EF4C93",
"Z. c #E95894",
"A. c #D0748A",
"S. c #EB6E92",
"D. c #F46C98",
"F. c #D676A8",
"G. c #F16FA4",
"H. c #399590",
"J. c #2A94B8",
"K. c #35A5BA",
"L. c #6F8D95",
"P. c #5B9EA3",
"I. c #7094B4",
"U. c #49A5B8",
"Y. c #56A8BA",
"T. c #6EAFB6",
"R. c #77D8BA",
"E. c #318EC3",
"W. c #2998C6",
"Q. c #399CC8",
"!. c #1EA6C2",
"~. c #2DA3CA",
"^. c #2CA7C9",
"/. c #35A5C8",
"(. c #32B7C9",
"). c #4599C5",
"_. c #6896C5",
"`. c #4CAAC4",
"'. c #71B5C7",
"]. c #2CC2CA",
"[. c #3DCFC8",
"{. c #3BD1C8",
"}. c #4ACCC5",
"|. c #52CBC5",
" X c #6FD1C5",
".X c #95938D",
"XX c #AC8C8A",
"oX c #B49C8B",
"OX c #B79B95",
"+X c #9DA896",
"@X c #ABA88F",
"#X c #B3A589",
"$X c #B5A793",
"%X c #928EAB",
"&X c #B191B3",
"*X c #93AFB5",
"=X c #B1B1B2",
"-X c #CF908C",
";X c #EC8F8F",
":X c #F59A85",
">X c #F58A9A",
",X c #E99796",
"<X c #D0A793",
"1X c #F6A888",
"2X c #F6B88A",
"3X c #E9A896",
"4X c #F0AA92",
"5X c #EAB596",
"6X c #F5B895",
"7X c #CE91B1",
"8X c #EB8BA7",
"9X c #F788A7",
"0X c #EA9AAA",
"qX c #F797A5",
"wX c #EA94B4",
"eX c #D0A9AC",
"rX c #F1ADAF",
"tX c #83D4B5",
"yX c #B3D1B2",
"uX c #B4E2B3",
"iX c #D7C79B",
"pX c #F8C886",
"aX c #F6C48C",
"sX c #F9C48C",
"dX c #F6C98E",
"fX c #F9CA8E",
"gX c #E9C799",
"hX c #F7C594",
"jX c #F6CB91",
"kX c #F9CA91",
"lX c #E9D198",
"zX c #F7D396",
"xX c #F9EB95",
"cX c #D2CFAC",
"vX c #EECDA9",
"bX c #F8DCA5",
"nX c #DBE7AF",
"mX c #E7E7A6",
"MX c #F1ECAD",
"NX c #F8ECBB",
"BX c #F7F4BB",
"VX c #94ACCB",
"CX c #E9AFC8",
"ZX c #8DCBCD",
"AX c #B2D7CD",
"SX c #AEE4CC",
"DX c #C5D2CB",
"FX c #D9D7D8",
"GX c #EFD2CE",
"HX c #D6E8C8",
"JX c #CAECD9",
"KX c #EDEAC4",
"LX c #F8F5C2",
"PX c #FAF9C4",
"IX c #DAEDE2",
/* pixels */
"2 6 8 s Y z q.y.y.J.J.t.t.t.t.t.t.u.w.u.w.w.w.t.t.w.w.; > : = o X O . : : = 2.t.t.u.t.t.t.t.w.t.t.u.L.t.t.u.t.y..Xy.y.y.>.Y Z 8 ",
"8 | | X.d.R z E.W.W.W.W.W.W.W.W.E.E.E.E.E.E.E.E.J.J.J.> | | : O O + o | 6 < y.W.W.W.W.W.W.W.W.J.W.W.W.W.W.W.W.W.W.W.W.2.Y P %.| ",
"| | |  .X.d.E y y y k y y y y y k k k k k k k y y y k r h 0.h X . o . r.e.& y y y y y y y y k k k k l l l y l y y y G J P .. . .",
"<.<.<.6.6.3.p.J K H H I I Y I Y Y Y K K H K K K K J K M g q.g O O + . 2.2.r H H I I I H H H K K K K K H H I I I Y Y J P 3.1.1.1.",
"4.r.r.w.u.u.u.w.w.w.w.9.9.9.9.9.9.9.9.9.9.8.8.9.9.q.w.q.<.O O O O O O O ; q.q.q.9.9.8.9.9.9.9.9.9.9.q.8.8.q.q.w.w.w.w.r.u.r.r.r.",
"h 7.r.r.r.e.e.e.q.e.q.q.q.w.q.q.q.q.q.q.q.q.q.q.w.w.w.q.;.w b b b b b b 0 q.q.w.9.w.q.w.q.w.w.w.w.q.w.w.q.w.w.w.w.q.q.e.r.r.r.r.",
"r t t r = % t t t t t t - # t t t t t t r = & t t t t t r B ~ 3X3X,X;XS.w t t t t t - # t t t t t t & @ r t t t t t t & + t t t ",
"M N N M - r N N N N M M , 9 M N N N N M t - r m m m m N M U 6XPXPXPXNX:Xr m N m M M , 9 N N N N N M r - t m N N N N M r - M N m ",
"  . + 0 V * + . . . o # s q * X   . . @ - V * + . . . . X ! bXPXPXPXBX6Xr     . . * s q * X     . @ 0 V * o . . . . @ 9 V * o . ",
"  O 9 R <XR w O   . # P -X) J # X   O 9 R <XR w O . . . X U 4X3X5X5X5X:Xr . . o # Y -X) N # X . + w R -XY 9 o . . @ u ( -XY 9 o ",
"  @ m zXxXaXB * O + 9 ) xXxX! 9 + + # n hXMX2XA # o . . .Xu S S S S S B c O O + 9 ;XxXxXW 9 + + * U zXxX1Xs @ @ O * R zXxX:Xw O ",
". # n gXBXhXC 0 - - q A.BXbX! q * - - n gXBX5XC * O . $ =XKXeX-X-X-X( HXcXz = * s -XBXbXE q * * q A zXMX;Xs - - - 0 U bXBX;Xs O ",
"+ = 0 Y ;XU q * = = * s ;X! v * = @ = 0 Y :XJ 0 = O o j LXLXLXPXPXPXPXLXLX+X@ = - n ;X! s * = = * q ! _ m - = + = = q ! :Xm * = ",
"7 7 7 q w q i 3 3 7 3 3 9 9 p 3 7 7 7 7 q w q i 3 = , eXLXBXLXLXLXLXLXLXPXnXd 7 7 0 w w i 3 7 7 7 i q q 0 i 7 7 7 7 7 q w 0 3 8 ",
"; < < < < < < < < + < 1 : : < < < + < < < < 1 1 1 : c KXLXBXBXBXBXBXBXBXBXBX+X1 1 1 1 1 1 1 ; < < 1 < < < 1 + < < < < < : 1 1 < ",
":.3.1.1.1.3.3.1.3.1 ,.,.1.1.1.1.6.1 1.1.3.3.1.1.6.6.cXLXPXBXPXPXPXPXPXBXBXPXHX4.7.7.6.4.4.4.6 ,.1.1.1.1.1.1.6 ,.1.1.1.1.1.3.3.:.",
":.6.6.6.4.6.6.4.4.6 1.3.6.6.4.4.4.6 6.6.4.4.4.4.4.s.KXPXPXBXLXPXPXPXPXBXBXPXLX*X5.5.5.5.5.5.h ,.6.4.4.4.4.4.6 1.6.4.4.4.4.4.4.:.",
"h >.>.:.:.>.:.:.>.; :.:.:.:.:.:.:.: :.:.:.>.>.>.>.=XLXLXLXBXBXBXLXBXBXBXBXLXLXnX>.>.>.>.>.>.6 h :.:.:.>.>.>.> :.>.>.>.>.>.>.>.6 ",
"  . . . . . . . . . . . . . . . . . . . . . . o j mXxXmXmXnXmXmXmXmXmXmXnXmXmXmXc . . . . . . . . . . . . . . . . . . . . . . . ",
"  . . . . . . . . . . . .           .         . c MXmXmXMXnXmXmXmXmXmXnXnXMXmXmX$X.   . . . . . . . . . . . . . . . . . .       ",
". . . . . . . . . . . . . . . . . . . . . . .   iXmXmXmXyXnXmXmXmXmXmXnXtXmXmXmXmXj X . . . . . . . . . . . . . . . . . . . . . ",
"0 i i p p 0 0 p i i i i i i i i i i i p p p p b.MXBXBXBXHXNXBXBXBXBXBXBXHXNXBXBXBXOXp 0 p p p i i i i p p p 0 p 0 i p i p i i i ",
"v n n n n n C m m m n n n C C n n m m m n v v eXNXBXBXLXAXHXnXHXnXnXHXHXAXKXNXBXBXvXP n n n n n n n m C C C m C m C C m m m m n ",
"< 4 4 5 5 5 4 5 5 5 5 4 4 5 5 4 4 4 4 3 3 f.m.NXLXPXBXBXT.AXuXuXuXuXuXuXT.HXBXLXPXBX<Xd.a 4 5 5 4 4 4 4 4 4 4 4 4 4 4 4 4 8 8 2 ",
"2 O.O.O.[ O.[ O.O.O.O.O.a.[ O.O.[ [ O.O.f.v.0XzXbXbXzXmXY.uXuXuXuXuXuXuXtXDXbXbXbXbXgXv.h.a o.O.[ O.O.O.O.O.O.O.O.[ [ [ [ O.O.4 ",
"2 O.O.O.O.O.O.O.O.O.O.f %X@.O.O.O.O.O.d.k.Z.hXzXzXzXzXyXK.SXuXuXuXuXuXuXR.'.zXzXzXzXzXG.k.d.f O.O.O.O.f O.O.O.O.O.O.O.O.O.O.f 7 ",
"2 O.+.+.+.O.O.O.O.+.O.+.O.O.@.O.O.O.#.h.k.S.jXzXkXjXlXT.|.tXtXR.R.tXtXR.R.`.cXzXzXzXzX3Xl.h.s O.O.O.f O.f O.+.O.O.[ [ { O.O.O.3 ",
"2 +.@.=XO.O.@.O.$.=X%.{ { #.-.O.O.O.f.h.Z.5XzXzXfXfXlXK.|.tXR.R.R.R.R.R.R.!.cXzXzXzXzXhXS.h.f.O.O.O.O.b.$.+.+.+.+.+.O.+.O.p.O.4 ",
"2 { +.p.p.a.O.{ %XFXa.{ [ { [ O.O.-.f.A m.zXaX2XzXzXyX^.}. X X X XR. XR.|.!.*XzXzXhX5XhX<XA f.d.O.O.$.DX*X+.+.8 =X+.+.+.%XFXa.4 ",
"2 { +.+.p.b.{ { { p.{ { [ { { O.#.h.k.k.3XzX~ Q jXzX*X(.}.[.[.[.{.{.{.{.[.(.T.lXkX_ F 2X6XC.x.h.#.[ [ a.%.+.+.{ a.{ { { $.%X&.4 ",
"2 { { { { { { { { { { { { { { +.d.k.l.Z.kXfX` Q zXzXU.(.}.[.[.[.[.[.{.{.{.(.^.lXfX1XQ 2XjX>Xx.x.d.O.{ { { { { { { { { { } } } 4 ",
"1 f $.$.$.$.$.$.$.f 8 f +.f $.$.n.B.C.,XzXzXzXjXzXzXY.K.|.}.}.}.}.}.}.}.}.`.K.iXzXzXjXzXzXhXZ.C.M.%.d d $.$.$.+.{ { $.$.$.$.{ 6 ",
"+XFXFXFXFXFXFXFXFXFXFXFXFXFXFXGXGXGXGXLXLXNXNXNXNXLXJXJXJXJXJXJXJXJXJXJXJXJXJXKXNXNXNXNXNXNXKXGXGXGXFXFXFXFXFXFXFXFXFXFXFXFXFX=X",
"2 ......X.} } } } } } } } &.=.h.l.c.,XjXkXdXjXjXdXcXJ.^.(.].].].].].].].].(.J.=XzXjXjXjXjXjX4XB.k.h.-.} } &.} } } } } } } ..} 8 ",
"2 } ....X.&.......} } } } &.f.x.c.C.6XkXfXfXfXsXfX*XW.(.].].].].].].].].].(.J.Y.zXkXfXkXkXjXzXS.x.l.f.@.} } ..............} ..8 ",
"2 ......X.&.X...} } } &.%.-.k.x.c.,XsXfXdXdXfXdXfXVXW.(.(.^.^.^.^.^.^.(. XZXW.Y.vXkXdXdXdXjXdX4XC.x.k.d.{ } ..{ ......&.......8 ",
"2 ....&.&.} ........i.%.&.f.x.c.C.6XdXfXdXdXdXjXiXW.^.~.~.~.~.W.W.W.~./.~./.~.~.=XfXdXfXdXdXdXhXS.c.x.h.+.} ..........&.} ....8 ",
"6 &.%.&.&.&.X.......%Xa.-.k.x.c.,XsXsXdXdXdXdXdXiXW.^.~.^.^.~.~.~.~.~.~.~./.I.U.=XjXkXkXzXjXdXkX1Xl.x.k.d...%...........&.%.%.8 ",
"8 =.=.=.=.-.*.*.*.} @.@.h.x.c.Z.6XfXsXdXdXdXdXfXiXW.~.~.|.'./.~.~.~.~.~.~.~.OXI.*XjXkXjXMXjXdXdXhXS.x.x.h.=.*.&.@.....%.*.i.*.$.",
"7 =.=.=.=.*.*.*.*.} +.-.k.x.c.>XjXkXfXjXdXdXfXkX*XQ.(././././.~.~././././.~.`./.~.gXjXjXdXdXjXjXjX,Xz.l.l.d.&.&.%X..%.%.*.&.&.8 ",
"d =.=.=.p.&X*.i.i.@.@.h.k.c.Z.6XkXkXkXjXkXfXfXjX*XQ.Q././.Q.Q./.~.).7X7X&XQ././.~.gXjXdXdXkXkXkXjXaXD.l.l.h.*.a.FX%X&.X.*.*.%.8 ",
"Z -.=.=.*XFXi.*.i.%.d.c.c.c.>XkXkXkXkXkXfXfXfXjXeX&X%XQ./.&XwX_./.).8XrXeXQ./././.lXkXfXkXjXkXkXjXjX,Xz.c.z.f.&.a.%.&.} d.h.D A ",
"Z -.*.*.*.i.X.X.X.#.v.x.l.Z.4XsXsXsXsXsXsXsXsX5XVX_._.)./.&X9X_./.).8XrXeXQ.~.`./.*XsXsXsXsXsX2XsXaX6XZ.l.l.k.#.X.X. .&.d.F Q A ",
"Z -.=.=.=.=.*.r.X.g.x.x.z.S.sXsXsXsX2X2X2XsXaXeXAX&X&X)./.&X8X_./.).rXqX7X)./.AX/.*XpXsX2X2X2XsXsXsXdX,Xl.l.x.f.} i.s.} f.0X;XU ",
"Z -.-.g.d.g.-.7.=.k.l.x.z.4XsXsXsXsX` ` 1XsXgX*XAXAXZX/./.=XrX_.E.).0XqX7X`.AXIXZX'.gXpX] 2X` 2XsXsXsX6XC.x.x.k.#.} &.&.f.j.S.A ",
"Z -.-.g.g.d.-.%.f.c.x.z.S.aXsXsXsXsX:X` :XsXgXVXFXDXVX/./.&X9X_.E.).0XrXeXQ./.ZX/.^.iXpX1X1X:X2XsXdXdXsX;Xc.x.x.f.@.@.&.d.D.0XA ",
"Z M.M.h.g.d.-.-.k.x.l.z.4XhXsXsXsXaX4X' 6XaXgX%X7X7X&X)./.&X9XI.E.).,XrXeX`.ZX'./.^.iXpX:X~ 2X2XsXdXdXsX6XC.x.x.k.-.#.=.f.Z.B.A ",
"Z Z.V.B.f.f.d.f.x.x.c.Z.hXkXsXsXaX2X` ` ` dXyX'.DXAXZX/./.&X9XF.8XF.rXvX7X`.ZXZX/.^.yXaX:X~ ' 2XsXsXdXdXsXS.c.c.x.h.-.=.f.j.j.A ",
"C V.~ B.f.f.g.k.l.l.c.8XcX=X5X:X1X2X1X:X6XdX*XZXAXAXZX/./.=XqXG.9XrX9X>X7X_.7X7X&X).T.pX1X:X2XsXsXsXaXdXdX6XC.c.x.k.d.=.f.8XG.n.",
"C S.;XN.f.f.h.l.l.c.c.&XAXU.3X4X2X2X1X:X1XcXY.'.AXAX'.=X*X7XqXG.9XG.qXrXeXI.9X9XwX).`.lX1X1X` sXsXsXsXsXsXaXS.c.c.l.h.=.A 8X0XA ",
"C B.Q M.f.f.k.x.l.z.S.=XAXY.3X6X2X1X1X' ' cX`.'.AXAX'.qX7X7XrXG.9XG.rX5XXX%XqXqXwX).^.cX1X:X6XhXsXhX3X( -XaX4Xz.l.c.x.d.f.G.Z.A ",
"C S.;XV.g.h.9XrXG.D.,X=XSXU.3XhX2X1X2X' :X*X_.'.AXAX'.rX7X7XqXD.9XrXqX! n.T qXqXrX).^.yX1X4X` zXhX2X-Xn.L 2XaXV.x.c.l.h.f.V._ A ",
"C Z.Z.B.h.x.S.S.Z.S.6X=XSXU.5XbX2X] ' :XgX*XI.ZXJXAX'.rX7X7XrXD.>XD.rXXXZ R qXqX0XY./.'.1X` ` sX' ' -XP L 6XNX4Xl.l.l.x.h.j.j.A ",
"C V.~ V.k.C.GXwXwX0X2X=XuXU.5X2X1X] hX1XcXY.&X XAXAXT.rX7XeXrXD.9XD.5X-XC R 6XqXrX&X/.`.<X` ` hX5X:X-XM.L 6XNXhXZ.l.z.z.l.8X8Xn.",
"C j.j.F 8XCXCXwXCXqXjX*XZXU.3XhX1X' ' :X3X&XOXT.AXAX'.rXeX&XqXD.>XqXvX-XZ ( 6XrXvX0X`.(.=X` ` hX;X` -XM.L 6XMXhX;Xz.C.>X;Xj.k.A ",
"C Z.M.;XeXx 7XCXCXA.l U.'./.eX1X1X' ' :X-XcX@Xj AXAX'.rX=XeXrXD.>XD.qX-XM.( <X% <X0Xj K.=X5X` aX3X1XT 7Xx 3X6X6XOXU B.8X8Xj.D.A ",
"C V.S.Q eX.XU B.S.R L I.I.ZXuX=XvX:X:XG u iX@X^ AXAXY.=X*X7X9XD.-Xr -X-XN.( <X% <X3Xx *XnX) ! hX;X1XP h.s -XbX5X2.T C.8X0XG.j.A ",
"C Z.F ,X0XXXn.8XrXm.L *XI.ZXZXP.3X1XgXT N lX#Xj SXDX`.ZXY.=X6X>X-XP -XoXN.( <Xh $XlXc cXbX#X( bX:X4XG B v ( 5X5Xh T S.Z.,X>Xj.A ",
"Z 8XZ.rX-Xx D C.rXXXl +XL.ZXSXP.5XbXlXT m vXXXj yXyXc nX+Xr -X;X-XN m.T ,XL .X'.L./ g c cX# O ( 6XhXI F B .XcX.X% % A.B.,X0X8XU ",
"C wXrXeXx # x CXrXT D .XI. X XP.4X4X-XA.R -XT <X+X.Xa.cXT n ( 4XXXr x XXgXT .X&XL./ 8.a.$XE D l 0XqXH F B L. XP.J J A.D.B.>XG.A ",
"C V.V.R D F N 8XS.P b P.R.SXSXT.,XvXXX-XR m.l D +X.Xc $X, z c ,XI D D Y ~ N .Xn.^ / 8.a.$XS.V.m 0XqXG F m P. XU.) R A.>Xz.Z.wXA ",
"u M.-XY B B v A.A.u t ^ H.T.T.H.-X-XI A m T k M / c , / g H.c <XG B B u B t T c j / ;.j .XN B w m.M.e e = H.U.H.G M R ;XM.D D Z ",
"oX$XoXoX#XoX#XoXoX$X$X$X$X$X$X$X$XOXOX#XOXOXoX#XoXoX#X/ #X#X#X#XoX#XoX#XoX#X#X#X#X#X#X#X#XoXoXoXoXoX$X#X#X#X#X#X#X#X#X#X#X#XOXOX",
"E W W N.N.N.N.W W W E W E E W Q Q Q E E U l U N.x x N.W N.W W N.W W N.N.N.N.N.N.N.W W W W W Q B.W W W W V.V.N.V.N.W N.N.N.N.W W "
};
