/* XPM */
static char *c614d9054fe94d68998c885cca387a9bK36Yp9TD7fZ4R3IH[] = {
/* columns rows colors chars-per-pixel */
"64 64 248 2 ",
"   c #4F2750",
".  c #5A2A6D",
"X  c #6F3A73",
"o  c #74454C",
"O  c #77446C",
"+  c #935C2F",
"@  c #AF7326",
"#  c #B7792A",
"$  c #B17237",
"%  c #C67F13",
"&  c #8C574F",
"*  c #9C6251",
"=  c #A86A4B",
"-  c #B87949",
";  c #A76A59",
":  c #AE7353",
">  c #B67658",
",  c #864B76",
"<  c #945A72",
"1  c #9F6367",
"2  c #9B6478",
"3  c #AA6F6B",
"4  c #B67968",
"5  c #A66979",
"6  c #B77A75",
"7  c #BA842E",
"8  c #CC8B01",
"9  c #D59208",
"0  c #DA9616",
"q  c #E59A08",
"w  c #E09910",
"e  c #E9A305",
"r  c #F7AA03",
"t  c #F6B605",
"y  c #FBBC01",
"u  c #E8A718",
"i  c #EDB412",
"p  c #F5B816",
"a  c #CF8C2A",
"s  c #DA9928",
"d  c #C78735",
"f  c #D69837",
"g  c #DBA530",
"h  c #E6A727",
"j  c #EBB72A",
"k  c #F4BA25",
"l  c #EBB137",
"z  c #E8B635",
"x  c #EFC10A",
"c  c #FBC606",
"v  c #FED705",
"b  c #F9C716",
"n  c #FDD91A",
"m  c #FFE202",
"M  c #FEE519",
"N  c #F7CA28",
"B  c #FCD529",
"V  c #EBC13C",
"C  c #F6C835",
"Z  c #FBD739",
"A  c #FEE62A",
"S  c #FEE635",
"D  c #BC8648",
"F  c #B9856F",
"G  c #C5864A",
"H  c #D59C47",
"J  c #C38957",
"K  c #CF9752",
"L  c #CA9557",
"P  c #DBA749",
"I  c #D4A556",
"U  c #DAAC52",
"Y  c #E7AE4A",
"T  c #E8B846",
"R  c #E7B959",
"E  c #C58A68",
"W  c #C99664",
"Q  c #C18C78",
"!  c #C49378",
"~  c #D4A568",
"^  c #D9AE72",
"/  c #E6BB68",
"(  c #E5B87A",
")  c #EBC24A",
"_  c #F3C946",
"`  c #F8D749",
"'  c #EBC35A",
"]  c #F1C754",
"[  c #EFD052",
"{  c #F9D957",
"}  c #FDE847",
"|  c #FDE95A",
" . c #FEF25C",
".. c #EBC36B",
"X. c #F3C866",
"o. c #F9D865",
"O. c #E9C179",
"+. c #F3C976",
"@. c #F8D979",
"#. c #FCE768",
"$. c #FEF26A",
"%. c #FBE578",
"&. c #FEF17B",
"*. c #530F94",
"=. c #5F2688",
"-. c #6B3288",
";. c #71348B",
":. c #652697",
">. c #7A3698",
",. c #5801A8",
"<. c #5B01B2",
"1. c #6507AC",
"2. c #6818A9",
"3. c #6903B7",
"4. c #7602BA",
"5. c #6B16B3",
"6. c #781AB9",
"7. c #7529A6",
"8. c #742CA4",
"9. c #7C25B6",
"0. c #7A4083",
"q. c #750EC4",
"w. c #7903C8",
"e. c #8318B0",
"r. c #8639A8",
"t. c #892BB4",
"y. c #8626B9",
"u. c #8B37B8",
"i. c #993AB8",
"p. c #90538B",
"a. c #89469A",
"s. c #924B98",
"d. c #975598",
"f. c #A75E8E",
"g. c #9D638A",
"h. c #A76A88",
"j. c #B0768E",
"k. c #A76999",
"l. c #964AA8",
"z. c #9A56A5",
"x. c #964BB3",
"c. c #A457B2",
"v. c #B678AA",
"b. c #AC6BB0",
"n. c #B26CB8",
"m. c #C27FBB",
"M. c #8606CC",
"N. c #950CCA",
"B. c #8719C6",
"V. c #941AC9",
"C. c #8603D1",
"Z. c #8C01D2",
"A. c #9605D2",
"S. c #9917D1",
"D. c #A406D2",
"F. c #A719D2",
"G. c #B213D4",
"H. c #8A25C7",
"J. c #9628C9",
"K. c #8B31C5",
"L. c #9938C8",
"P. c #9B25D1",
"I. c #A339CA",
"U. c #A426D2",
"Y. c #B428D3",
"T. c #AA39D2",
"R. c #B839D4",
"E. c #C438D5",
"W. c #9B44C6",
"Q. c #A649C8",
"!. c #A857C9",
"~. c #B358CB",
"^. c #AD45D1",
"/. c #B746D3",
"(. c #AF51D0",
"). c #B857D3",
"_. c #B763CC",
"`. c #B768CA",
"'. c #BC76C7",
"]. c #C547D6",
"[. c #C65AD5",
"{. c #CE5DD5",
"}. c #C26DCD",
"|. c #C777CC",
" X c #C969D4",
".X c #D367D9",
"XX c #C976D3",
"oX c #D57BD7",
"OX c #BF8C8F",
"+X c #BC8594",
"@X c #BC85AF",
"#X c #C28C88",
"$X c #C89689",
"%X c #C28B99",
"&X c #CA9895",
"*X c #D19F9A",
"=X c #D5A888",
"-X c #D5A596",
";X c #DFB397",
":X c #E7BC8C",
">X c #E2AF97",
",X c #E5B899",
"<X c #C48DA7",
"1X c #D39DA7",
"2X c #C689B8",
"3X c #CC96B8",
"4X c #D49BBA",
"5X c #D8A6A6",
"6X c #DDB2AC",
"7X c #D7A4BB",
"8X c #E6BAA8",
"9X c #E2AABA",
"0X c #E7B9B8",
"qX c #EDC88A",
"wX c #F3CC88",
"eX c #F6D688",
"rX c #ECC598",
"tX c #F2CA99",
"yX c #F4D698",
"uX c #FBE786",
"iX c #F9E797",
"pX c #FCF391",
"aX c #EBC4A9",
"sX c #F3D6A7",
"dX c #EBC4B8",
"fX c #F0CFB4",
"gX c #F4D8B7",
"hX c #F9E7A8",
"jX c #FCF2A6",
"kX c #F8E4B7",
"lX c #BA80C4",
"zX c #CB87C8",
"xX c #D291C8",
"cX c #D797C9",
"vX c #D987D7",
"bX c #DC98D3",
"nX c #E19ECF",
"mX c #E299D7",
"MX c #DBA6C7",
"NX c #E2A9C8",
"BX c #E9B8C6",
"VX c #E6AAD5",
"CX c #EAB5D4",
"ZX c #EAAAE4",
"AX c #EFC7CF",
"SX c #F1CBC9",
"DX c #F5D9CA",
"FX c #F8E4C5",
/* pixels */
"vXE.].ZXpXA y # -.< a 9 o 3.A.{.kXZ N N v y a :.N.[.gX` u < 6.^.bXiXZ t a O 1.C.F.].CX#.P l.M.Z.A.A.A.D.].fXZ 9 w e r r r r d 8.",
" XY.E.ZXjXS y # 3 K u q & 5.S.oXhX@.wXeXB c d 8.P.vXyXC d ;.M.).NXuXN f 5 >.M.D.[.bXgX| z h.B.T.Y.G.G.E..XSX` 0 : # 8 8 8 8 @ :.",
"D.D.G.oXFX} y 8 g b c r $ 2.P.vXsXaXBXkX} b - 9.^.BX%.V G g.i.~.MXwX] D a.B.T.XXnXgXuXS b G t.[.vXvXvXvXVXDX| g O X & & + + o *.",
"C.Z.G.{.DX} c p Z A v t $ 2.U.vXxX`. XSX} p ; y.).dXyX@._ Y 4 r.!.xXyXV 6 i.XXdXiX#.Z b t d >._.fXgXgXkXjXpXS j p.5.:.=.. . . ,.",
"w.C.D.].SX| n o.iX$.M y $ 7.S.~.W.A.R.AX} h , 4.Q.@X4X0X#.b d 7.A.oXhXZ H s._.0X#.b e q a ; :.W.dXuXuX&.$.} M k 2 B.w.3.<.,.<.3.",
"<.w.A.E.AX#.o.sXSXjXS c - 7.t.r.2.M./.SX} h 2 d.a.B.T.VX#.k > 9.(.MXiXN s O K.zXwXz D ; , :.3.J.xXo.n v v v v p 4 V.A.Z.C.w.w.w.",
"*.w.Z.R.CX&.sXbXvXFX} b - r.g.: X w./.fX` j P Y > 6.^.BX{ g p.L.zXsX{ j : 8.V.[.dX) 5 r.y.B.M.P.|.wXk i t y y i > y.Y.Y.D.A.Z.Z.",
"  3.Z.R.VXfXcX/.[.AX .b d 6 H 0 & q._.sXwX:X{ b - 9.`.sXC J 7.^.NX@.z 6 a.N.).bXsX` E u.T.^.R.].vXyXl J d 8 8 8 * y.[.oXE.D.D.D.",
"o *.C.Y.mXMX^.S.R.CX$.b s z b p * 9._.dX9XBXuXN 3 K.zXeXR J d.Q.7XwXY g.t.).cXfX%.B f l.[.cXcXnXBXiXV 2 , & * & O 9.XXCXvX{.E.Y.",
"+ . w.F..X(.B.Z.Y.mXuXN _ #.A p : y./.`.~.oXiXz 2 L.zX0XtX[ K a.!.NXo.L x.cXyX{ C k f a.`.sXiXiXuX .N 5 9.7.:.=.*.q.'.sXgXCXvX.X",
"% . q.D.R.e.1.w.F.oXpXo.tXgX| b > 6.i.t.A. XuXl 3 k.b.zX0X{ f r.(.dX{ f a.'.rX_ K 6 g.8.!.aXo.| } n b 4 B.M.w.3.4.q._.yXuXhXSXAX",
"q o 5.A.V.;.. 4.S..XhXtXNXCX&.N > d.h.X H.oX%.T I E >.^.0X] 4 x.zXyX) J r.Q.9X' 3 r.t.H.^.0X_ k p y t - J.^.U.A.Z.A.).yXS  .pXjX",
"e + 2.B.a.= o 1.N.[.gXxX).vXiXC d K l * K.xXeXwX{ Y >._.yXT k.~.8XX.L s.Q.|.dX{ E i.(.~. XNX[ D G a a = u.oX XR.F.F.[.sXB B }  .",
"t # =.8.4 0 @ =.M.].MX(.D.[.gXZ z _ c = K.|.7X9X%.P r.'.8X..Q c.3XqXI l.|.8XwXC G x.zX9X0XsX` > d.p.< ;.u.cX0XbX.X]..XsXC y v m ",
"y s X 2 h t 0 O q.Y.!.6.Z./.fXo.wX%.N - u.n.!. XuXH z.n.4XwXU d.'.tXU d.zXwXT K 3 u.7XeX@.#.Z F y.4.1.1.K.MXiXfXCXmXmXiXC e t c ",
"c u & H b c e & 6.S.r.=.w.T.BXyXNXgXZ D z.2 r.XX@.U W d.'.wXI x.xX+.I s.`.rXL d.u.L.zX+.T z p G J.I.P.M.P.cX| #.pXkXFXpXj # 0 t ",
"v r 7 x M v t $ 2.t.3 & 2.I.nX4X}.BX` g ~ K >.|.,X:XT d.zXwX~ c.4X..F b.7XwXI l.lXxX9XX.L E G * W.xXXXY.G.vX` n | &.pX .j 1 = 9 ",
"m y u { $.A c a ;.h.s d -.J.XXQ.I.bXo./ { l a.'.2XaX) k.2X,X~ k.4X/ j.'.rX..~ c.cXaXyX{ 4 s.a.;.W.0XBXcXoXVX{ i c v M M j p.-.* ",
"A c C iXkX .n u & P b u , B.i.8.H.XXeX8XsXT p.d.x.0XR j.z.4XR k.3X..6 n.:XF d.x.4XX.] C E L.L.H.W.aX%.kXAXDX` a u c c v l s.6.=.",
" .B @.BXAXpXA t d N v p : y.f.< 9.[.6XzX0X_ W E x.7X>X^ z.7X/ k.4X^ j.3X+.F b.3X8XR W J 5 _.zX).R.aX` %.iXiXZ : - q t y h a.M.3.",
"pX} sXoXvXDX .b z %.| b G p.K d >.^.n.I.cX+.O.T d.@X7X/ k.3X( k.5X~ b.8X( j.'.8XqXR d.d.r.`.0XMXcXsXz c n A N 2 0.: 0 e f r.D.Z.",
"kX%.NX/.].VXuXB o.gXiXZ h L C j < i.s.u.zX8X0XX.h.g.m.( ! b.:Xk.5X~ b.;Xj.c.2X( R P l.!.W.}.@.uXgXiXg f p b k g.9.-.& # = 9.Y.F.",
"AXsXXXF.G.oXgX{ tXbXSX#.k ) #.N > h.E a.~.@XxX+.=X6 n.5XU v.;Xj.5XQ @X=Xk.2X>XR j.j.c.4XcXbXo.` %.| I 2 d e h d.N.4.:.X O 9.[.].",
"mXBXT.Z.A.].BXuXMX].bXiX` wXsX{ f I j 5 c.l.`.5X,X~ +X2X( +X5X+X5X+X1X! +X6X( ~ l.c.`.rXaXaX] f x b L 8., : $ r.Y.N.4.,.*.H.vXvX",
".XXXH.w.C.U.bXfX_.U.[.fXo.9XNXuXz X.` J j.4 c.n.3X( ^ <X1X#X1XOX*X@X:X#X5XrXF h.b.4XxX( ] { ) 2 G h 4 J.6.-.X y.[.R.N.w.w.L.NXSX",
"R.T.1.*.4.S. XcXL.C.T.NXsX|.XXfXX.8XeXT / P k.k.n.<X:X$X@X=X%XOX-X<X=X%X;X=Xk.@X3X:XrX' W j P l.s.3 p.(.A.4.1.K.bXvXY.A.Z.T.0XiX",
"D.N.X o *.M.R.).9.3.V. XMXW.T.NXtXxX0XX.qXX.! L k.b.5X^ %X=XOXOX-X&X#X*X$X%X<X5X,X/ R P d.6 6 Q.y.7.8.zX XP.C.L.BXSXXXY.D./.fX .",
"A.y.= # X 5.S.J.X X 6.T.`.9.H. X7X!.zXrXxXwX( ..Q j.v.-X=X%X$X#X&X$X%X=Xv.<X6X^ / Q 6 4 x.u.a.'.~.J.L.9XBX[.U./.sXiXCX.XR. XyXZ ",
"M.a.s q $ -.M.t.- = ;.N.i.< 8.I.`.9.!.3X!.7X1X,X-X=X-X$X&X%X$X#X$X$X&X-X&X=X$XQ +Xk.b.z.'._.L.7X9X).^.aXyXNX{. XeX| hXCXoXmX%.b ",
"5.5 p t w * 2.d.h 0 1 9.d.d 1 t.l.5 i.c.z.'.b.3X1X-X-X$X&X$X%X#X$X$X&X%X*X=X+Xv.v.n.3X`.7X7XXX8XyXNXvXwX{ sXVXNXo.B #.kXAXSX{ t ",
"-.J b c t d 0.4 N t f a.6 j f d.6 H g.h.E c.j.b.k.v.v.1X-X$X#X#X! $X$X#Xv.v.2Xm.6X3XqXcXrXeXBXwX{ iXSX+.C #.hXkX_ p B $.jXjXC q ",
"& g v m c u = H n v i > P B b F U N H I ' Q / ! ^ $X&X&X&X#X$X#XQ $X$X#X#X&X=X>X( :X/ wX..] eX' z { uX) s B #.%.j 0 c A $.$.k @ ",
"@ k  . .A c 0 j %.#.B s ) uX{ z ' eX] ..wX/ :X( >X=X&X#X#X$X$XQ #X$X#X&X*X&X$X^ ! / F ' I H N U F b B P > i v n H = u c m v g & ",
"e C iXjX$.B p _ gXhX#.C +.SXiX{ wXBXeXrX4XqX3X6Xm.2Xv.v.#X$X$X! #X$X$X-X1Xv.v.k.b.j.c.E h.2 P 6 d.f j 6 a.f t N 4 O d t c b J -.",
"t { SXAXkX#.B o.NXVXsXo.wXvXNXyX8X|.7X7X`.3Xn.v.v.+X=X*X%X&X$X$X#X%X$X&X$X-X-X1X3Xb.n.z.c.i.5 l.t.1 d d.y.1 0 h d.7.* w y p 5 5.",
"b %.mXoXCXhX| eX X{.NXyXaX^.).7X4XL._.'.z.b.k.+XQ $X=X&X-X&X$X$X#X$X%X&X$X-X=X-X,X1X7X!.3X!.t.`.I.8.< i.N.;.= - t.M.-.$ q s a.M.",
"Z yX XR..XCXiXsX/.U.[.BX9XL.J.~.'.a.u.x.4 6 Q / ^ 6X<Xv.=X%X$X&X#X$X%X=X-Xv.j.Q ..O.wXxXrXzX!.7X XH.9.`.T.6.X X J.S.5.X # = y.Z.",
" .fX/.D.Y.XXSXBXI.C.P. XzX8.7.y.Q.6 6 d.P R / ,X5X<X%X$X*X#X&X-XOXOX=X%X^ 5Xn.k.L ! X.qX..0XzXtXNXT.W.MX XV.3.9.).R.w.*.o X N.D.",
"iXBXT.Z.A.Y.vXbXK.1.4.S.(.p.3 s.l.P j W ' rX:X3X@Xk.=X;X%X=X<X-XOX%X=X@X$XqX<Xn.k.k.P / T eX8Xo.fXXX|.sXNXT.C.L.cX XS.4.*.1.T.R.",
"SXNXL.w.w.N.R.[.9.X -.9.J.4 h G 2 ) { ' ( xX4Xb.h.F rX5X#X:X@X*X+X1X#X1X<X^ ( 3Xn.c.4 j.J ` X.z eXNX9Xo.fX[.U._.fXbXU.C.w.H.XX.X",
"vXvXH.*.,.4.N.Y.r.$ : , 8.W b x f ] aXaXrX`.c.l.~ ( 6X+X! 1X+X5X+X5X+X( 2X+X~ ,X5X`.l.c.5 j I f { sXwX` iXbX].MXuXBX].A.Z.T.BXmX",
"].[.9.O X :.4.N.d.h e d 2 H | %.` o.cXcX4Xc.j.j.R >X2Xk.=X@X! 5Xj.;Xv.U 1Xn.F =X+.xX@X~.a.E h.> N #.) k #.SXbXtX{ gXoXG.F.XXsXAX",
"F.Y.9.= # & -.9.g.k b p f l iXgXuX@.}.W.!.l.P R ( 2Xc.j.;Xb.~ 5Xk.:Xb.! ( m.g.h.X.0X8XzXu.s.i.< j C L h Z iXgXo.B uXVX]./.NX%.kX",
"Z.D.r.f e 0 : 0.2 N A n c z sXcXMX0X`.r.d.d.R tX8X'.j.( 8Xb.~ 5Xk.( 3Xk./ 7X@Xd.T ( +.cXI.'.^.>.d K p.G b | %.z b  .DXvXoXsX} pX",
"3.M.a.h y t q - : Z iXiX%.` aXR.).zX_.5 J W R 8X3Xb.F +.3Xj.^ 4Xk./ 7Xz.^ >X7Xx.E W _ 0XzX6X[.9.< f.y.: p v N d t A pXAXBX@.B  .",
"=.6.s.l v v c u a ` DXAXkX%.aXW.H.L.L.E C ] X.4Xx.p.F :Xn.6 ..3Xk./ 4Xz.j.R 0Xx.d.p.T sX8XeXXXH.8.I.B., u b P & u n  .kXiXC c A ",
"* -.p.j M M v c i { VXoXcXBX0XW.;.a.s.4 { yXaXcXx.W ..rX'.j./ 4Xk.~ ,X2Xk.) aX2X'.a.l { / #.bXI.Q.XXJ.-.d s h.;.a c A $.{ u y m ",
"9 = < j  .pX&.| n ` vXG.Y.XXxXL.; G E L X.9XxXlXl.I wX7Xb.F ..4Xc.~ wXzXd.T :X,X|.>.K ~ g ` BX}.4XbXI.2.& 3 t.2.$ t v M x 7 r v ",
"t 0 # j pXFXkXpX#.| cXP.M.P.I.J.G p z T +.zXL.u.d.L rX`.s.I +.xXx.I wX'.d.W U @.XXt.2 d.D Z gXNXyXBXT.w.=.r.S.6.& e c b H & u c ",
"c t e C iXmXmXCXgXiXMXK.1.1.4.y.F Z #.@.eX7Xu.3 K T wXzXd.U tX'.d.U wX4Xn.z.H uX X!.n.u.- B %.wXo.fX/.Z.6.!.Y.q.X 0 t h 2 X s y ",
"m v y C sX.X]..XbX0XcXK.;.< p.d.> ` sX0X0XxXx.G V wX8X|.l.I qX3Xc.Q ..8X'.r.P %.9X7X|.K.= c _ z Z gX[.D.(.MX].M.=.@ 0 4 8.=.# t ",
" .} B B sX[.F.F.R. XoXu.= a a G D [ NX X~.(.i.E { dX|.W.s.L X.8X~.g.T yX_.>.Y { wXeXxXK.* l K d C iXvX).xXgX[.N.1.o = a.M.2.+ e ",
"jXpX .S yX).A.Z.Z.U.^.J.- t t p k _ 9X^.H.t.r.3 ' 9XQ.r.J ) yXzXx.4 ] 0X^.>.E I T %.oXH.X h.d.> N &.CXNXtXhX.XS.w.=.;.V.A.5.o q ",
"CXSXhXuXyX_.q.4.3.4.M.B.4 b n } | o.aX!.8.g.6 K _ rX'.a.f { 0X(.r.f { 0XzXb.k.3 j uX XA.t.i.6.> b | gXtXo.pXoXF.w.1.4.R.D.q.. % ",
".XvXCXgXsX'.q.*.=.:.7.9.5 N  .uXiXiXsX`.a.f k C { eXMXx.L o.NX!.a.K [ tX0XzXL.< C iXoX~.`./.y.: p A #._ N uXmXY.Z.B.(..XF.w.. + ",
"Y.E..XvXCXXX9.O & * & , 2 V iXCXnXcXcX[.l.f B %.fXcX).t.g.Y wX7XQ.z.F R wXzXK.3 N uXBX9XdX_.9.* p b z s b $.CXR.D.^.MXbXY.C.*.o ",
"D.D.D.R.oX[.y.* 8 8 8 d G l yXvX].R./.T.u.E ` sXbX).N.a.6 z @.NX^.7.J C sX`.9.- b { :XwXsX_.q.& 0 H F d b  .AX[./.cXfXVXR.Z.3.  ",
"Z.Z.A.A.Y.Y.y.> r y y t i k eX|.U.M.B.y.r.5 ) dX[.V.8.: j { sXzXL.p.g { BX^.6.> Y P j ` fX/.w.X : g.>.- b } FXvXbXsX%.CXR.Z.w.*.",
"w.w.w.C.Z.A.V.3 p v v v v n o.xXJ.3.:., ; D z wXzXK.O s N iXMX(.9.> k #.VXT.B.a.d.2 h } SX/.M.2.r.t.7.- c S jXSXsXo.#.AXE.A.w.<.",
"3.<.,.<.3.w.B.2 k M } $.&.uXuXdXQ.:.; a q e b #.0X_.s.H Z hXoXA.7.d b #.0X4X@XQ.4., j } AXR.A.W.~.S.7.$ y M $.iXo.n | SX].D.C.w.",
",.. . . =.:.5.p.j S pXjXkXgXgXfX_.>.d t b Z #.iXdXXXi.6 V yXxX!.r.4 Y _ @.yXdX).y.; p } SX X}.xXvXU.2.$ t v A Z p c | DX{.G.Z.C.",
"*.o + + & & X O s | DXVXvXvXoXvX[.t.G b S uXgXnXXXT.B.a.D ] wXMX~.i.g.G _ %.BX^.9.- b } kXBXaXsXvXP.2.$ r c b g 8 y } kXoXG.D.D.",
":.@ 8 8 8 8 # : 0 ` SX.XE.G.G.R.T.B.h.z | gXbX[.D.M.>.5 f N uXNX).M.;.d C yXvXP.:.d y A eXwX@.hXoXS.5.& q u L 3 # y S jXZXE.Y. X",
"8.d r r r r e w 9 Z fX].D.A.A.A.Z.M.l.P %.CX].F.C.1.O a t Z iXbX^.6.< u ` gX[.N.:.a y v N b Z kX{.A.3.o 9 a < -.# y A pXZX].E.vX"
};
