/* XPM */
static char *_1b0989ed26747cadde7e3674a0db00aWWGiSqYHtdb33e9b[] = {
/* columns rows colors chars-per-pixel */
"64 64 4 1 ",
"  c black",
". c #040404",
"X c gray98",
"o c white",
/* pixels */
"o oooooooooooooooooooooooooooooooooooooooooooooooooooooooooooo o",
"o  oooooooooooooooooooooooooooooooooooooooooooooooooooooooooo  o",
"o                                                              o",
"o  o                                                           o",
"o  oo oooooooooooooooooooooooooooooooooooooooooooooooooooo  o  o",
"o  oo  oooooooooooooooooooooooooooooooooooooooooooooooooo  oo  o",
"o  oo                                                      oo  o",
"o  oo  o                                                o  oo  o",
"o  oo  oo oooooooooooooooooooooooooooooooooooooooooooo oo  oo  o",
"o  oo  oo  oooooooooooooooooooooooooooooooooooooooooo  oo  oo  o",
"o  oo  oo                                              oo  oo  o",
"o  oo  oo  o                                        o  oo  oo  o",
"o  oo  oo  oo oooooooooooooooooooooooooooooooooooo oo  oo  oo  o",
"o  oo  XX  oo  oooooooooooooooooooooooooooooooooo  oo  oo  oo  o",
"o  oo  oo  oo                                      oo  oo  oo  o",
"o  oo  oo  oo  o                                o  oo  oo  oo  o",
"o  oo  oo  oo  oo oooooooooooooooooooooooooooo oo  oo  oo  oo  o",
"o  oo  oo  oo  oo  oooooooooooooooooooooooooo  oo  oo  oo  oo  o",
"o  oo  oo  oo  oo                              oo  oo  oo  oo  o",
"o  oo  oo  oo  oo  o                        o  oo  oo  oo  oo  o",
"o  oo  oo  oo  oo  oo oooooooooooooooooooo oo  oo  oo  oo  oo  o",
"o  oo  oo  oo  oo  oo  oooooooooooooooooo  oo  oo  oo  oo  oo  o",
"o  oo  oo  oo  oo  oo                      oo  oo  oo  oo  oo  o",
"o  oo  oo  oo  oo  oo  o                o  oo  oo  oo  oo  oo  o",
"o  oo  oo  oo  oo  oo  oo oooooooooooo oX  oo  oo  oo  oo  oo  o",
"o  oo  oo  oo  oo  oo  oo  oooooooooo  oo  oo  oo  oo  oo  oo  o",
"o  oo  oo  oo  oo  oo  oo              oo  oo  oo  oo  oo  oo  o",
"o  oo  oo  oo  oo  oo  oo  o oooooo o  oo  oo  oo  oo  oo  oo  o",
"o  oo  oo  oo  oo  oo  oo  o  oooo  o  oo  oo  oo  oo  oo  oo  o",
"o  oo  oo  oo  oo  oo  oo  oo  oo  oo  oo  oo  oo  oo  oo  oo  o",
"o  oo  oo  oo  oo  oo  oo  ooo.   ooo  oo  oo  oo  oo  oo  oo  o",
"o  oo  oo  oo  oo  oo  oo  ooo oo ooo  oo  oo  oo  oo  oo  oo  o",
"o  oo  oo  oo  oo  oo  oo  ooo oo ooo  oo  oo  oo  oo  oo  oo  o",
"o  oo  oo  oo  oo  oo  oo  ooo    ooo  oo  oo  oo  oo  oo  oo  o",
"o  oo  oo  oo  oo  oo  oo  oo  oo  oo  oo  oo  oo  oo  oo  oo  o",
"o  oo  oo  oo  oo  oo  oo  o  oooo  o  oo  oo  oo  oo  oo  oo  o",
"o  oo  oo  oo  oo  oo  oo  o oooooo o  oo  oo  oo  oo  oo  oo  o",
"o  oo  oo  oo  oo  oo  oo              oo  oo  oo  oo  oo  oo  o",
"o  oo  oo  oo  oo  oo  oo  oooooooooo. oo  oo  oo  oo  oo  oo  o",
"o  oo  oo  oo  oo  oo  oo oooooooooooo oo  oo  oo  oo  oo  oo  o",
"o  oo  oo  oo  oo  oo  o                o  oo  oo  oo  oo  oo  o",
"o  oo  oo  oo  oo  oo                      oo  oo  oo  oo  oo  o",
"o  oo  oo  oo  oo  oo  oooooooooooooooooo  oo  oo  oo  oo  oo  o",
"o  oo  oo  oo  oo  oo oooooooooooooooooooo oo  oo  oo  oo  oo  o",
"o  oo  oo  oo  oo  o                        o  oo  oo  oo  oo  o",
"o  oo  oo  oo  oo                              oo  oo  oo  oo  o",
"o  oo  oo  oo  oo  oooooooooooooooooooooooooo  oo  oo  oo  oo  o",
"o  oo  oo  oo  oo oooooooooooooooooooooooooooo oo  oo  oo  oo  o",
"o  oo  oo  oo  o                                o  oo  oo  oo  o",
"o  oo  oo  oo                                      oo  oo  oo  o",
"o  oo  oo  oo  oooooooooooooooooooooooooooooooooo  oo  oo  oo  o",
"o  oo  oo  oo oooooooooooooooooooooooooooooooooooo oo  oo  oo  o",
"o  oo  oo  o                                        o  oo  oo  o",
"o  oo  oo                                              oo  oo  o",
"o  oo  oo  oooooooooooooooooooooooooooooooooooooooooo  oo  oo  o",
"o  oo  oo oooooooooooooooooooooooooooooooooooooooooooo oo  oo  o",
"o  oo  o                                                o  oo  o",
"o  oo                                                      oo  o",
"o  oo  oooooooooooooooooooooooooooXoooooooooooooooooooooo  oo  o",
"o  oo ooooooooooooooooooooooooooooXooooooooooooooooooooooo oo  o",
"o  o                                                        o  o",
"o                                                              o",
"o  oooooooooooooooooooooooooooooooooooooooooooooooooooooooooo  o",
"o oooooooooooooooooooooooooooooooooooooooooooooooooooooooooooo o"
};
