/* XPM */
static char *_0fc4db2e215437af3cc2852872c7c7dXoshMz2GU7oOXFNT[] = {
/* columns rows colors chars-per-pixel */
"64 64 17 1 ",
"  c None",
". c black",
"X c #CE2038",
"o c #8A0B41",
"O c #FFB164",
"+ c #D77E4B",
"@ c #453C3C",
"# c #DADFC3",
"$ c #793D4E",
"% c #888C78",
"& c #585651",
"* c #C0B10A",
"= c #5B6731",
"- c #331A19",
"; c #79390A",
": c black",
"> c black",
/* pixels */
"                                                                ",
"                                                                ",
"                                                                ",
"                                                                ",
"                                                                ",
"                                                                ",
"                                                                ",
"                                                                ",
"                    XXXXXX                                      ",
"                   XXXXXXXX                                     ",
"                XXXXXXXXXXXX                                    ",
"        OO     XXXXXXXXXXXXX                                    ",
"        ++O+XXXXXoXXXXXXXXXX                                    ",
"       +++OOO+XXooXXXXXXXXXo                                    ",
"       ++OOO+XXXoo++++++++$o                                    ",
"      ++OOO+XXXo$$++++++++$                                     ",
"     XXXOO++Xooo++$-@++$@@                                      ",
"     XXX++++Xooo++$$+++++@XX                                    ",
"   XXXO#O+XXoooo++++OOOOO+XX                                    ",
"   XXX##OXXooooo++OOOOOOOO+X               OOOO                 ",
"   XXX+##OXoooooo+OOOOOOO++               OOOOO                 ",
"    XX+%##XX$$$o$++OOOOO+$               OO+++                  ",
"     X+%&$X+%%%&**$o$$$o**%%%%         ++++O                    ",
"     XX&&&%%%&=***+++++***=&%%%     ##+++                       ",
"      $&&&&&&***%%+++%%**&&&&%%%%  %####                        ",
"       &&&&&%***%%++%%***&&&&&&&&&%%%%                          ",
"       &&&&%%***+%++%****&&&&&&&&&&%&                           ",
"       &&&  *************=    &&&&&&                            ",
"           ***************    &&&&                              ",
"           %%***%%********                                      ",
"               ====******=                                      ",
"               ======*=*==                                      ",
"               =====&&&&&&                                      ",
"               &&&&&&&&&&=                                      ",
"             *+%%%%%&&&&%*                                      ",
"             %%%%%%%%%%%%%+*                                    ",
"             %%%%%%%%%%%%%+*                                    ",
"          %%%%%%%%%%%%%%%%+**                                   ",
"          %%%%%%%%%%%%%%%%+***                                  ",
"          %%%%%%%%%%%%%%%%+***                                  ",
"       %%%%%%%%%%%%%%%%%%%+***                                  ",
"     %%%%%%%%%%%%%%%%%%%%%+***                                  ",
"     %%%%%%%%%%%%%%%%%%%%%+***                                  ",
"     %%%%%%%%%%%%%%%%%%%%%+***                                  ",
"     %%%%%%%%%%%&&%%%%%%%%+***                                  ",
"       %%%%%%%%%&&%%%%%%%&****                                  ",
"       *%%%%%%%%&&%%%%%%%&****                                  ",
"       *%%%%%%%&&&%%%%%%%&****                                  ",
"       **%%%%%%&&&%%%%%%%*****                                  ",
"       ***%%%%&&&&%%%%%%%*****                                  ",
"       ****+%&@&&&%%%%%%%*****                                  ",
"        *****=&&&&%%%%%%%*****                                  ",
"          ********=&%%%%%*****                                  ",
"           *********====****$$                                  ",
"             ********==== ++++                                  ",
"              ******+=&=  o$+                                   ",
"                    $$$   $$++                                  ",
"                    $$$   $$+++                                 ",
"                    ---     -$+                                 ",
"                    ---     -@;--                               ",
"                    ----   --..--                               ",
"                    -@@;- -;;@@--                               ",
"                    -@$;;-;;;$$@-                               ",
"                    -----------                                 "
};
