/* XPM */
static char *_30c30dd7030497b90ab47d49bc74ab9sNI4qOQxwM0xBmBi[] = {
/* columns rows colors chars-per-pixel */
"64 64 17 1 ",
"  c None",
". c black",
"X c #CE2038",
"o c #8A0B41",
"O c #FFB164",
"+ c #D77E4B",
"@ c #453C3C",
"# c #DADFC3",
"$ c #793D4E",
"% c #888C78",
"& c #585651",
"* c #C0B10A",
"= c #5B6731",
"- c #331A19",
"; c #79390A",
": c black",
"> c black",
/* pixels */
"                                                                ",
"                                                                ",
"                                                                ",
"                                                                ",
"                                                                ",
"                                                                ",
"                                                                ",
"                                        XXXXXXXXX               ",
"                                      XXXXXXXXXXX               ",
"                                     XXooXXXXXXXXX              ",
"                                    XXXooooXXXXXXXXXX           ",
"                                    XXXooooXXXXXoXXXX           ",
"                                    ooooo+++XXXXoXXX            ",
"                                   XXX++++++++++oXXXXX    O     ",
"                                  XXX+++$$++++++oXXXXX   OO+    ",
"                                  XXX++$-@+++++$ooXXXX  O++++   ",
"                                  XXX+++$+++$@@@oooXXXOO+++OO   ",
"                                  XXX+OOOOOO++&@oooooXOOO++     ",
"            OOO                     X+OOOOOOOO$oXXXooX+OO+X     ",
"          OO++OOOO               %%%$$+OOOOO+$oooXXXX++++XX     ",
"          OO+++OOO+    #     %  %%%%&&=++++++=oooo+O###OXXX     ",
"             +++OO+++O###   %%%%%%&&&%*+ooo$+*+$o@%#####XXX     ",
"                  OO+++##&&&&&%%%&&&%%*+$$%%%%**$$&%%%XXX       ",
"                     %%%%&&&&&&%%  %***%%+++%%***=&%%%XXX       ",
"                        &&&&&&    %%****+%++%%***=&%%&XXX       ",
"                                  %%*****++*++***=&&&&XX        ",
"                                  &%************%&&&&&X         ",
"                                  &&***********%%&&&&&          ",
"                                  %%&=********   &&&&&          ",
"                                 *%%==========                  ",
"                                 %%%%%%&====                    ",
"                                 %%%%%%%%%&=                    ",
"                                &%%%%%%%%%%&%                   ",
"                               ==%%%%%%%%%%%+*                  ",
"                               **%%%%%%%%%%%+***                ",
"                               **%%%%%%%%%%%%%***               ",
"                               **%%%%%%%%%%%%%%+*               ",
"                              *%%%%%%%%%%%%%%%%%*               ",
"                             **%%%%%%%%%%%%%%%%%+%              ",
"                              *%%%%%%%%%%%%%%%%%%%%%%           ",
"                              *%%%%%%%%%%%%%%%%%%%%%%           ",
"                              *%%%%%%%%%%%%%%%%%%%%%%           ",
"                              **%%%%%%%%%%%%%%%%%%%%%           ",
"                             =***%%%%%%%%%%%%%%%%%%&&           ",
"                              =**%%%%%%%%&&%%%%%%%%==           ",
"                               **%%%%%%%%%%&%%%%%%%**           ",
"                               **%%%%%%%%%%&&&%%%+***           ",
"                               *+%%%%%%%%%%%&&&&&*******        ",
"                               ***%%%%%%%%%%&&@=********        ",
"                               ****%%%%%%%%%&&%*********        ",
"                               *****%%%%%%%%%=*********         ",
"                               *******%%%%%%+*********          ",
"                               o$******====********             ",
"                               ++$****=====******               ",
"                               ++$$%     ==***                  ",
"                               ++$$$      =+++                  ",
"                               ++$$$       $$$                  ",
"                               ++$         $$$                  ",
"                              ----         ---                  ",
"                              ----         ---                  ",
"                             -------      ----                  ",
"                              -@@;;;$    ;@@--                  ",
"                               $$;;;$$   ;$$@-                  ",
"                               -------   -----                  "
};
