/* XPM */
static char *_6cda79069e94d82fa1103b101d61894C5AnFw0sU88SEMnA[] = {
/* columns rows colors chars-per-pixel */
"64 64 17 1 ",
"  c None",
". c black",
"X c #CE2038",
"o c #8A0B41",
"O c #FFB164",
"+ c #D77E4B",
"@ c #453C3C",
"# c #DADFC3",
"$ c #793D4E",
"% c #888C78",
"& c #585651",
"* c #C0B10A",
"= c #5B6731",
"- c #331A19",
"; c #79390A",
": c black",
"> c black",
/* pixels */
"                                                                ",
"                                                                ",
"                                                                ",
"                                                                ",
"                                                                ",
"                                                                ",
"                                                                ",
"                                                                ",
"                      XXXXXXX                                   ",
"                     XXXXXXXXX                                  ",
"               XXXXXXXXXXXXXXXX                                 ",
"          OOO+XXXXXXXooXXXXXXXX                                 ",
"        OO+OO+XXXooooooXXXXXXXX                                 ",
"        OO+++XXooo+++++++XXXXXX                                 ",
"        O+++O+oo$++$$+++++XXXXX                                 ",
"        ++++O$oo++@-$++++++oooo                                 ",
"      ++++++Xooo++$$++++++$oooo                                 ",
"     ##+++XXXooo+OOO+++$@@$oXX                                  ",
"     ###%$XXXooo+OOOOOO+$oXXXXX                                 ",
"    %%##%$XXXooo$+OOOO+++oXXXXXX                                ",
"   &&&%#%$$X$$$+=+++++X+$ooXXXXXX                               ",
"   &&&&%&&&&&=****$$$$$$$$ooXXXXX                               ",
"   &&&&&&&&&=***+++++***%&XXXXXXX                               ",
"   &&&&&&&&%**+%++++%+*=&%%%XXXXX                               ",
"   &&&&&  %%**+%++%%***&&&%%%+X            OOO                  ",
"          +****++*+****=@&%%%%%          OO++OOOO               ",
"          **************=&&%%%%%        +O++++OOO               ",
"          +**************  &&&&%%%%%&%#O+++++++                 ",
"          %%**+%%********   &&&%%%&&@%#O+++OOO                  ",
"             =====*****==    &&&&&&                             ",
"             ============                                       ",
"             &&&&&&&=====                                       ",
"             &&&&&&&=====                                       ",
"             %%%%&&&&&&&&                                       ",
"           **%%%%%%%%%%%%%                                      ",
"           **%%%%%%%%%%%%%%%                                    ",
"           **%%%%%%%%%%%%%%%*                                   ",
"           **%%%%%%%%%%%%%%%%%                                  ",
"           ++%%%%%%%%%%%%%%%%%                                  ",
"           %%%%%%%%%%%%%%%%%%%*                                 ",
"           %%%%%%%%%%%%%%%%%%%%**                               ",
"           &&%%%%%%%%%%%%%%%%%%%%*                              ",
"           &&%%%%%%%%%%%%%%%%%%%%***                            ",
"           @&%%%%%%%%%%%%%%%%%%%%%%%***                         ",
"           =%%%%%%%%%%%%%%%%%%%%%%%%****                        ",
"           **=&%%%%%%%%%%%%%&&%%%%%%*****                       ",
"           **=&&%%%%%%%%%%%%%%&&&&%%*****                       ",
"           ****&&&&%%%%%%%%%%%%&@@%******                       ",
"           ==**&@&&&&%%%%%%%%%%%********                        ",
"           @=**%=&&&&&%%%%%%%%%********                         ",
"           ==***%&&&&&&&&%%%*********                           ",
"            =***%&&&&&&&&===********                            ",
"             *****=&&&&===$$$$                                  ",
"             ==***&@&&=== $$$$$                                 ",
"                *****=$    $$$$                                 ",
"                 **+*$$     @$$@                                ",
"                  o$$$$     -@$--                               ",
"                    $$$     ------                              ",
"                    $$$     ------                              ",
"                    ---      --$$$@.                            ",
"                   ----       -$$$$$                            ",
"                  @@;;;-      -;;;@$                            ",
"                  $$;;;--      -----                            ",
"                  -------                                       "
};
