/* XPM */
static char *caa40d55548b40d1f2254ab1094a411b4cs8413sqZT2ZyQ1[] = {
/* columns rows colors chars-per-pixel */
"64 64 17 1 ",
"  c None",
". c black",
"X c #CE2038",
"o c #8A0B41",
"O c #FFB164",
"+ c #D77E4B",
"@ c #453C3C",
"# c #DADFC3",
"$ c #793D4E",
"% c #888C78",
"& c #585651",
"* c #C0B10A",
"= c #5B6731",
"- c #331A19",
"; c #79390A",
": c black",
"> c black",
/* pixels */
"                                                                ",
"                                                                ",
"                                                                ",
"                                                                ",
"                                                                ",
"                                                                ",
"                                                                ",
"               XXXXXXXXX                                        ",
"               XXXXXXXXXXX                                      ",
"              XXXXXXXXXooXX                                     ",
"           XXXXXXXXXXooooXXX                                    ",
"           XXXXoXXXXXooooXXX                                    ",
"            XXXoXXXX+++ooooo                                    ",
"     O    XXXXXo++++++++++XXX                                   ",
"    +OO   XXXXXo++++++$$+++XXX                                  ",
"   ++++O  XXXXoo$+++++@-$++XXX                                  ",
"   OO+++OOXXXooo@@@$+++$+++XXX                                  ",
"     ++OOOXooooo@&++OOOOOO+XXX                                  ",
"     X+OO+XooXXXo$OOOOOOOO+X                     OOO            ",
"     XX++++XXXXooo$+OOOOO+$$%%%               OOOO++OO          ",
"     XXXO###O+oooo=++++++=&&%%%%  %     #    +OOO+++OO          ",
"     XXX#####%@o$+*+oooo+*%&&&%%%%%%   ###O+++OO+++             ",
"       XXX%%%&$$**$oo$$$+*%%&&&%%%&&&&&##+++OO                  ",
"       XXX%%%&=***%%+++%%***%  %%&&&&&&%%%%                     ",
"       XXX&%%&=***%%++%+****%%    &&&&&&                        ",
"        XX&&&&=***++*++*****%%                                  ",
"         X&&&&&%***********%%%                                  ",
"          &&&&&%%*********=@&&                                  ",
"          &&&&&   ******%%&=%%                                  ",
"                  ==========%%*                                 ",
"                    ====&%%%%%%                                 ",
"                    =&%%%%%%%%%                                 ",
"                   %&%%%%%%%%%%&                                ",
"                  *+%%%%%%%%%%%==                               ",
"                ***+%%%%%%%%%%%**                               ",
"               ***%%%%%%%%%%%%%**                               ",
"               *+%%%%%%%%%%%%%%**                               ",
"               *%%%%%%%%%%%%%%%%%*                              ",
"              %+%%%%%%%%%%%%%%%%%**                             ",
"           %%%%%%%%%%%%%%%%%%%%%%*                              ",
"           %%%%%%%%%%%%%%%%%%%%%%*                              ",
"           %%%%%%%%%%%%%%%%%%%%+**                              ",
"           %%%%%%%%%%%&%%%%%%%%***                              ",
"           &&%%%%%%%%&&%%%%%%%%***=                             ",
"           ==%%%%%%&&&%%%%%%%%%**=                              ",
"           **%%%%%&&&%%%%%%%%%%**                               ",
"           ***+%&&&&&%%%%%%%%%%**                               ",
"        *******&&&&&%%%%%%%%%%%+*                               ",
"        **********&&%%%%%%%%%%***                               ",
"        **********&&%%%%%%%%%****                               ",
"         *********=%%%%%%%%%*****                               ",
"          *********+%%%%%%*******                               ",
"             ************=*****$o                               ",
"               ********===****$++                               ",
"                  *****     %$$++                               ",
"                  +++*      $$$++                               ",
"                  $$$       $$$++                               ",
"                  $$$         $++                               ",
"                  ---         ----                              ",
"                  ---         ----                              ",
"                  ----      -------                             ",
"                  --@@;    $;;;@@-                              ",
"                  -@$$;   $$;;;$$                               ",
"                  -----   -------                               "
};
