/* XPM */
static char *_26d88ff6884454dc44bf8e25a9864bcBOvWwRHQQKq58edl[] = {
/* columns rows colors chars-per-pixel */
"64 64 17 1 ",
"  c None",
". c black",
"X c #CE2038",
"o c #8A0B41",
"O c #FFB164",
"+ c #D77E4B",
"@ c #453C3C",
"# c #DADFC3",
"$ c #793D4E",
"% c #888C78",
"& c #585651",
"* c #C0B10A",
"= c #5B6731",
"- c #331A19",
"; c #79390A",
": c black",
"> c black",
/* pixels */
"                                                                ",
"                                                                ",
"                                                                ",
"                                                                ",
"                                                                ",
"                                                                ",
"                            XXXXX                               ",
"                      XXXXXXoXXXXXXX                            ",
"            OO       XXXXXXoooXXXXXXX                           ",
"           OOOO      XXXooooooXXXXXXXX                          ",
"          OO+OO     Xoooo$$$$XXXXXXXXX                          ",
"          OO+++     Xooo+++++++XXXXXXX                          ",
"          +++OO     Xo$++&@$+++++ooo                            ",
"         ++++     XXXo$++-$++++++ooXX                           ",
"       #++++      XXXo$+++++++$$$XXXXX                          ",
"       ##++       XXoo$OOOO+++$$oXXXXX                          ",
"      ####        XXoo$OOOOOOO+XXXXXXX                          ",
"     &&%##        XXooo$+OOO+++XXXXXXX                          ",
"     &&&%%  %%%%%%&=***$$$$ooooXXXXXXXXXX                       ",
"     &&&  &%%%%&&&****+++++**%%$XXXXXXXXXX                      ",
"     &&&&&&&%%&&=***%+++++***%%$oXXXXXXXXXX                     ",
"     &&&&&&&&&&&+**%%+++%%**&&%%$oXXXXXXXXX                     ",
"       &&&&&&&&%+**+%++%%***&&%%%oXXXXXXXXX                     ",
"       &&&&&   *************=@&%%oXXXXXXX                       ",
"               **************=&%%&XXXX        OOO               ",
"               %+**+%+*******+&&&&$          O+++OOO            ",
"               %%**%%%*******=&&&%%         OO++++OO            ",
"                =======*****=  &&%%%%&&##++++++++++             ",
"                ============   &&&&&&@&##+++++OO                ",
"                &&==========      &&&&&%%                       ",
"               *%%&&&&&&&&==                                    ",
"               *%%%%%&&&&&&&                                    ",
"              **%%%%%%&&&&&&                                    ",
"             ***%%%%%%%%%%%%                                    ",
"           *****%%%%%%%%%%%%%%                                  ",
"           *****%%%%%%%%%%%%%%%                                 ",
"           ******+%%%%%%%%%%%%%%%%                              ",
"           *******%%%%%%%%%%%%%%%%%%%%&@                        ",
"           *******%%%%%%%%%%%%%%%%%%%%&&&                       ",
"           *******=&%%%%%%%%%%%%%%%%%%%%%%%%&&                  ",
"            =******+%%%%%%%%%%%%%%%%%%%%%%%%%%%%                ",
"             ******+%%%%%%%%%%%%%%%%%%%%%%%%%%                  ",
"             *******&%%%%%%%%%&&&&%%%%%%%                       ",
"             =*******%%%%%%%%%&&@&&%&%%%%                       ",
"             @=******=&%%%%%%%%%&&&&=****                       ",
"               ******%&&&%%%%%%%%&&=*******                     ",
"               ********&@&%%%%%%%&**********                    ",
"               *********%&&&%%%%%*************                  ",
"               ***********&@&&&%**************                  ",
"               ************=&@&***************                  ",
"               @************=&&***************                  ",
"                *************+&************                     ",
"                *******===*************                         ",
"                *********======*****%$$++                       ",
"                *********========   $$$++                       ",
"                *********=======     $$+++                      ",
"                *********===          $++++                     ",
"                ++$o                   $$$@-                    ",
"               -$$@-                   --$$-                    ",
"               -----                   -------                  ",
"               --------                -------                  ",
"               ---@@;;;-                -@@;;;-                 ",
"                 -$$;;;--                $$;;;--                ",
"                  -------                -------                "
};
