/* XPM */
static const char *c2xpZGUy[] = {
/* columns rows colors chars-per-pixel */
"64 64 15 1 ",
"  c black",
". c #331A19",
"X c #79390A",
"o c #453C3C",
"O c #5B6731",
"+ c #793D4E",
"@ c #585651",
"# c #CE2038",
"$ c #8A0B41",
"% c #D77E4B",
"& c #C0B10A",
"* c #888C78",
"= c #FFB164",
"- c #DADFC3",
"; c None",
/* pixels */
";;;;;;;;;;;;;;;;;;;;;;;;;;;;;;;;;;;;;;;;;;;;;;;;;;;;;;;;;;;;;;;;",
";;;;;;;;;;;;;;;;;;;;;;;;;;;;;;;;;;;;;;;;;;;;;;;;;;;;;;;;;;;;;;;;",
";;;;;;;;;;;;;;;;;;;;;;;;;;;;;;;;;;;;;;;;;;;;;;;;;;;;;;;;;;;;;;;;",
";;;;;;;;;;;;;;;;;;;;;;;;;;;;;;;;;;;;;;;;;;;;;;;;;;;;;;;;;;;;;;;;",
";;;;;;;;;;;;;;;;;;;;;;;;;;;;;;;;;;;;;;;;;;;;;;;;;;;;;;;;;;;;;;;;",
";;;;;;;;;;;;;;;;;;;;;;;;;;;;;;;;;;;;;;;;;;;;;;;;;;;;;;;;;;;;;;;;",
";;;;;;;;;;;;;;;;;;;;;;;;;;;;;;;;;;;;;;;;;;;;;;;;;;;;;;;;;;;;;;;;",
";;;;;;;;;;;;;;;;;;;;;;;;;;;;;;;;;;;;;;;;;;;;;;;;;;;;;;;;;;;;;;;;",
";;;;;;;;;;;;;;;;;;;;;;;;;;;;;;;;;;;#######;;;;;;;;;;;;;;;;;;;;;;",
";;;;;;;;;;;;;;;;;;;;;;;;;;;;;;;;;;#########;;;;;;;;;;;;;;;;;;;;;",
";;;;;;;;;;;;;;;;;;;;;;;;;;;;;;;;;################;;;;;;;;;;;;;;;",
";;;;;;;;;;;;;;;;;;;;;;;;;;;;;;;;;########$$#######%===;;;;;;;;;;",
";;;;;;;;;;;;;;;;;;;;;;;;;;;;;;;;;########$$$$$$###%==%==;;;;;;;;",
";;;;;;;;;;;;;;;;;;;;;;;;;;;;;;;;;######%%%%%%%$$$##%%%==;;;;;;;;",
";;;;;;;;;;;;;;;;;;;;;;;;;;;;;;;;;#####%%%%%++%%+$$%=%%%=;;;;;;;;",
";;;;;;;;;;;;;;;;;;;;;;;;;;;;;;;;;$$$$%%%%%%+.o%%$$+=%%%%;;;;;;;;",
";;;;;;;;;;;;;;;;;;;;;;;;;;;;;;;;;$$$$+%%%%%%++%%$$$#%%%%%%;;;;;;",
";;;;;;;;;;;;;;;;;;;;;;;;;;;;;;;;;;##$+oo+%%%===%$$$###%%%--;;;;;",
";;;;;;;;;;;;;;;;;;;;;;;;;;;;;;;;;#####$+%======%$$$###+*---;;;;;",
";;;;;;;;;;;;;;;;;;;;;;;;;;;;;;;;######$%%%====%+$$$###+*--**;;;;",
";;;;;;;;;;;;;;;;;;;;;;;;;;;;;;;######$$+%#%%%%%O%+++#++*-*@@@;;;",
";;;;;;;;;;;;;;;;;;;;;;;;;;;;;;;#####$$++++++++&&&&O@@@@@*@@@@;;;",
";;;;;;;;;;;;;;;;;;;;;;;;;;;;;;;#######@*&&&%%%%%&&&O@@@@@@@@@;;;",
";;;;;;;;;;;;;;;;;;;;;;;;;;;;;;;#####***@O&%*%%%%*%&&*@@@@@@@@;;;",
";;;;;;;;;;;;;;;;;;===;;;;;;;;;;;;#%***@@@&&&**%%*%&&**;;@@@@@;;;",
";;;;;;;;;;;;;;;====%%==;;;;;;;;;;*****@oO&&&&%&%%&&&&%;;;;;;;;;;",
";;;;;;;;;;;;;;;===%%%%=%;;;;;;;;*****@@O&&&&&&&&&&&&&&;;;;;;;;;;",
";;;;;;;;;;;;;;;;;%%%%%%%=-*@*****@@@@;;&&&&&&&&&&&&&&%;;;;;;;;;;",
";;;;;;;;;;;;;;;;;;===%%%=-*o@@***@@@;;;&&&&&&&&**%&&**;;;;;;;;;;",
";;;;;;;;;;;;;;;;;;;;;;;;;;;;;@@@@@@;;;;OO&&&&&OOOOO;;;;;;;;;;;;;",
";;;;;;;;;;;;;;;;;;;;;;;;;;;;;;;;;;;;;;;OOOOOOOOOOOO;;;;;;;;;;;;;",
";;;;;;;;;;;;;;;;;;;;;;;;;;;;;;;;;;;;;;;OOOOO@@@@@@@;;;;;;;;;;;;;",
";;;;;;;;;;;;;;;;;;;;;;;;;;;;;;;;;;;;;;;OOOOO@@@@@@@;;;;;;;;;;;;;",
";;;;;;;;;;;;;;;;;;;;;;;;;;;;;;;;;;;;;;;@@@@@@@@****;;;;;;;;;;;;;",
";;;;;;;;;;;;;;;;;;;;;;;;;;;;;;;;;;;;;;*************OO;;;;;;;;;;;",
";;;;;;;;;;;;;;;;;;;;;;;;;;;;;;;;;;;;***************OO;;;;;;;;;;;",
";;;;;;;;;;;;;;;;;;;;;;;;;;;;;;;;;;;&***************&&;;;;;;;;;;;",
";;;;;;;;;;;;;;;;;;;;;;;;;;;;;;;;;;*****************&&;;;;;;;;;;;",
";;;;;;;;;;;;;;;;;;;;;;;;;;;;;;;;;;*****************%%;;;;;;;;;;;",
";;;;;;;;;;;;;;;;;;;;;;;;;;;;;;;;;&*******************;;;;;;;;;;;",
";;;;;;;;;;;;;;;;;;;;;;;;;;;;;;;&&********************;;;;;;;;;;;",
";;;;;;;;;;;;;;;;;;;;;;;;;;;;;;&**********************;;;;;;;;;;;",
";;;;;;;;;;;;;;;;;;;;;;;;;;;;&&&**********************;;;;;;;;;;;",
";;;;;;;;;;;;;;;;;;;;;;;;;O&&***********************@@;;;;;;;;;;;",
";;;;;;;;;;;;;;;;;;;;;;;;&O&************************OO;;;;;;;;;;;",
";;;;;;;;;;;;;;;;;;;;;;;&&&********@@@@*************&&;;;;;;;;;;;",
";;;;;;;;;;;;;;;;;;;;;;;&&&*****@@@@@*************@O&&;;;;;;;;;;;",
";;;;;;;;;;;;;;;;;;;;;;;&&&&&@@@@@*************@@@&&&&;;;;;;;;;;;",
";;;;;;;;;;;;;;;;;;;;;;;;&&&&&&&&*************@@o@&&&&;;;;;;;;;;;",
";;;;;;;;;;;;;;;;;;;;;;;;;&&&&&&&&***********@@@O*&&&&;;;;;;;;;;;",
";;;;;;;;;;;;;;;;;;;;;;;;;;;&&&&&&&&&*****@@@@@@*&&&O;;;;;;;;;;;;",
";;;;;;;;;;;;;;;;;;;;;;;;;;;;&&&&&&OOOOO@@@@@@@@*&&&;;;;;;;;;;;;;",
";;;;;;;;;;;;;;;;;;;;;;;;;;;;;;;;;;++++OOO@@@@O&&&&&;;;;;;;;;;;;;",
";;;;;;;;;;;;;;;;;;;;;;;;;;;;;;;;;+++++;OOO@@@O&&&OO;;;;;;;;;;;;;",
";;;;;;;;;;;;;;;;;;;;;;;;;;;;;;;;;++++;;;;+@OOO&&;;;;;;;;;;;;;;;;",
";;;;;;;;;;;;;;;;;;;;;;;;;;;;;;;;o++o;;;;;++O@O&;;;;;;;;;;;;;;;;;",
";;;;;;;;;;;;;;;;;;;;;;;;;;;;;;;..+o.;;;;;+++++;;;;;;;;;;;;;;;;;;",
";;;;;;;;;;;;;;;;;;;;;;;;;;;;;;......;;;;;+++;;;;;;;;;;;;;;;;;;;;",
";;;;;;;;;;;;;;;;;;;;;;;;;;;;;;......;;;;;+++;;;;;;;;;;;;;;;;;;;;",
";;;;;;;;;;;;;;;;;;;;;;;;;;;; o+++..;;;;;;...;;;;;;;;;;;;;;;;;;;;",
";;;;;;;;;;;;;;;;;;;;;;;;;;;;+++++.;;;;;;;....;;;;;;;;;;;;;;;;;;;",
";;;;;;;;;;;;;;;;;;;;;;;;;;;;+oXXX.;;;;;;.XXXoo;;;;;;;;;;;;;;;;;;",
";;;;;;;;;;;;;;;;;;;;;;;;;;;;.....;;;;;;..XXX++;;;;;;;;;;;;;;;;;;",
";;;;;;;;;;;;;;;;;;;;;;;;;;;;;;;;;;;;;;;.......;;;;;;;;;;;;;;;;;;"
};
