/* XPM */
static const char *c2xpZGUx[] = {
/* columns rows colors chars-per-pixel */
"64 64 14 1 ",
"  c #331A19",
". c #79390A",
"X c #453C3C",
"o c #5B6731",
"O c #793D4E",
"+ c #585651",
"@ c #CE2038",
"# c #8A0B41",
"$ c #D77E4B",
"% c #C0B10A",
"& c #888C78",
"* c #FFB164",
"= c #DADFC3",
"- c None",
/* pixels */
"----------------------------------------------------------------",
"----------------------------------------------------------------",
"----------------------------------------------------------------",
"----------------------------------------------------------------",
"----------------------------------------------------------------",
"----------------------------------------------------------------",
"-------------------------------@@@@@----------------------------",
"----------------------------@@@@@@@@@@@@@@----------------------",
"---------------------------@@@@@@@###@@@@@--------**------------",
"--------------------------@@@@@@@@#####@@@@------****-----------",
"--------------------------@@@@@@@@@OOOOO##@@-----*$$$*----------",
"--------------------------@@@@@@$$$$$$$$##@@-----$$$$*----------",
"----------------------------###$$$$$$XO$$O@@-----*$$$$----------",
"---------------------------@@#O$$$$$$OX$$O@@@@----$$$$$---------",
"--------------------------@@@@@OOO$$$$$**O##@@------$$$$=-------",
"--------------------------@@@@@OOO$$$****O##@@-------$**=-------",
"--------------------------@@@@@@@$*******O##@@--------===-------",
"--------------------------@@@@@@$$$****$###@@@--------==&++-----",
"-----------------------@@@@@@@@@@####OOOO%%%%+&&&&&&--&&+++-----",
"----------------------@@@@@@@@@#O&$%%$$$$$%%%&+++&&&&+--+++-----",
"---------------------@@@@@@@@@##O&&$%%$$$$$$%%o+++&&+++++++-----",
"---------------------@@@@@@@@@#OO&+Xo%&$$$&&&%%%+++++++++++-----",
"----------------------@@@@@@@@O&&&+Xo%%&&$&&&%%$&++++++++-------",
"-----------------------@@@@@@@O&&+X%%%%%%%%%%%%%%----++++-------",
"---------------***--------@@@@+&&+%%%%%%%%%%%%%%%---------------",
"------------***$$$*----------O++++%%%%%%%%&&$%%$&---------------",
"------------**$$$$$**--------&++++o%%%%%%%&&&%%$&---------------",
"--------------$$$$$$$$$=&X+&&&&++--Xo%%%%ooooooo----------------",
"----------------**$$$$$=&X+++++++---oooooooooooo----------------",
"-----------------------&&+++++------oooooooooo++----------------",
"------------------------------------oo++++++++&&o---------------",
"------------------------------------++++++++&&&&%---------------",
"------------------------------------++++++&&&&&&%%--------------",
"------------------------------------+++&&&&&&&&&%%%-------------",
"----------------------------------++++&&&&&&&&&&%%ooo-----------",
"---------------------------------+&&&&&&&&&&&&&&%%%%%-----------",
"------------------------------&&&&&&&&&&&&&&&&$%%%%%%-----------",
"------------------------&&&&&&&&&&&&&&&&&&&&&&$%%%%%%-----------",
"-----------------------&&&&&&&&&&&&&&&&&&&&&&&$%%%%%%-----------",
"------------------&&&&&&&&&&&&&&&&&&&&&&&&&&&&$%%%%%%-----------",
"----------------&&&&&&&&&&&&&&&&&&&&&&&&&&&&&%%%%%oXX-----------",
"------------------+++++&&&&&&&&&&&&&&&&&&&&&&%%%%%%-------------",
"-----------------------+++&&&&&&&&&&&&&&&&++&%%%%%%-------------",
"-----------------------%%%&&&&&&&&&&&&&&&&&&%%%%%%%-------------",
"-----------------------%%%&&&&&&&&&&&&&&&&$$%%%%%o--------------",
"---------------------%%%%%%$$&&&&&&&&&&&++%%%%%%%---------------",
"--------------------%%%%%%%%%$&&&&&&&+++o%%%%%%%%---------------",
"------------------%%%%%%%%%%%%%o+++++++&%%%%%%%%%---------------",
"------------------%%%%%%%%%%%%%%%+++++ooo%%%%%%%%---------------",
"------------------%%%%%%%%%%%%%%%++++oooo%%%%%%%%---------------",
"------------------%%%%%%%%%%%%%%%++oooooo%%%%%%%o---------------",
"----------------------%%%%%%%%%%%+ooooooo%%%%%%%o---------------",
"-------------------------%%%%%ooooooooooo%%%%%%%----------------",
"-----------------------$$OOooooooooooooooo%%%%%%----------------",
"-----------------------$$OOO---ooooooooooo%%%%%%----------------",
"----------------------$$$OO-----oo-ooooooo%%%%%%----------------",
"---------------------$$$$O-----------ooooo%%%%%%----------------",
"--------------------XXOOO-------------------XO$$----------------",
"--------------------XXO  ------------------- XOO ---------------",
"------------------       -------------------     ---------------",
"------------------       ----------------        ---------------",
"-----------------...XXX ---------------- ...XX   ---------------",
"----------------  ..OOO----------------  ..OOOX-----------------",
"----------------       ----------------       ------------------"
};
