/* XPM */
static char *_e4b8d47bb85439eaeec46a31a53ce5e47tj30FhhxJOTrox[] = {
/* columns rows colors chars-per-pixel */
"64 64 23 1 ",
"  c #2A0409",
". c #2F050B",
"X c #31040A",
"o c #35050B",
"O c #3B050C",
"+ c #3D050C",
"@ c #47060F",
"# c #460710",
"$ c #4B0812",
"% c #4D0A13",
"& c #540711",
"* c #5A0914",
"= c #6F0715",
"- c #6B0E1B",
"; c #6C0E1C",
": c #700716",
"> c #730817",
", c #740817",
"< c #860E1F",
"1 c #8C1324",
"2 c #AC1B2F",
"3 c #C62037",
"4 c #C82037",
/* pixels */
" $;----------;$  $;----------;$  $;----------;$  $;----------;$ ",
"X13333333333332$X13333333333332$X13333333333332$X13333333333332$",
"+>=::::::::::=4;+>=::::::::::=4;+>=::::::::::=4;+>=::::::::::=4;",
"+,>>>>>>>>>>>><@+,>>>>>>>>>>>><@+,>>>>>>>>>>>><@+,>>>>>>>>>>>><@",
"O>>>>>>>>>>>>>,+O>>>>>>>>>>>>>,+O>>>>>>>>>>>>>,+O>>>>>>>>>>>>>,+",
".*,,,,,,,,,,,,,+.*,,,,,,,,,,,,,+.*,,,,,,,,,,,,,+.*,,,,,,,,,,,,,+",
".#************&X.#************&X.#************&X.#************&X",
" ..............  ..............  ..............  .............. ",
"-----;$  $;----------;$  $;----------;$  $;----------;$  $;-----",
"3333332$X13333333333332$X13333333333332$X13333333333332$X1333333",
":::::=4;+>=::::::::::=4;+>=::::::::::=4;+>=::::::::::=4;+>=:::::",
">>>>>><@+,>>>>>>>>>>>><@+,>>>>>>>>>>>><@+,>>>>>>>>>>>><@+,>>>>>>",
">>>>>>,+O>>>>>>>>>>>>>,+O>>>>>>>>>>>>>,+O>>>>>>>>>>>>>,+O>>>>>>>",
",,,,,,,+.*,,,,,,,,,,,,,+.*,,,,,,,,,,,,,+.*,,,,,,,,,,,,,+.*,,,,,,",
"******&X.#************&X.#************&X.#************&X.#******",
".......  ..............  ..............  ..............  .......",
" $;----------;$  $;----------;$  $;----------;$  $;----------;$ ",
"X13333333333332$X13333333333332$X13333333333332$X13333333333332$",
"+>=::::::::::=4;+>=::::::::::=4;+>=::::::::::=4;+>=::::::::::=4;",
"+,>>>>>>>>>>>><@+,>>>>>>>>>>>><@+,>>>>>>>>>>>><@+,>>>>>>>>>>>><@",
"O>>>>>>>>>>>>>,+O>>>>>>>>>>>>>,+O>>>>>>>>>>>>>,+O>>>>>>>>>>>>>,+",
".*,,,,,,,,,,,,,+.*,,,,,,,,,,,,,+.*,,,,,,,,,,,,,+.*,,,,,,,,,,,,,+",
".#************&X.#************&X.#*************o.%************&X",
" ..............  ..............  ..............  .............. ",
"-----;$  $;----------;$  $;----------;$  $;----------;$  $;-----",
"3333332$X13333333333332$X13333333333332$X13333333333332$X1333333",
":::::=4;+>=::::::::::=4;+>=::::::::::=4;+>=::::::::::=4;+>=:::::",
">>>>>><@+,>>>>>>>>>>>><@+,>>>>>>>>>>>><@+,>>>>>>>>>>>><@+,>>>>>>",
">>>>>>,+O>>>>>>>>>>>>>,+O>>>>>>>>>>>>>,+O>>>>>>>>>>>>>,+O>>>>>>>",
",,,,,,,+.*,,,,,,,,,,,,,+.*,,,,,,,,,,,,,+.*,,,,,,,,,,,,,+.*,,,,,,",
"******&X.#************&X.#************&X.#************&X.#******",
".......  ..............  ..............  ..............  .......",
" $;----------;$  $;----------;$  $;----------;$  $;----------;$ ",
"X13333333333332$X13333333333332$X13333333333332$X13333333333332$",
"+>=::::::::::=4;+>=::::::::::=4;+>=::::::::::=4;+>=::::::::::=4;",
"+,>>>>>>>>>>>><@+,>>>>>>>>>>>><@+,>>>>>>>>>>>><@+,>>>>>>>>>>>><@",
"O>>>>>>>>>>>>>,+O>>>>>>>>>>>>>,+O>>>>>>>>>>>>>,+O>>>>>>>>>>>>>,+",
".*,,,,,,,,,,,,,+.*,,,,,,,,,,,,,+.*,,,,,,,,,,,,,+.*,,,,,,,,,,,,,+",
".#************&X.#************&X.#************&X.#************&X",
" ..............  ..............  ..............  .............. ",
"-----;$  $;----------;$  $;----------;$  $;----------;$  $;-----",
"3333332$X13333333333332$X13333333333332$X13333333333332$X1333333",
":::::=4;+>=::::::::::=4;+>=::::::::::=4;+>=::::::::::=4;+>=:::::",
">>>>>><@+,>>>>>>>>>>>><@+,>>>>>>>>>>>><@+,>>>>>>>>>>>><@+,>>>>>>",
">>>>>>,+O>>>>>>>>>>>>>,+O>>>>>>>>>>>>>,+O>>>>>>>>>>>>>,+O>>>>>>>",
",,,,,,,+.*,,,,,,,,,,,,,+.*,,,,,,,,,,,,,+.*,,,,,,,,,,,,,+.*,,,,,,",
"******&X.#************&X.#************&X.#************&X.#******",
".......  ..............  ..............  ..............  .......",
" $;----------;$  $;----------;$  $;----------;$  $;----------;$ ",
"X13333333333332$X13333333333332$X13333333333332$X13333333333332$",
"+>=::::::::::=4;+>=::::::::::=4;+>=::::::::::=4;+>=::::::::::=4;",
"+,>>>>>>>>>>>><@+,>>>>>>>>>>>><@+,>>>>>>>>>>>><@+,>>>>>>>>>>>><@",
"O>>>>>>>>>>>>>,+O>>>>>>>>>>>>>,+O>>>>>>>>>>>>>,+O>>>>>>>>>>>>>,+",
".*,,,,,,,,,,,,,+.*,,,,,,,,,,,,,+.*,,,,,,,,,,,,,+.*,,,,,,,,,,,,,+",
".#************&X.#************&X.#************&X.#************&X",
" ..............  ..............  ..............  .............. ",
"-----;$  $;----------;$  $;----------;$  $;----------;$  $;-----",
"3333332$X13333333333332$X13333333333332$X13333333333332$X1333333",
":::::=4;+>=::::::::::=4;+>=::::::::::=4;+>=::::::::::=4;+>=:::::",
">>>>>><@+,>>>>>>>>>>>><@+,>>>>>>>>>>>><@+,>>>>>>>>>>>><@+,>>>>>>",
">>>>>>,+O>>>>>>>>>>>>>,+O>>>>>>>>>>>>>,+O>>>>>>>>>>>>>,+O>>>>>>>",
",,,,,,,+.*,,,,,,,,,,,,,+.*,,,,,,,,,,,,,+.*,,,,,,,,,,,,,+.*,,,,,,",
"******&X.#************&X.#************&X.#************&X.#******",
".......  ..............  ..............  ..............  ......."
};
